<?xml version="1.0" encoding="UTF-8" standalone="no"?>
<!DOCTYPE svg PUBLIC "-//W3C//DTD SVG 1.1//EN"
"http://www.w3.org/Graphics/SVG/1.1/DTD/svg11.dtd">


<!-- Page 1 -->
<svg viewBox="0 0 989 357" version="1.1" xmlns="http://www.w3.org/2000/svg" xmlns:xlink="http://www.w3.org/1999/xlink" preserveAspectRatio="xMidYMid meet">
<defs>
<clipPath id="c0_1"><path d="M0,357.5V0H990V357.5Z" /></clipPath>

<style type="text/css"><![CDATA[
text { white-space: pre; }
path, image { pointer-events: none; }

.s1_1{
font-size: 27.50px;
font-family: LiberationSans_9;
fill: #000000;
}

.g0_1{
fill: #FFFFFF;
}
.g1_1{
fill: #5B9BD5;
}
.g2_1{
fill: none;
stroke: #1F4E79;
stroke-width: 1.513264;
stroke-linecap: butt;
stroke-linejoin: miter;
stroke-miterlimit: 7;
}
.g3_1{
fill: #ED7D31;
}
.g4_1{
fill: none;
stroke: #843C0B;
stroke-width: 1.513264;
stroke-linecap: butt;
stroke-linejoin: miter;
stroke-miterlimit: 7;
}
.g5_1{
fill: none;
stroke: #000000;
stroke-width: 1.1241388;
stroke-linecap: butt;
stroke-linejoin: miter;
stroke-miterlimit: 7;
}

]]></style>

</defs>
<path d="M0,0
L0,357
L989,357
L989,0 Z " 
fill="#FFFFFF" stroke="none" />
<g clip-path="url(#c0_1)">
<path fill-rule="evenodd" d="M0,.1H990V357.6H0V.1Z" class="g0_1" />
<path fill-rule="evenodd" d="M0,.1H990V357.6H0V.1Z" class="g0_1" />
</g>
<path fill-rule="evenodd" d="M148.8,291.3v-1.5l.2,-1.6l.1,-1.5l.3,-1.5l.3,-1.5l.5,-1.4l.4,-1.5l.7,-1.4l.6,-1.4l.7,-1.4l.8,-1.3l.8,-1.3l.9,-1.2l.9,-1.2l1.1,-1.1l1,-1l1.2,-1.1l1.3,-.9l1,-.9l1.4,-1l1.2,-.7l1.4,-.6l1.4,-.8l1.5,-.5l1.4,-.6l1.5,-.4l1.5,-.3l1.4,-.3l1.5,-.2l1.6,-.1h3l1.7,.1l1.5,.3l1.6,.2l1.5,.4l1.5,.5l1.5,.4l1.4,.7l1.6,.7l1.3,.8l1.4,.7l1.2,1l1.2,.9l1.3,1l1.2,1.1l1.1,1.1l1,1.2l.9,1.4l1,1.2l.7,1.4l.8,1.4l.8,1.3l.4,1.6l.6,1.5l.5,1.4l.3,1.5l.3,1.7l.1,1.5l.2,1.5l.2,1.6l-.2,1.6l-.2,1.6l-.1,1.5l-.3,1.7l-.3,1.3l-.5,1.6l-.4,1.5l-.6,1.5l-.8,1.4l-.8,1.4l-.7,1.4l-1,1.2l-.9,1.3l-1,1.3l-1.1,1l-1.2,1.1l-1.3,1.1l-1.2,.9l-1.2,.9l-1.4,.8l-1.3,.7l-1.6,.8l-1.4,.6l-1.5,.5l-1.5,.4l-1.5,.5l-1.6,.1l-1.5,.3l-1.7,.2h-3l-1.6,-.2l-1.6,-.3l-1.6,-.1l-1.5,-.5l-1.5,-.4l-1.5,-.5l-1.4,-.6l-1.4,-.8l-1.4,-.6l-1.3,-.9l-1.4,-.9l-1.2,-.9l-1.3,-1.1l-1,-1.1l-1.3,-1l-.9,-1.3l-1,-1.2l-.8,-1.3l-.9,-1.4l-.8,-1.4l-.6,-1.4l-.6,-1.5l-.6,-1.4l-.3,-1.5l-.5,-1.5l-.3,-1.6l-.1,-1.6l-.2,-1.6v-1.5Z" class="g1_1" />
<path d="M148.8,291.3v-1.5l.2,-1.6l.1,-1.5l.3,-1.5l.3,-1.5l.5,-1.4l.4,-1.5l.7,-1.4l.6,-1.4l.7,-1.4l.8,-1.3l.8,-1.3l.9,-1.2l.9,-1.2l1.1,-1.1l1,-1l1.2,-1.1l1.3,-.9l1,-.9l1.4,-1l1.2,-.7l1.4,-.6l1.4,-.8l1.5,-.5l1.4,-.6l1.5,-.4l1.5,-.3l1.4,-.3l1.5,-.2l1.6,-.1h3l1.7,.1l1.5,.3l1.6,.2l1.5,.4l1.5,.5l1.5,.4l1.4,.7l1.6,.7l1.3,.8l1.4,.7l1.2,1l1.2,.9l1.3,1l1.2,1.1l1.1,1.1l1,1.2l.9,1.4l1,1.2l.7,1.4l.8,1.4l.8,1.3l.4,1.6l.6,1.5l.5,1.4l.3,1.5l.3,1.7l.1,1.5l.2,1.5l.2,1.6l-.2,1.6l-.2,1.6l-.1,1.5l-.3,1.7l-.3,1.3l-.5,1.6l-.4,1.5l-.6,1.5l-.8,1.4l-.8,1.4l-.7,1.4l-1,1.2l-.9,1.3l-1,1.3l-1.1,1l-1.2,1.1l-1.3,1.1l-1.2,.9l-1.2,.9l-1.4,.8l-1.3,.7l-1.6,.8l-1.4,.6l-1.5,.5l-1.5,.4l-1.5,.5l-1.6,.1l-1.5,.3l-1.7,.2h-3l-1.6,-.2l-1.6,-.3l-1.6,-.1l-1.5,-.5l-1.5,-.4l-1.5,-.5l-1.4,-.6l-1.4,-.8l-1.4,-.6l-1.3,-.9l-1.4,-.9l-1.2,-.9l-1.3,-1.1l-1,-1.1l-1.3,-1l-.9,-1.3l-1,-1.2l-.8,-1.3l-.9,-1.4l-.8,-1.4l-.6,-1.4l-.6,-1.5l-.6,-1.4l-.3,-1.5l-.5,-1.5l-.3,-1.6l-.1,-1.6l-.2,-1.6v-1.5Z" class="g2_1" />
<path fill-rule="evenodd" d="M38.8,291.3v-1.5l.2,-1.6l.1,-1.5l.3,-1.5l.3,-1.5l.5,-1.4l.4,-1.5l.7,-1.4l.6,-1.4l.7,-1.4l.8,-1.3l.8,-1.3l.9,-1.2l.9,-1.2l1.1,-1.1l1,-1l1.2,-1.1l1.3,-.9l1,-.9l1.4,-1l1.2,-.7l1.4,-.6l1.4,-.8l1.5,-.5l1.4,-.6l1.5,-.4l1.5,-.3l1.4,-.3l1.5,-.2l1.6,-.1h3l1.7,.1l1.5,.3l1.6,.2l1.5,.4l1.5,.5l1.6,.4l1.3,.7l1.6,.7l1.3,.8l1.4,.7l1.2,1l1.2,.9l1.3,1l1.2,1.1l1.1,1.1l1,1.2l.9,1.4l1,1.2l.7,1.4l.8,1.4l.8,1.3l.4,1.6l.6,1.5l.5,1.4l.3,1.5l.3,1.7l.1,1.5l.2,1.5l.2,1.6l-.2,1.6l-.2,1.6l-.1,1.5l-.3,1.7l-.3,1.3l-.5,1.6l-.4,1.5l-.6,1.5l-.8,1.4l-.8,1.4l-.7,1.4l-1,1.2l-.9,1.3l-1,1.3l-1.1,1l-1.2,1.1l-1.3,1.1l-1.2,.9l-1.2,.9l-1.4,.8l-1.3,.7l-1.6,.8l-1.3,.6l-1.6,.5l-1.5,.4l-1.5,.5l-1.6,.1l-1.5,.3l-1.7,.2h-3l-1.6,-.2l-1.6,-.3l-1.6,-.1l-1.5,-.5l-1.5,-.4l-1.5,-.5l-1.4,-.6L55.3,318l-1.4,-.6l-1.3,-.9l-1.4,-.9L50,314.7l-1.3,-1.1l-1,-1.1l-1.3,-1l-.9,-1.3l-1,-1.2l-.8,-1.3l-.9,-1.4L42,304.9l-.6,-1.4L40.8,302l-.6,-1.4l-.3,-1.5l-.5,-1.5L39.1,296L39,294.4l-.2,-1.6v-1.5Z" class="g1_1" />
<path d="M38.8,291.3v-1.5l.2,-1.6l.1,-1.5l.3,-1.5l.3,-1.5l.5,-1.4l.4,-1.5l.7,-1.4l.6,-1.4l.7,-1.4l.8,-1.3l.8,-1.3l.9,-1.2l.9,-1.2l1.1,-1.1l1,-1l1.2,-1.1l1.3,-.9l1,-.9l1.4,-1l1.2,-.7l1.4,-.6l1.4,-.8l1.5,-.5l1.4,-.6l1.5,-.4l1.5,-.3l1.4,-.3l1.5,-.2l1.6,-.1h3l1.7,.1l1.5,.3l1.6,.2l1.5,.4l1.5,.5l1.6,.4l1.3,.7l1.6,.7l1.3,.8l1.4,.7l1.2,1l1.2,.9l1.3,1l1.2,1.1l1.1,1.1l1,1.2l.9,1.4l1,1.2l.7,1.4l.8,1.4l.8,1.3l.4,1.6l.6,1.5l.5,1.4l.3,1.5l.3,1.7l.1,1.5l.2,1.5l.2,1.6l-.2,1.6l-.2,1.6l-.1,1.5l-.3,1.7l-.3,1.3l-.5,1.6l-.4,1.5l-.6,1.5l-.8,1.4l-.8,1.4l-.7,1.4l-1,1.2l-.9,1.3l-1,1.3l-1.1,1l-1.2,1.1l-1.3,1.1l-1.2,.9l-1.2,.9l-1.4,.8l-1.3,.7l-1.6,.8l-1.3,.6l-1.6,.5l-1.5,.4l-1.5,.5l-1.6,.1l-1.5,.3l-1.7,.2h-3l-1.6,-.2l-1.6,-.3l-1.6,-.1l-1.5,-.5l-1.5,-.4l-1.5,-.5l-1.4,-.6L55.3,318l-1.4,-.6l-1.3,-.9l-1.4,-.9L50,314.7l-1.3,-1.1l-1,-1.1l-1.3,-1l-.9,-1.3l-1,-1.2l-.8,-1.3l-.9,-1.4L42,304.9l-.6,-1.4L40.8,302l-.6,-1.4l-.3,-1.5l-.5,-1.5L39.1,296L39,294.4l-.2,-1.6v-1.5Z" class="g2_1" />
<path fill-rule="evenodd" d="M258.8,291.3v-1.5l.2,-1.6l.1,-1.5l.3,-1.5l.3,-1.5l.5,-1.4l.4,-1.5l.7,-1.4l.6,-1.4l.7,-1.4l.8,-1.3l.8,-1.3l.9,-1.2l.9,-1.2l1.1,-1.1l1,-1l1.2,-1.1l1.3,-.9l1,-.9l1.4,-1l1.2,-.7l1.4,-.6l1.4,-.8l1.5,-.5l1.4,-.6l1.5,-.4l1.5,-.3l1.4,-.3l1.5,-.2l1.6,-.1h3l1.7,.1l1.5,.3l1.6,.2l1.5,.4l1.5,.5l1.5,.4l1.4,.7l1.6,.7l1.3,.8l1.4,.7l1.2,1l1.2,.9l1.3,1l1.2,1.1l1.1,1.1l1,1.2l.9,1.4l1,1.2l.7,1.4l.8,1.4l.8,1.3l.4,1.6l.6,1.5l.5,1.4l.3,1.5l.3,1.7l.1,1.5l.2,1.5l.2,1.6l-.2,1.6l-.2,1.6l-.1,1.5l-.3,1.7l-.3,1.3l-.5,1.6l-.4,1.5l-.6,1.5l-.8,1.4l-.8,1.4l-.7,1.4l-1,1.2l-.9,1.3l-1,1.3l-1.1,1l-1.2,1.1l-1.3,1.1l-1.2,.9l-1.2,.9l-1.4,.8l-1.3,.7l-1.6,.8l-1.4,.6l-1.5,.5l-1.5,.4l-1.5,.5l-1.6,.1l-1.5,.3l-1.7,.2h-3l-1.6,-.2l-1.6,-.3l-1.6,-.1l-1.5,-.5l-1.5,-.4l-1.5,-.5l-1.4,-.6l-1.4,-.8l-1.4,-.6l-1.3,-.9l-1.4,-.9l-1.2,-.9l-1.3,-1.1l-1,-1.1l-1.3,-1l-.9,-1.3l-1,-1.2l-.8,-1.3l-.9,-1.4l-.8,-1.4l-.6,-1.4l-.6,-1.5l-.6,-1.4l-.3,-1.5l-.5,-1.5l-.3,-1.6l-.1,-1.6l-.2,-1.6v-1.5Z" class="g1_1" />
<path d="M258.8,291.3v-1.5l.2,-1.6l.1,-1.5l.3,-1.5l.3,-1.5l.5,-1.4l.4,-1.5l.7,-1.4l.6,-1.4l.7,-1.4l.8,-1.3l.8,-1.3l.9,-1.2l.9,-1.2l1.1,-1.1l1,-1l1.2,-1.1l1.3,-.9l1,-.9l1.4,-1l1.2,-.7l1.4,-.6l1.4,-.8l1.5,-.5l1.4,-.6l1.5,-.4l1.5,-.3l1.4,-.3l1.5,-.2l1.6,-.1h3l1.7,.1l1.5,.3l1.6,.2l1.5,.4l1.5,.5l1.5,.4l1.4,.7l1.6,.7l1.3,.8l1.4,.7l1.2,1l1.2,.9l1.3,1l1.2,1.1l1.1,1.1l1,1.2l.9,1.4l1,1.2l.7,1.4l.8,1.4l.8,1.3l.4,1.6l.6,1.5l.5,1.4l.3,1.5l.3,1.7l.1,1.5l.2,1.5l.2,1.6l-.2,1.6l-.2,1.6l-.1,1.5l-.3,1.7l-.3,1.3l-.5,1.6l-.4,1.5l-.6,1.5l-.8,1.4l-.8,1.4l-.7,1.4l-1,1.2l-.9,1.3l-1,1.3l-1.1,1l-1.2,1.1l-1.3,1.1l-1.2,.9l-1.2,.9l-1.4,.8l-1.3,.7l-1.6,.8l-1.4,.6l-1.5,.5l-1.5,.4l-1.5,.5l-1.6,.1l-1.5,.3l-1.7,.2h-3l-1.6,-.2l-1.6,-.3l-1.6,-.1l-1.5,-.5l-1.5,-.4l-1.5,-.5l-1.4,-.6l-1.4,-.8l-1.4,-.6l-1.3,-.9l-1.4,-.9l-1.2,-.9l-1.3,-1.1l-1,-1.1l-1.3,-1l-.9,-1.3l-1,-1.2l-.8,-1.3l-.9,-1.4l-.8,-1.4l-.6,-1.4l-.6,-1.5l-.6,-1.4l-.3,-1.5l-.5,-1.5l-.3,-1.6l-.1,-1.6l-.2,-1.6v-1.5Z" class="g2_1" />
<path fill-rule="evenodd" d="M368.8,291.3v-1.5l.2,-1.6l.1,-1.5l.3,-1.5l.3,-1.5l.5,-1.4l.4,-1.5l.7,-1.4l.6,-1.4l.7,-1.4l.8,-1.3l.8,-1.3l.9,-1.2l.9,-1.2l1.1,-1.1l1,-1l1.2,-1.1l1.3,-.9l1,-.9l1.4,-1l1.2,-.7l1.4,-.6l1.4,-.8l1.5,-.5l1.4,-.6l1.5,-.4l1.5,-.3l1.4,-.3l1.5,-.2l1.6,-.1h3l1.7,.1l1.5,.3l1.6,.2l1.5,.4l1.5,.5l1.6,.4l1.3,.7l1.6,.7l1.3,.8l1.4,.7l1.2,1l1.2,.9l1.3,1l1.2,1.1l1.1,1.1l1,1.2l.9,1.4l1,1.2l.7,1.4l.8,1.4l.8,1.3l.4,1.6l.6,1.5l.5,1.4l.3,1.5l.3,1.7l.1,1.5l.2,1.5l.2,1.6l-.2,1.6l-.2,1.6l-.1,1.5l-.3,1.7l-.3,1.3l-.5,1.6l-.4,1.5l-.6,1.5l-.8,1.4l-.8,1.4l-.7,1.4l-1,1.2l-.9,1.3l-1,1.3l-1.1,1l-1.2,1.1l-1.3,1.1l-1.2,.9l-1.2,.9l-1.4,.8l-1.3,.7l-1.6,.8l-1.3,.6l-1.6,.5l-1.5,.4l-1.5,.5l-1.6,.1l-1.5,.3l-1.7,.2h-3l-1.6,-.2l-1.6,-.3l-1.6,-.1l-1.5,-.5l-1.5,-.4l-1.5,-.5l-1.4,-.6l-1.4,-.8l-1.4,-.6l-1.3,-.9l-1.4,-.9l-1.2,-.9l-1.3,-1.1l-1,-1.1l-1.3,-1l-.9,-1.3l-1,-1.2l-.8,-1.3l-.9,-1.4l-.8,-1.4l-.6,-1.4l-.6,-1.5l-.6,-1.4l-.3,-1.5l-.5,-1.5l-.3,-1.6l-.1,-1.6l-.2,-1.6v-1.5Z" class="g1_1" />
<path d="M368.8,291.3v-1.5l.2,-1.6l.1,-1.5l.3,-1.5l.3,-1.5l.5,-1.4l.4,-1.5l.7,-1.4l.6,-1.4l.7,-1.4l.8,-1.3l.8,-1.3l.9,-1.2l.9,-1.2l1.1,-1.1l1,-1l1.2,-1.1l1.3,-.9l1,-.9l1.4,-1l1.2,-.7l1.4,-.6l1.4,-.8l1.5,-.5l1.4,-.6l1.5,-.4l1.5,-.3l1.4,-.3l1.5,-.2l1.6,-.1h3l1.7,.1l1.5,.3l1.6,.2l1.5,.4l1.5,.5l1.6,.4l1.3,.7l1.6,.7l1.3,.8l1.4,.7l1.2,1l1.2,.9l1.3,1l1.2,1.1l1.1,1.1l1,1.2l.9,1.4l1,1.2l.7,1.4l.8,1.4l.8,1.3l.4,1.6l.6,1.5l.5,1.4l.3,1.5l.3,1.7l.1,1.5l.2,1.5l.2,1.6l-.2,1.6l-.2,1.6l-.1,1.5l-.3,1.7l-.3,1.3l-.5,1.6l-.4,1.5l-.6,1.5l-.8,1.4l-.8,1.4l-.7,1.4l-1,1.2l-.9,1.3l-1,1.3l-1.1,1l-1.2,1.1l-1.3,1.1l-1.2,.9l-1.2,.9l-1.4,.8l-1.3,.7l-1.6,.8l-1.3,.6l-1.6,.5l-1.5,.4l-1.5,.5l-1.6,.1l-1.5,.3l-1.7,.2h-3l-1.6,-.2l-1.6,-.3l-1.6,-.1l-1.5,-.5l-1.5,-.4l-1.5,-.5l-1.4,-.6l-1.4,-.8l-1.4,-.6l-1.3,-.9l-1.4,-.9l-1.2,-.9l-1.3,-1.1l-1,-1.1l-1.3,-1l-.9,-1.3l-1,-1.2l-.8,-1.3l-.9,-1.4l-.8,-1.4l-.6,-1.4l-.6,-1.5l-.6,-1.4l-.3,-1.5l-.5,-1.5l-.3,-1.6l-.1,-1.6l-.2,-1.6v-1.5Z" class="g2_1" />
<path fill-rule="evenodd" d="M198.5,126.5v-1.6l.1,-1.5l.2,-1.5l.3,-1.6l.3,-1.3l.4,-1.6l.5,-1.3l.6,-1.6l.6,-1.3l.6,-1.4l.9,-1.2l.8,-1.4l.9,-1.2l.9,-1.3l1.1,-1l1.1,-1.1l1,-1.1l1.3,-.9l1.2,-.9l1.4,-.8l1.2,-.7l1.4,-.8l1.3,-.6l1.6,-.6l1.3,-.5l1.6,-.4l1.3,-.3l1.6,-.3l1.5,-.2l1.5,-.1h3.1l1.7,.1l1.5,.2l1.5,.3l1.5,.3l1.6,.4l1.5,.6l1.4,.7l1.5,.6l1.4,.7l1.4,.8l1.2,.9l1.2,1.1l1.2,.9l1.2,1.1l1.1,1.2l.9,1.2l1.1,1.2l.8,1.3l.9,1.3l.7,1.4l.7,1.5l.6,1.4l.6,1.5l.4,1.6l.3,1.5l.3,1.5l.2,1.5l.2,1.7V128l-.2,1.7l-.2,1.5l-.3,1.5l-.3,1.5l-.4,1.6l-.6,1.5l-.6,1.4l-.7,1.4l-.7,1.5l-.8,1.2l-.9,1.4l-1.1,1.2l-.9,1.2l-1.1,1.1l-1.2,1.2l-1.2,.9l-1.2,1.1l-1.2,.8l-1.4,.9l-1.4,.7l-1.5,.7l-1.4,.6l-1.5,.6l-1.6,.4l-1.5,.3l-1.5,.3l-1.5,.2l-1.7,.2H227l-1.7,-.2l-1.5,-.2l-1.5,-.3l-1.5,-.3l-1.6,-.4l-1.5,-.6l-1.4,-.6l-1.3,-.7l-1.6,-.7l-1.2,-.8l-1.4,-.9l-1.2,-.9l-1.2,-1.1l-1.1,-1.1l-1.2,-1.2l-.9,-1.2l-1.1,-1.2l-.8,-1.2l-.9,-1.4l-.7,-1.4l-.6,-1.5l-.7,-1.4l-.6,-1.5l-.4,-1.6l-.3,-1.5l-.3,-1.5l-.2,-1.5l-.1,-1.7v-1.5Z" class="g3_1" />
<path d="M198.5,126.5v-1.6l.1,-1.5l.2,-1.5l.3,-1.6l.3,-1.3l.4,-1.6l.5,-1.3l.6,-1.6l.6,-1.3l.6,-1.4l.9,-1.2l.8,-1.4l.9,-1.2l.9,-1.3l1.1,-1l1.1,-1.1l1,-1.1l1.3,-.9l1.2,-.9l1.4,-.8l1.2,-.7l1.4,-.8l1.3,-.6l1.6,-.6l1.3,-.5l1.6,-.4l1.3,-.3l1.6,-.3l1.5,-.2l1.5,-.1h3.1l1.7,.1l1.5,.2l1.5,.3l1.5,.3l1.6,.4l1.5,.6l1.4,.7l1.5,.6l1.4,.7l1.4,.8l1.2,.9l1.2,1.1l1.2,.9l1.2,1.1l1.1,1.2l.9,1.2l1.1,1.2l.8,1.3l.9,1.3l.7,1.4l.7,1.5l.6,1.4l.6,1.5l.4,1.6l.3,1.5l.3,1.5l.2,1.5l.2,1.7V128l-.2,1.7l-.2,1.5l-.3,1.5l-.3,1.5l-.4,1.6l-.6,1.5l-.6,1.4l-.7,1.4l-.7,1.5l-.8,1.2l-.9,1.4l-1.1,1.2l-.9,1.2l-1.1,1.1l-1.2,1.2l-1.2,.9l-1.2,1.1l-1.2,.8l-1.4,.9l-1.4,.7l-1.5,.7l-1.4,.6l-1.5,.6l-1.6,.4l-1.5,.3l-1.5,.3l-1.5,.2l-1.7,.2H227l-1.7,-.2l-1.5,-.2l-1.5,-.3l-1.5,-.3l-1.6,-.4l-1.5,-.6l-1.4,-.6l-1.3,-.7l-1.6,-.7l-1.2,-.8l-1.4,-.9l-1.2,-.9l-1.2,-1.1l-1.1,-1.1l-1.2,-1.2l-.9,-1.2l-1.1,-1.2l-.8,-1.2l-.9,-1.4l-.7,-1.4l-.6,-1.5l-.7,-1.4l-.6,-1.5l-.4,-1.6l-.3,-1.5l-.3,-1.5l-.2,-1.5l-.1,-1.7v-1.5Z" class="g4_1" />
<path fill-rule="evenodd" d="M88.5,126.5v-1.6l.1,-1.5l.2,-1.5l.3,-1.6l.3,-1.3l.4,-1.6l.5,-1.3l.6,-1.6l.6,-1.3l.6,-1.4l.9,-1.2l.8,-1.4l.9,-1.2l.9,-1.3l1.1,-1l1.1,-1.1l1,-1.1l1.3,-.9l1.2,-.9l1.4,-.8l1.2,-.7l1.4,-.8l1.3,-.6l1.6,-.6l1.3,-.5l1.6,-.4l1.3,-.3l1.6,-.3l1.5,-.2l1.5,-.1h3.1l1.7,.1l1.5,.2l1.5,.3l1.5,.3l1.6,.4l1.5,.6l1.4,.7l1.5,.6l1.4,.7l1.4,.8l1.2,.9l1.2,1.1l1.2,.9l1.2,1.1l1.1,1.2l.9,1.2l1.1,1.2l.8,1.3l.9,1.3l.7,1.4l.7,1.5l.6,1.4l.6,1.5l.4,1.6l.3,1.5l.3,1.5l.2,1.5l.2,1.7V128l-.2,1.7l-.2,1.5l-.3,1.5l-.3,1.5l-.4,1.6l-.6,1.5l-.6,1.4l-.7,1.4l-.7,1.5l-.8,1.2l-.9,1.4l-1.1,1.2l-.9,1.2l-1.1,1.1l-1.2,1.2l-1.2,.9l-1.2,1.1l-1.2,.8l-1.4,.9l-1.4,.7l-1.5,.7l-1.4,.6l-1.5,.6l-1.6,.4l-1.5,.3l-1.5,.3l-1.5,.2l-1.7,.2H117l-1.7,-.2l-1.5,-.2l-1.5,-.3l-1.5,-.3l-1.6,-.4l-1.5,-.6l-1.4,-.6l-1.3,-.7l-1.6,-.7l-1.2,-.8l-1.4,-.9L99.6,150l-1.2,-1.1l-1.1,-1.1l-1.2,-1.2l-.9,-1.2l-1.1,-1.2L93.3,143l-.9,-1.4l-.7,-1.4l-.6,-1.5l-.7,-1.4l-.6,-1.5l-.4,-1.6l-.3,-1.5l-.3,-1.5l-.2,-1.5L88.5,128v-1.5Z" class="g3_1" />
<path d="M88.5,126.5v-1.6l.1,-1.5l.2,-1.5l.3,-1.6l.3,-1.3l.4,-1.6l.5,-1.3l.6,-1.6l.6,-1.3l.6,-1.4l.9,-1.2l.8,-1.4l.9,-1.2l.9,-1.3l1.1,-1l1.1,-1.1l1,-1.1l1.3,-.9l1.2,-.9l1.4,-.8l1.2,-.7l1.4,-.8l1.3,-.6l1.6,-.6l1.3,-.5l1.6,-.4l1.3,-.3l1.6,-.3l1.5,-.2l1.5,-.1h3.1l1.7,.1l1.5,.2l1.5,.3l1.5,.3l1.6,.4l1.5,.6l1.4,.7l1.5,.6l1.4,.7l1.4,.8l1.2,.9l1.2,1.1l1.2,.9l1.2,1.1l1.1,1.2l.9,1.2l1.1,1.2l.8,1.3l.9,1.3l.7,1.4l.7,1.5l.6,1.4l.6,1.5l.4,1.6l.3,1.5l.3,1.5l.2,1.5l.2,1.7V128l-.2,1.7l-.2,1.5l-.3,1.5l-.3,1.5l-.4,1.6l-.6,1.5l-.6,1.4l-.7,1.4l-.7,1.5l-.8,1.2l-.9,1.4l-1.1,1.2l-.9,1.2l-1.1,1.1l-1.2,1.2l-1.2,.9l-1.2,1.1l-1.2,.8l-1.4,.9l-1.4,.7l-1.5,.7l-1.4,.6l-1.5,.6l-1.6,.4l-1.5,.3l-1.5,.3l-1.5,.2l-1.7,.2H117l-1.7,-.2l-1.5,-.2l-1.5,-.3l-1.5,-.3l-1.6,-.4l-1.5,-.6l-1.4,-.6l-1.3,-.7l-1.6,-.7l-1.2,-.8l-1.4,-.9L99.6,150l-1.2,-1.1l-1.1,-1.1l-1.2,-1.2l-.9,-1.2l-1.1,-1.2L93.3,143l-.9,-1.4l-.7,-1.4l-.6,-1.5l-.7,-1.4l-.6,-1.5l-.4,-1.6l-.3,-1.5l-.3,-1.5l-.2,-1.5L88.5,128v-1.5Z" class="g4_1" />
<path fill-rule="evenodd" d="M308.5,126.5v-1.6l.1,-1.5l.2,-1.5l.3,-1.6l.3,-1.3l.4,-1.6l.5,-1.3l.6,-1.6l.6,-1.3l.6,-1.4l.9,-1.2l.8,-1.4l.9,-1.2l.9,-1.3l1.1,-1l1.1,-1.1l1,-1.1l1.3,-.9l1.2,-.9l1.4,-.8l1.2,-.7l1.4,-.8l1.3,-.6l1.6,-.6l1.3,-.5l1.6,-.4l1.3,-.3l1.6,-.3l1.5,-.2l1.5,-.1h3.1l1.7,.1l1.5,.2l1.5,.3l1.5,.3l1.6,.4l1.5,.6l1.4,.7l1.5,.6l1.4,.7l1.4,.8l1.2,.9l1.2,1.1l1.2,.9l1.2,1.1l1.1,1.2l.9,1.2l1.1,1.2l.8,1.3l.9,1.3l.7,1.4l.7,1.5l.6,1.4l.6,1.5l.4,1.6l.3,1.5l.3,1.5l.2,1.5l.2,1.7V128l-.2,1.7l-.2,1.5l-.3,1.5l-.3,1.5l-.4,1.6l-.6,1.5l-.6,1.4l-.7,1.4l-.7,1.5l-.8,1.2l-.9,1.4l-1.1,1.2l-.9,1.2l-1.1,1.1l-1.2,1.2l-1.2,.9l-1.2,1.1l-1.2,.8l-1.4,.9l-1.4,.7l-1.5,.7l-1.4,.6l-1.5,.6l-1.6,.4l-1.5,.3l-1.5,.3l-1.5,.2l-1.7,.2H337l-1.7,-.2l-1.5,-.2l-1.5,-.3l-1.5,-.3l-1.6,-.4l-1.5,-.6l-1.4,-.6l-1.3,-.7l-1.6,-.7l-1.2,-.8l-1.4,-.9l-1.2,-.9l-1.2,-1.1l-1.1,-1.1l-1.2,-1.2l-.9,-1.2l-1.1,-1.2l-.8,-1.2l-.9,-1.4l-.7,-1.4l-.6,-1.5l-.7,-1.4l-.6,-1.5l-.4,-1.6l-.3,-1.5l-.3,-1.5l-.2,-1.5l-.1,-1.7v-1.5Z" class="g3_1" />
<path d="M308.5,126.5v-1.6l.1,-1.5l.2,-1.5l.3,-1.6l.3,-1.3l.4,-1.6l.5,-1.3l.6,-1.6l.6,-1.3l.6,-1.4l.9,-1.2l.8,-1.4l.9,-1.2l.9,-1.3l1.1,-1l1.1,-1.1l1,-1.1l1.3,-.9l1.2,-.9l1.4,-.8l1.2,-.7l1.4,-.8l1.3,-.6l1.6,-.6l1.3,-.5l1.6,-.4l1.3,-.3l1.6,-.3l1.5,-.2l1.5,-.1h3.1l1.7,.1l1.5,.2l1.5,.3l1.5,.3l1.6,.4l1.5,.6l1.4,.7l1.5,.6l1.4,.7l1.4,.8l1.2,.9l1.2,1.1l1.2,.9l1.2,1.1l1.1,1.2l.9,1.2l1.1,1.2l.8,1.3l.9,1.3l.7,1.4l.7,1.5l.6,1.4l.6,1.5l.4,1.6l.3,1.5l.3,1.5l.2,1.5l.2,1.7V128l-.2,1.7l-.2,1.5l-.3,1.5l-.3,1.5l-.4,1.6l-.6,1.5l-.6,1.4l-.7,1.4l-.7,1.5l-.8,1.2l-.9,1.4l-1.1,1.2l-.9,1.2l-1.1,1.1l-1.2,1.2l-1.2,.9l-1.2,1.1l-1.2,.8l-1.4,.9l-1.4,.7l-1.5,.7l-1.4,.6l-1.5,.6l-1.6,.4l-1.5,.3l-1.5,.3l-1.5,.2l-1.7,.2H337l-1.7,-.2l-1.5,-.2l-1.5,-.3l-1.5,-.3l-1.6,-.4l-1.5,-.6l-1.4,-.6l-1.3,-.7l-1.6,-.7l-1.2,-.8l-1.4,-.9l-1.2,-.9l-1.2,-1.1l-1.1,-1.1l-1.2,-1.2l-.9,-1.2l-1.1,-1.2l-.8,-1.2l-.9,-1.4l-.7,-1.4l-.6,-1.5l-.7,-1.4l-.6,-1.5l-.4,-1.6l-.3,-1.5l-.3,-1.5l-.2,-1.5l-.1,-1.7v-1.5Z" class="g4_1" />
<path d="M69.1,261.1L118.6,156.7M69.1,261.1L228.6,156.7M69.1,261.1L338.6,156.7M179.1,261.1L118.6,156.7m60.5,104.4L228.6,156.7M179.1,261.1L338.6,156.7M289.1,261.1L118.6,156.7M289.1,261.1L228.6,156.7m60.5,104.4L338.6,156.7m60.5,104.4L118.6,156.7M399.1,261.1L228.6,156.7M399.1,261.1L338.6,156.7" class="g5_1" />
<path fill-rule="evenodd" d="M673.4,291.3v-3.1l.4,-1.5l.3,-1.5l.3,-1.5l.4,-1.4l.5,-1.5l.4,-1.4l.8,-1.4l.6,-1.4l.8,-1.3l.9,-1.3l.9,-1.2l.9,-1.2l1.1,-1.1l1.1,-1l1,-1.1l1.3,-.9l1.2,-.9l1.2,-1l1.4,-.7l1.3,-.6l1.4,-.8L693,263l1.5,-.6l1.4,-.4l1.5,-.3l1.6,-.3l1.5,-.2l1.5,-.1h3.1l1.7,.1l1.5,.3l1.5,.2l1.5,.4l1.6,.5l1.3,.4l1.6,.7l1.3,.7l1.6,.8l1.2,.7l1.4,1l1.2,.9l1.2,1l1.1,1.1l1,1.1l1.1,1.2l.9,1.4l1,1.2l.9,1.4l.7,1.4l.6,1.3l.7,1.6l.6,1.5l.3,1.4l.4,1.5l.3,1.7l.2,1.5l.1,1.5v3.2l-.1,1.6l-.2,1.5l-.3,1.7l-.4,1.3l-.3,1.6l-.6,1.5l-.7,1.5l-.6,1.4l-.7,1.4l-.9,1.4l-1,1.2l-.9,1.3l-1.1,1.3l-1,1l-1.1,1.1l-1.2,1.1l-1.2,.9l-1.4,.9l-1.2,.8l-1.6,.7l-1.3,.8l-1.6,.6l-1.3,.5l-1.6,.4l-1.5,.5l-1.5,.1l-1.5,.3l-1.7,.2H702l-1.7,-.2l-1.5,-.3l-1.5,-.1l-1.6,-.5l-1.5,-.4l-1.5,-.5l-1.4,-.6l-1.5,-.8l-1.4,-.6l-1.4,-.9l-1.2,-.9l-1.2,-.9l-1.2,-1.1l-1.2,-1.1l-1.1,-1l-.9,-1.3L679.1,309l-.9,-1.3l-.8,-1.4l-.7,-1.4l-.7,-1.4l-.6,-1.5l-.6,-1.4l-.4,-1.5l-.3,-1.5l-.3,-1.6l-.4,-1.6v-1.6l-.1,-1.5h.1Z" class="g1_1" />
<path d="M673.4,291.3v-3.1l.4,-1.5l.3,-1.5l.3,-1.5l.4,-1.4l.5,-1.5l.4,-1.4l.8,-1.4l.6,-1.4l.8,-1.3l.9,-1.3l.9,-1.2l.9,-1.2l1.1,-1.1l1.1,-1l1,-1.1l1.3,-.9l1.2,-.9l1.2,-1l1.4,-.7l1.3,-.6l1.4,-.8L693,263l1.5,-.6l1.4,-.4l1.5,-.3l1.6,-.3l1.5,-.2l1.5,-.1h3.1l1.7,.1l1.5,.3l1.5,.2l1.5,.4l1.6,.5l1.3,.4l1.6,.7l1.3,.7l1.6,.8l1.2,.7l1.4,1l1.2,.9l1.2,1l1.1,1.1l1,1.1l1.1,1.2l.9,1.4l1,1.2l.9,1.4l.7,1.4l.6,1.3l.7,1.6l.6,1.5l.3,1.4l.4,1.5l.3,1.7l.2,1.5l.1,1.5v3.2l-.1,1.6l-.2,1.5l-.3,1.7l-.4,1.3l-.3,1.6l-.6,1.5l-.7,1.5l-.6,1.4l-.7,1.4l-.9,1.4l-1,1.2l-.9,1.3l-1.1,1.3l-1,1l-1.1,1.1l-1.2,1.1l-1.2,.9l-1.4,.9l-1.2,.8l-1.6,.7l-1.3,.8l-1.6,.6l-1.3,.5l-1.6,.4l-1.5,.5l-1.5,.1l-1.5,.3l-1.7,.2H702l-1.7,-.2l-1.5,-.3l-1.5,-.1l-1.6,-.5l-1.5,-.4l-1.5,-.5l-1.4,-.6l-1.5,-.8l-1.4,-.6l-1.4,-.9l-1.2,-.9l-1.2,-.9l-1.2,-1.1l-1.2,-1.1l-1.1,-1l-.9,-1.3L679.1,309l-.9,-1.3l-.8,-1.4l-.7,-1.4l-.7,-1.4l-.6,-1.5l-.6,-1.4l-.4,-1.5l-.3,-1.5l-.3,-1.6l-.4,-1.6v-1.6l-.1,-1.5h.1Z" class="g2_1" />
<path fill-rule="evenodd" d="M563.4,291.3v-3.1l.4,-1.5l.3,-1.5l.3,-1.5l.4,-1.4l.5,-1.5l.4,-1.4l.8,-1.4l.6,-1.4l.8,-1.3l.9,-1.3l.9,-1.2l.9,-1.2l1.1,-1.1l1.1,-1l1,-1.1l1.3,-.9l1.2,-.9l1.2,-1l1.4,-.7l1.3,-.6l1.4,-.8L583,263l1.5,-.6l1.4,-.4l1.5,-.3l1.6,-.3l1.5,-.2l1.5,-.1h3.1l1.7,.1l1.5,.3l1.5,.2l1.5,.4l1.6,.5l1.3,.4l1.6,.7l1.3,.7l1.6,.8l1.2,.7l1.4,1l1.2,.9l1.2,1l1.1,1.1l1,1.1l1.1,1.2l.9,1.4l1,1.2l.9,1.4l.7,1.4l.6,1.3l.7,1.6l.6,1.5l.3,1.4l.4,1.5l.3,1.7l.2,1.5l.1,1.5v3.2l-.1,1.6l-.2,1.5l-.3,1.7l-.4,1.3l-.3,1.6l-.6,1.5l-.7,1.5l-.6,1.4l-.7,1.4l-.9,1.4l-1,1.2l-.9,1.3l-1.1,1.3l-1,1l-1.1,1.1l-1.2,1.1l-1.2,.9l-1.4,.9l-1.2,.8l-1.6,.7l-1.3,.8l-1.6,.6l-1.3,.5l-1.6,.4l-1.5,.5l-1.5,.1l-1.5,.3l-1.7,.2H592l-1.7,-.2l-1.5,-.3l-1.5,-.1l-1.6,-.5l-1.5,-.4l-1.5,-.5l-1.4,-.6l-1.5,-.8l-1.4,-.6l-1.4,-.9l-1.2,-.9l-1.2,-.9l-1.2,-1.1l-1.2,-1.1l-1.1,-1l-.9,-1.3L569.1,309l-.9,-1.3l-.8,-1.4l-.7,-1.4l-.7,-1.4l-.6,-1.5l-.6,-1.4l-.4,-1.5l-.3,-1.5l-.3,-1.6l-.4,-1.6v-1.6l-.1,-1.5h.1Z" class="g1_1" />
<path d="M563.4,291.3v-3.1l.4,-1.5l.3,-1.5l.3,-1.5l.4,-1.4l.5,-1.5l.4,-1.4l.8,-1.4l.6,-1.4l.8,-1.3l.9,-1.3l.9,-1.2l.9,-1.2l1.1,-1.1l1.1,-1l1,-1.1l1.3,-.9l1.2,-.9l1.2,-1l1.4,-.7l1.3,-.6l1.4,-.8L583,263l1.5,-.6l1.4,-.4l1.5,-.3l1.6,-.3l1.5,-.2l1.5,-.1h3.1l1.7,.1l1.5,.3l1.5,.2l1.5,.4l1.6,.5l1.3,.4l1.6,.7l1.3,.7l1.6,.8l1.2,.7l1.4,1l1.2,.9l1.2,1l1.1,1.1l1,1.1l1.1,1.2l.9,1.4l1,1.2l.9,1.4l.7,1.4l.6,1.3l.7,1.6l.6,1.5l.3,1.4l.4,1.5l.3,1.7l.2,1.5l.1,1.5v3.2l-.1,1.6l-.2,1.5l-.3,1.7l-.4,1.3l-.3,1.6l-.6,1.5l-.7,1.5l-.6,1.4l-.7,1.4l-.9,1.4l-1,1.2l-.9,1.3l-1.1,1.3l-1,1l-1.1,1.1l-1.2,1.1l-1.2,.9l-1.4,.9l-1.2,.8l-1.6,.7l-1.3,.8l-1.6,.6l-1.3,.5l-1.6,.4l-1.5,.5l-1.5,.1l-1.5,.3l-1.7,.2H592l-1.7,-.2l-1.5,-.3l-1.5,-.1l-1.6,-.5l-1.5,-.4l-1.5,-.5l-1.4,-.6l-1.5,-.8l-1.4,-.6l-1.4,-.9l-1.2,-.9l-1.2,-.9l-1.2,-1.1l-1.2,-1.1l-1.1,-1l-.9,-1.3L569.1,309l-.9,-1.3l-.8,-1.4l-.7,-1.4l-.7,-1.4l-.6,-1.5l-.6,-1.4l-.4,-1.5l-.3,-1.5l-.3,-1.6l-.4,-1.6v-1.6l-.1,-1.5h.1Z" class="g2_1" />
<path fill-rule="evenodd" d="M783.4,291.3v-3.1l.4,-1.5l.3,-1.5l.3,-1.5l.4,-1.4l.5,-1.5l.4,-1.4l.8,-1.4l.6,-1.4l.8,-1.3l.9,-1.3l.9,-1.2l.9,-1.2l1.1,-1.1l1.1,-1l1,-1.1l1.3,-.9l1.2,-.9l1.2,-1l1.4,-.7l1.3,-.6l1.4,-.8L803,263l1.5,-.6l1.4,-.4l1.5,-.3l1.6,-.3l1.5,-.2l1.5,-.1h3.1l1.6,.1l1.6,.3l1.5,.2l1.5,.4l1.6,.5l1.3,.4l1.6,.7l1.3,.7l1.6,.8l1.2,.7l1.4,1l1.2,.9l1.2,1l1.1,1.1l1,1.1l1.1,1.2l.9,1.4l1,1.2l.9,1.4l.7,1.4l.6,1.3l.7,1.6l.6,1.5l.3,1.4l.4,1.5l.3,1.7l.2,1.5l.1,1.5v3.2l-.1,1.6l-.2,1.5l-.3,1.7l-.4,1.3l-.3,1.6l-.6,1.5l-.7,1.5l-.6,1.4l-.7,1.4l-.9,1.4l-1,1.2l-.9,1.3l-1.1,1.3l-1,1l-1.1,1.1l-1.2,1.1l-1.2,.9l-1.4,.9l-1.2,.8l-1.6,.7l-1.3,.8l-1.6,.6l-1.3,.5l-1.6,.4l-1.5,.5l-1.5,.1l-1.6,.3l-1.6,.2H812l-1.7,-.2l-1.5,-.3l-1.5,-.1l-1.5,-.5l-1.6,-.4l-1.5,-.5l-1.4,-.6l-1.5,-.8l-1.4,-.6l-1.4,-.9l-1.2,-.9l-1.2,-.9l-1.2,-1.1l-1.2,-1.1l-1.1,-1l-.9,-1.3L789.1,309l-.9,-1.3l-.8,-1.4l-.7,-1.4l-.7,-1.4l-.6,-1.5l-.6,-1.4l-.4,-1.5l-.3,-1.5l-.3,-1.6l-.4,-1.6v-1.6l-.1,-1.5h.1Z" class="g1_1" />
<path d="M783.4,291.3v-3.1l.4,-1.5l.3,-1.5l.3,-1.5l.4,-1.4l.5,-1.5l.4,-1.4l.8,-1.4l.6,-1.4l.8,-1.3l.9,-1.3l.9,-1.2l.9,-1.2l1.1,-1.1l1.1,-1l1,-1.1l1.3,-.9l1.2,-.9l1.2,-1l1.4,-.7l1.3,-.6l1.4,-.8L803,263l1.5,-.6l1.4,-.4l1.5,-.3l1.6,-.3l1.5,-.2l1.5,-.1h3.1l1.6,.1l1.6,.3l1.5,.2l1.5,.4l1.6,.5l1.3,.4l1.6,.7l1.3,.7l1.6,.8l1.2,.7l1.4,1l1.2,.9l1.2,1l1.1,1.1l1,1.1l1.1,1.2l.9,1.4l1,1.2l.9,1.4l.7,1.4l.6,1.3l.7,1.6l.6,1.5l.3,1.4l.4,1.5l.3,1.7l.2,1.5l.1,1.5v3.2l-.1,1.6l-.2,1.5l-.3,1.7l-.4,1.3l-.3,1.6l-.6,1.5l-.7,1.5l-.6,1.4l-.7,1.4l-.9,1.4l-1,1.2l-.9,1.3l-1.1,1.3l-1,1l-1.1,1.1l-1.2,1.1l-1.2,.9l-1.4,.9l-1.2,.8l-1.6,.7l-1.3,.8l-1.6,.6l-1.3,.5l-1.6,.4l-1.5,.5l-1.5,.1l-1.6,.3l-1.6,.2H812l-1.7,-.2l-1.5,-.3l-1.5,-.1l-1.5,-.5l-1.6,-.4l-1.5,-.5l-1.4,-.6l-1.5,-.8l-1.4,-.6l-1.4,-.9l-1.2,-.9l-1.2,-.9l-1.2,-1.1l-1.2,-1.1l-1.1,-1l-.9,-1.3L789.1,309l-.9,-1.3l-.8,-1.4l-.7,-1.4l-.7,-1.4l-.6,-1.5l-.6,-1.4l-.4,-1.5l-.3,-1.5l-.3,-1.6l-.4,-1.6v-1.6l-.1,-1.5h.1Z" class="g2_1" />
<path fill-rule="evenodd" d="M893.4,291.3v-3.1l.4,-1.5l.3,-1.5l.3,-1.5l.4,-1.4l.5,-1.5l.4,-1.4l.8,-1.4l.6,-1.4l.8,-1.3l.9,-1.3l.9,-1.2l.9,-1.2l1.1,-1.1l1.1,-1l1,-1.1l1.3,-.9l1.2,-.9l1.2,-1l1.4,-.7l1.3,-.6l1.4,-.8L913,263l1.5,-.6l1.4,-.4l1.5,-.3l1.6,-.3l1.5,-.2l1.5,-.1h3.1l1.6,.1l1.6,.3l1.5,.2l1.5,.4l1.6,.5l1.3,.4l1.6,.7l1.3,.7l1.6,.8l1.2,.7l1.4,1l1.2,.9l1.2,1l1.1,1.1l1,1.1l1.1,1.2l.9,1.4l1,1.2l.9,1.4l.7,1.4l.6,1.3l.7,1.6l.6,1.5l.3,1.4l.4,1.5l.3,1.7l.2,1.5l.1,1.5v3.2l-.1,1.6l-.2,1.5l-.3,1.7l-.4,1.3l-.3,1.6l-.6,1.5l-.7,1.5l-.6,1.4l-.7,1.4l-.9,1.4l-1,1.2l-.9,1.3l-1.1,1.3l-1,1l-1.1,1.1l-1.2,1.1l-1.2,.9l-1.4,.9l-1.2,.8l-1.6,.7l-1.3,.8l-1.6,.6l-1.3,.5l-1.6,.4l-1.5,.5l-1.5,.1l-1.6,.3l-1.6,.2H922l-1.7,-.2l-1.5,-.3l-1.5,-.1l-1.5,-.5l-1.6,-.4l-1.5,-.5l-1.4,-.6l-1.5,-.8l-1.4,-.6l-1.4,-.9l-1.2,-.9l-1.2,-.9l-1.2,-1.1l-1.2,-1.1l-1.1,-1l-.9,-1.3L899.1,309l-.9,-1.3l-.8,-1.4l-.7,-1.4l-.7,-1.4l-.6,-1.5l-.6,-1.4l-.4,-1.5l-.3,-1.5l-.3,-1.6l-.4,-1.6v-1.6l-.1,-1.5h.1Z" class="g1_1" />
<path d="M893.4,291.3v-3.1l.4,-1.5l.3,-1.5l.3,-1.5l.4,-1.4l.5,-1.5l.4,-1.4l.8,-1.4l.6,-1.4l.8,-1.3l.9,-1.3l.9,-1.2l.9,-1.2l1.1,-1.1l1.1,-1l1,-1.1l1.3,-.9l1.2,-.9l1.2,-1l1.4,-.7l1.3,-.6l1.4,-.8L913,263l1.5,-.6l1.4,-.4l1.5,-.3l1.6,-.3l1.5,-.2l1.5,-.1h3.1l1.6,.1l1.6,.3l1.5,.2l1.5,.4l1.6,.5l1.3,.4l1.6,.7l1.3,.7l1.6,.8l1.2,.7l1.4,1l1.2,.9l1.2,1l1.1,1.1l1,1.1l1.1,1.2l.9,1.4l1,1.2l.9,1.4l.7,1.4l.6,1.3l.7,1.6l.6,1.5l.3,1.4l.4,1.5l.3,1.7l.2,1.5l.1,1.5v3.2l-.1,1.6l-.2,1.5l-.3,1.7l-.4,1.3l-.3,1.6l-.6,1.5l-.7,1.5l-.6,1.4l-.7,1.4l-.9,1.4l-1,1.2l-.9,1.3l-1.1,1.3l-1,1l-1.1,1.1l-1.2,1.1l-1.2,.9l-1.4,.9l-1.2,.8l-1.6,.7l-1.3,.8l-1.6,.6l-1.3,.5l-1.6,.4l-1.5,.5l-1.5,.1l-1.6,.3l-1.6,.2H922l-1.7,-.2l-1.5,-.3l-1.5,-.1l-1.5,-.5l-1.6,-.4l-1.5,-.5l-1.4,-.6l-1.5,-.8l-1.4,-.6l-1.4,-.9l-1.2,-.9l-1.2,-.9l-1.2,-1.1l-1.2,-1.1l-1.1,-1l-.9,-1.3L899.1,309l-.9,-1.3l-.8,-1.4l-.7,-1.4l-.7,-1.4l-.6,-1.5l-.6,-1.4l-.4,-1.5l-.3,-1.5l-.3,-1.6l-.4,-1.6v-1.6l-.1,-1.5h.1Z" class="g2_1" />
<path fill-rule="evenodd" d="M722.9,126.5l.2,-1.6v-1.5l.3,-1.5l.2,-1.6L724,119l.5,-1.6l.4,-1.3l.5,-1.6l.8,-1.3l.6,-1.4l.7,-1.2l.9,-1.4l1,-1.2l.9,-1.3l1,-1l1.1,-1.1l1.1,-1.1l1.2,-.9l1.2,-.9l1.3,-.8l1.3,-.7l1.4,-.8l1.4,-.6l1.4,-.6l1.3,-.5l1.6,-.4l1.5,-.3l1.5,-.3l1.5,-.2l1.6,-.1h3l1.6,.1l1.6,.2l1.6,.3l1.5,.3l1.5,.4l1.4,.6l1.5,.7l1.4,.6l1.4,.7l1.3,.8l1.4,.9l1.2,1.1l1.3,.9l1,1.1l1.1,1.2l1.1,1.2l.9,1.2l.9,1.3l.8,1.3l.7,1.4l.8,1.5l.6,1.4l.5,1.5l.4,1.6l.5,1.5l.1,1.5l.3,1.5l.2,1.7V128l-.2,1.7l-.3,1.5l-.1,1.5l-.5,1.5l-.4,1.6l-.5,1.5l-.6,1.4l-.8,1.4l-.6,1.5l-.9,1.2l-.9,1.4l-.9,1.2l-1.1,1.2l-1.1,1.1l-1,1.2l-1.3,.9l-1.2,1.1l-1.4,.8l-1.3,.9l-1.4,.7l-1.4,.7l-1.5,.6l-1.4,.6l-1.5,.4l-1.5,.3l-1.6,.3l-1.6,.2l-1.6,.2h-3l-1.7,-.2l-1.5,-.2l-1.6,-.3l-1.5,-.3l-1.5,-.4l-1.6,-.6L741,154l-1.6,-.7l-1.3,-.7l-1.4,-.8l-1.2,-.9l-1.2,-.9L733,148.9l-1.2,-1.1l-1.1,-1.2l-1,-1.2l-.9,-1.2l-1,-1.2l-.7,-1.4l-.8,-1.4l-.8,-1.5l-.6,-1.4l-.4,-1.5l-.5,-1.6l-.4,-1.5l-.2,-1.5l-.3,-1.5l-.2,-1.7v-1.5Z" class="g3_1" />
<path d="M722.9,126.5l.2,-1.6v-1.5l.3,-1.5l.2,-1.6L724,119l.5,-1.6l.4,-1.3l.5,-1.6l.8,-1.3l.6,-1.4l.7,-1.2l.9,-1.4l1,-1.2l.9,-1.3l1,-1l1.1,-1.1l1.1,-1.1l1.2,-.9l1.2,-.9l1.3,-.8l1.3,-.7l1.4,-.8l1.4,-.6l1.4,-.6l1.3,-.5l1.6,-.4l1.5,-.3l1.5,-.3l1.5,-.2l1.6,-.1h3l1.6,.1l1.6,.2l1.6,.3l1.5,.3l1.5,.4l1.4,.6l1.5,.7l1.4,.6l1.4,.7l1.3,.8l1.4,.9l1.2,1.1l1.3,.9l1,1.1l1.1,1.2l1.1,1.2l.9,1.2l.9,1.3l.8,1.3l.7,1.4l.8,1.5l.6,1.4l.5,1.5l.4,1.6l.5,1.5l.1,1.5l.3,1.5l.2,1.7V128l-.2,1.7l-.3,1.5l-.1,1.5l-.5,1.5l-.4,1.6l-.5,1.5l-.6,1.4l-.8,1.4l-.6,1.5l-.9,1.2l-.9,1.4l-.9,1.2l-1.1,1.2l-1.1,1.1l-1,1.2l-1.3,.9l-1.2,1.1l-1.4,.8l-1.3,.9l-1.4,.7l-1.4,.7l-1.5,.6l-1.4,.6l-1.5,.4l-1.5,.3l-1.6,.3l-1.6,.2l-1.6,.2h-3l-1.7,-.2l-1.5,-.2l-1.6,-.3l-1.5,-.3l-1.5,-.4l-1.6,-.6L741,154l-1.6,-.7l-1.3,-.7l-1.4,-.8l-1.2,-.9l-1.2,-.9L733,148.9l-1.2,-1.1l-1.1,-1.2l-1,-1.2l-.9,-1.2l-1,-1.2l-.7,-1.4l-.8,-1.4l-.8,-1.5l-.6,-1.4l-.4,-1.5l-.5,-1.6l-.4,-1.5l-.2,-1.5l-.3,-1.5l-.2,-1.7v-1.5Z" class="g4_1" />
<path fill-rule="evenodd" d="M612.9,126.5l.2,-1.6v-1.5l.3,-1.5l.2,-1.6L614,119l.5,-1.6l.4,-1.3l.5,-1.6l.8,-1.3l.6,-1.4l.7,-1.2l.9,-1.4l1,-1.2l.9,-1.3l1,-1l1.1,-1.1l1.1,-1.1l1.2,-.9l1.2,-.9l1.3,-.8l1.3,-.7l1.4,-.8l1.4,-.6l1.4,-.6l1.3,-.5l1.6,-.4l1.5,-.3l1.5,-.3l1.5,-.2l1.6,-.1h3l1.6,.1l1.6,.2l1.6,.3l1.5,.3l1.5,.4l1.4,.6l1.5,.7l1.4,.6l1.4,.7l1.3,.8l1.4,.9l1.2,1.1l1.3,.9l1,1.1l1.1,1.2l1.1,1.2l.9,1.2l.9,1.3l.8,1.3l.7,1.4l.8,1.5l.6,1.4l.5,1.5l.4,1.6l.5,1.5l.1,1.5l.3,1.5l.2,1.7V128l-.2,1.7l-.3,1.5l-.1,1.5l-.5,1.5l-.4,1.6l-.5,1.5l-.6,1.4l-.8,1.4l-.6,1.5l-.9,1.2l-.9,1.4l-.9,1.2l-1.1,1.2l-1.1,1.1l-1,1.2l-1.3,.9l-1.2,1.1l-1.4,.8l-1.3,.9l-1.4,.7l-1.4,.7l-1.5,.6l-1.4,.6l-1.5,.4l-1.5,.3l-1.6,.3l-1.6,.2l-1.6,.2h-3l-1.7,-.2l-1.5,-.2l-1.6,-.3l-1.5,-.3l-1.5,-.4l-1.6,-.6L631,154l-1.6,-.7l-1.3,-.7l-1.4,-.8l-1.2,-.9l-1.2,-.9L623,148.9l-1.2,-1.1l-1.1,-1.2l-1,-1.2l-.9,-1.2l-1,-1.2l-.7,-1.4l-.8,-1.4l-.8,-1.5l-.6,-1.4l-.4,-1.5l-.5,-1.6l-.4,-1.5l-.2,-1.5l-.3,-1.5l-.2,-1.7v-1.5Z" class="g3_1" />
<path d="M612.9,126.5l.2,-1.6v-1.5l.3,-1.5l.2,-1.6L614,119l.5,-1.6l.4,-1.3l.5,-1.6l.8,-1.3l.6,-1.4l.7,-1.2l.9,-1.4l1,-1.2l.9,-1.3l1,-1l1.1,-1.1l1.1,-1.1l1.2,-.9l1.2,-.9l1.3,-.8l1.3,-.7l1.4,-.8l1.4,-.6l1.4,-.6l1.3,-.5l1.6,-.4l1.5,-.3l1.5,-.3l1.5,-.2l1.6,-.1h3l1.6,.1l1.6,.2l1.6,.3l1.5,.3l1.5,.4l1.4,.6l1.5,.7l1.4,.6l1.4,.7l1.3,.8l1.4,.9l1.2,1.1l1.3,.9l1,1.1l1.1,1.2l1.1,1.2l.9,1.2l.9,1.3l.8,1.3l.7,1.4l.8,1.5l.6,1.4l.5,1.5l.4,1.6l.5,1.5l.1,1.5l.3,1.5l.2,1.7V128l-.2,1.7l-.3,1.5l-.1,1.5l-.5,1.5l-.4,1.6l-.5,1.5l-.6,1.4l-.8,1.4l-.6,1.5l-.9,1.2l-.9,1.4l-.9,1.2l-1.1,1.2l-1.1,1.1l-1,1.2l-1.3,.9l-1.2,1.1l-1.4,.8l-1.3,.9l-1.4,.7l-1.4,.7l-1.5,.6l-1.4,.6l-1.5,.4l-1.5,.3l-1.6,.3l-1.6,.2l-1.6,.2h-3l-1.7,-.2l-1.5,-.2l-1.6,-.3l-1.5,-.3l-1.5,-.4l-1.6,-.6L631,154l-1.6,-.7l-1.3,-.7l-1.4,-.8l-1.2,-.9l-1.2,-.9L623,148.9l-1.2,-1.1l-1.1,-1.2l-1,-1.2l-.9,-1.2l-1,-1.2l-.7,-1.4l-.8,-1.4l-.8,-1.5l-.6,-1.4l-.4,-1.5l-.5,-1.6l-.4,-1.5l-.2,-1.5l-.3,-1.5l-.2,-1.7v-1.5Z" class="g4_1" />
<path fill-rule="evenodd" d="M832.9,126.5l.2,-1.6v-1.5l.3,-1.5l.2,-1.6L834,119l.5,-1.6l.4,-1.3l.5,-1.6l.8,-1.3l.6,-1.4l.7,-1.2l.9,-1.4l1,-1.2l.9,-1.3l1,-1l1.1,-1.1l1.1,-1.1l1.2,-.9l1.2,-.9l1.3,-.8l1.3,-.7l1.4,-.8l1.4,-.6l1.4,-.6l1.3,-.5l1.6,-.4l1.5,-.3l1.5,-.3l1.5,-.2l1.6,-.1h3l1.6,.1l1.6,.2l1.6,.3l1.5,.3l1.5,.4l1.4,.6l1.5,.7l1.4,.6l1.4,.7l1.3,.8l1.4,.9l1.2,1.1l1.3,.9l1,1.1l1.1,1.2l1.1,1.2l.9,1.2l.9,1.3l.8,1.3l.7,1.4l.8,1.5l.6,1.4l.5,1.5l.4,1.6l.5,1.5l.1,1.5l.3,1.5l.2,1.7V128l-.2,1.7l-.3,1.5l-.1,1.5l-.5,1.5l-.4,1.6l-.5,1.5l-.6,1.4l-.8,1.4l-.6,1.5l-.9,1.2l-.9,1.4l-.9,1.2l-1.1,1.2l-1.1,1.1l-1,1.2l-1.3,.9l-1.2,1.1l-1.4,.8l-1.3,.9l-1.4,.7l-1.4,.7l-1.5,.6l-1.4,.6l-1.5,.4l-1.5,.3l-1.6,.3l-1.6,.2l-1.6,.2h-3l-1.7,-.2l-1.5,-.2l-1.6,-.3l-1.5,-.3l-1.5,-.4l-1.6,-.6L851,154l-1.6,-.7l-1.3,-.7l-1.4,-.8l-1.2,-.9l-1.3,-.9L843,148.9l-1.2,-1.1l-1.1,-1.2l-1,-1.2l-.9,-1.2l-1,-1.2l-.7,-1.4l-.8,-1.4l-.8,-1.5l-.6,-1.4l-.4,-1.5l-.5,-1.6l-.4,-1.5l-.2,-1.5l-.3,-1.5l-.2,-1.7v-1.5Z" class="g3_1" />
<path d="M832.9,126.5l.2,-1.6v-1.5l.3,-1.5l.2,-1.6L834,119l.5,-1.6l.4,-1.3l.5,-1.6l.8,-1.3l.6,-1.4l.7,-1.2l.9,-1.4l1,-1.2l.9,-1.3l1,-1l1.1,-1.1l1.1,-1.1l1.2,-.9l1.2,-.9l1.3,-.8l1.3,-.7l1.4,-.8l1.4,-.6l1.4,-.6l1.3,-.5l1.6,-.4l1.5,-.3l1.5,-.3l1.5,-.2l1.6,-.1h3l1.6,.1l1.6,.2l1.6,.3l1.5,.3l1.5,.4l1.4,.6l1.5,.7l1.4,.6l1.4,.7l1.3,.8l1.4,.9l1.2,1.1l1.3,.9l1,1.1l1.1,1.2l1.1,1.2l.9,1.2l.9,1.3l.8,1.3l.7,1.4l.8,1.5l.6,1.4l.5,1.5l.4,1.6l.5,1.5l.1,1.5l.3,1.5l.2,1.7V128l-.2,1.7l-.3,1.5l-.1,1.5l-.5,1.5l-.4,1.6l-.5,1.5l-.6,1.4l-.8,1.4l-.6,1.5l-.9,1.2l-.9,1.4l-.9,1.2l-1.1,1.2l-1.1,1.1l-1,1.2l-1.3,.9l-1.2,1.1l-1.4,.8l-1.3,.9l-1.4,.7l-1.4,.7l-1.5,.6l-1.4,.6l-1.5,.4l-1.5,.3l-1.6,.3l-1.6,.2l-1.6,.2h-3l-1.7,-.2l-1.5,-.2l-1.6,-.3l-1.5,-.3l-1.5,-.4l-1.6,-.6L851,154l-1.6,-.7l-1.3,-.7l-1.4,-.8l-1.2,-.9l-1.3,-.9L843,148.9l-1.2,-1.1l-1.1,-1.2l-1,-1.2l-.9,-1.2l-1,-1.2l-.7,-1.4l-.8,-1.4l-.8,-1.5l-.6,-1.4l-.4,-1.5l-.5,-1.6l-.4,-1.5l-.2,-1.5l-.3,-1.5l-.2,-1.7v-1.5Z" class="g4_1" />
<path d="M593.5,261.1L643.2,156.7M593.5,261.1L863.2,156.7M703.5,261.1L643.2,156.7m60.3,104.4L753.2,156.7m60.3,104.4L643.2,156.7M813.5,261.1L863.2,156.7m60.3,104.4L643.2,156.7M923.5,261.1L753.2,156.7" class="g5_1" />
<text x="110" y="54" dx="0,-0.1,0,0,0,-0.2,0,0,0,0,0,0,-0.2,0,0,0,0" class="s1_1">Densely connected</text>
<text x="634" y="54" dx="0,0,0,-0.2,0,0,0,-0.1,0.1,0,0,-0.2,0,0,-0.2,0,0.1,-0.2" class="s1_1">Sparsely connected</text>


<!-- Any embedded fonts defined here -->
<style type="text/css" ><![CDATA[

@font-face {
	font-family: LiberationSans_9;
	src: url("fonts/LiberationSans_9.woff") format("woff");
}

]]></style>

</svg>
