<?xml version="1.0" encoding="UTF-8" standalone="no"?>
<!DOCTYPE svg PUBLIC "-//W3C//DTD SVG 1.1//EN"
"http://www.w3.org/Graphics/SVG/1.1/DTD/svg11.dtd">


<!-- Page 1 -->
<svg viewBox="0 0 1466 824" version="1.1" xmlns="http://www.w3.org/2000/svg" xmlns:xlink="http://www.w3.org/1999/xlink" preserveAspectRatio="xMidYMid meet">
<defs>
<clipPath id="c0_1"><path d="M0,825V0H1466.7V825Z" /></clipPath>

<style type="text/css"><![CDATA[
text { white-space: pre; }
path, image { pointer-events: none; }

.s1_1{
font-size: 30.56px;
font-family: Carlito_9;
fill: #000000;
}
.s2_1{
font-size: 30.56px;
font-family: Carlito-Italic_j;
fill: #000000;
}
.s3_1{
font-size: 17.72px;
font-family: Carlito-Italic_j;
fill: #000000;
}
.s4_1{
font-size: 36.67px;
font-family: Carlito-BoldItalic_e;
fill: #000000;
}
.s5_1{
font-size: 27.50px;
font-family: Carlito-Italic_j;
fill: #000000;
}
.s6_1{
font-size: 30.56px;
font-family: Carlito-Italic_j;
fill: #FF0000;
}
.s7_1{
font-size: 17.72px;
font-family: Carlito-Italic_j;
fill: #FF0000;
}

.g0_1{
fill: #FFFFFF;
}
.g1_1{
fill: #A5A5A5;
}
.g2_1{
fill: none;
stroke: #7A7A7A;
stroke-width: 1.513264;
stroke-linecap: butt;
stroke-linejoin: miter;
stroke-miterlimit: 7;
}
.g3_1{
fill: #4472C4;
}
.g4_1{
fill: none;
stroke: #325490;
stroke-width: 1.513264;
stroke-linecap: butt;
stroke-linejoin: miter;
stroke-miterlimit: 7;
}
.g5_1{
}
.g6_1{
fill: none;
stroke: #000000;
stroke-width: 1.513264;
stroke-linecap: butt;
stroke-linejoin: miter;
stroke-miterlimit: 7;
}
.g7_1{
fill: none;
stroke: #000000;
stroke-width: 0.77825004;
stroke-linecap: butt;
stroke-linejoin: miter;
stroke-miterlimit: 7;
}

]]></style>

</defs>
<path d="M0,0
L0,824
L1466,824
L1466,0 Z " 
fill="#FFFFFF" stroke="none" />
<g clip-path="url(#c0_1)">
<path fill-rule="evenodd" d="M0,.1H1466.7v825H0V.1Z" class="g0_1" />
<path fill-rule="evenodd" d="M0,.1H1466.7v825H0V.1Z" class="g0_1" />
</g>
<path fill-rule="evenodd" d="M177.1,755.4l.1,-1.5v-1.5l.3,-1.5l.2,-1.4l.4,-1.5l.3,-1.6l.7,-1.3l.4,-1.6l.6,-1.3l.8,-1.4l.8,-1.2l.9,-1.4l.7,-1.2l1.1,-1.3l1.1,-1l1,-1.1l1.1,-.9l1.2,-1.1l1.3,-.9l1.2,-.8l1.4,-.7l1.3,-.8l1.4,-.6l1.4,-.6l1.4,-.5l1.5,-.4l1.5,-.3l1.5,-.3l1.6,-.2l1.5,-.2h3l1.6,.2l1.7,.2l1.5,.3l1.5,.3l1.5,.4l1.4,.6l1.5,.6l1.4,.7l1.4,.7l1.4,.8l1.3,.9l1.3,1.1l1,.9l1.3,1.1l1,1.2l1.1,1.2l.9,1.2l.9,1.2l.8,1.4l.8,1.4l.7,1.5l.6,1.4l.5,1.5l.4,1.6l.5,1.5l.2,1.5l.3,1.5l.1,1.7V757l-.1,1.7l-.3,1.5l-.2,1.5l-.5,1.5l-.4,1.6l-.5,1.5l-.6,1.4l-.7,1.3l-.7,1.6l-.9,1.2l-.9,1.4l-.9,1.2l-1.1,1.2l-1,1.1l-1.1,1.2l-1.2,.9l-1.3,1.1l-1.3,.8l-1.4,.9l-1.4,.7l-1.4,.6l-1.5,.7l-1.4,.6l-1.5,.4l-1.5,.3l-1.5,.3l-1.7,.2l-1.6,.1h-3.2l-1.5,-.1l-1.5,-.2l-1.5,-.3l-1.6,-.3l-1.5,-.4l-1.5,-.6l-1.6,-.7l-1.3,-.6l-1.4,-.7l-1.4,-.8l-1.2,-.9l-1.2,-.9l-1.2,-1.1l-1.3,-1.1l-1,-1.2l-1.1,-1.2l-.9,-1.2l-.9,-1.3l-.8,-1.3l-.8,-1.4l-.7,-1.5l-.6,-1.4l-.5,-1.5l-.5,-1.6l-.4,-1.5l-.2,-1.5l-.3,-1.5l-.1,-1.7v-1.6Z" class="g1_1" />
<path d="M177.1,755.4l.1,-1.5v-1.5l.3,-1.5l.2,-1.4l.4,-1.5l.3,-1.6l.7,-1.3l.4,-1.6l.6,-1.3l.8,-1.4l.8,-1.2l.9,-1.4l.7,-1.2l1.1,-1.3l1.1,-1l1,-1.1l1.1,-.9l1.2,-1.1l1.3,-.9l1.2,-.8l1.4,-.7l1.3,-.8l1.4,-.6l1.4,-.6l1.4,-.5l1.5,-.4l1.5,-.3l1.5,-.3l1.6,-.2l1.5,-.2h3l1.6,.2l1.7,.2l1.5,.3l1.5,.3l1.5,.4l1.4,.6l1.5,.6l1.4,.7l1.4,.7l1.4,.8l1.3,.9l1.3,1.1l1,.9l1.3,1.1l1,1.2l1.1,1.2l.9,1.2l.9,1.2l.8,1.4l.8,1.4l.7,1.5l.6,1.4l.5,1.5l.4,1.6l.5,1.5l.2,1.5l.3,1.5l.1,1.7V757l-.1,1.7l-.3,1.5l-.2,1.5l-.5,1.5l-.4,1.6l-.5,1.5l-.6,1.4l-.7,1.3l-.7,1.6l-.9,1.2l-.9,1.4l-.9,1.2l-1.1,1.2l-1,1.1l-1.1,1.2l-1.2,.9l-1.3,1.1l-1.3,.8l-1.4,.9l-1.4,.7l-1.4,.6l-1.5,.7l-1.4,.6l-1.5,.4l-1.5,.3l-1.5,.3l-1.7,.2l-1.6,.1h-3.2l-1.5,-.1l-1.5,-.2l-1.5,-.3l-1.6,-.3l-1.5,-.4l-1.5,-.6l-1.6,-.7l-1.3,-.6l-1.4,-.7l-1.4,-.8l-1.2,-.9l-1.2,-.9l-1.2,-1.1l-1.3,-1.1l-1,-1.2l-1.1,-1.2l-.9,-1.2l-.9,-1.3l-.8,-1.3l-.8,-1.4l-.7,-1.5l-.6,-1.4l-.5,-1.5l-.5,-1.6l-.4,-1.5l-.2,-1.5l-.3,-1.5l-.1,-1.7v-1.6Z" class="g2_1" />
<path fill-rule="evenodd" d="M260.6,755.4v-1.5l.2,-1.5l.1,-1.5l.4,-1.4l.3,-1.5l.4,-1.6l.5,-1.3l.6,-1.6l.6,-1.3l.8,-1.4l.7,-1.2l.8,-1.4l.9,-1.2l1.1,-1.3l.9,-1l1.1,-1.1l1.2,-.9l1.2,-1.1l1.2,-.9l1.2,-.8l1.4,-.7l1.2,-.8l1.6,-.6l1.3,-.6l1.4,-.5l1.5,-.4l1.6,-.3l1.4,-.3l1.5,-.2l1.7,-.2h3l1.5,.2l1.6,.2l1.7,.3l1.3,.3l1.6,.4l1.5,.6l1.5,.6l1.4,.7l1.4,.7l1.3,.8l1.3,.9l1.3,1.1l1.1,.9l1.2,1.1l1.1,1.2l1.1,1.2l.9,1.2l.9,1.2l.8,1.4l.7,1.4l.8,1.5l.4,1.4l.7,1.5l.4,1.6l.5,1.5l.1,1.5l.3,1.5v1.7l.2,1.5l-.2,1.6v1.7l-.3,1.5l-.1,1.5l-.5,1.5l-.4,1.6l-.5,1.5l-.6,1.4l-.8,1.3l-.7,1.6l-.8,1.2l-.9,1.4l-.9,1.2l-1.1,1.2l-1.1,1.1l-1,1.2l-1.3,.9l-1.3,1.1l-1.3,.8l-1.3,.9l-1.4,.7l-1.4,.6l-1.5,.7l-1.5,.6l-1.6,.4l-1.3,.3l-1.7,.3l-1.6,.2l-1.5,.1h-3.2l-1.5,-.1l-1.5,-.2l-1.7,-.3l-1.6,-.3l-1.3,-.4l-1.6,-.6l-1.5,-.7l-1.4,-.6l-1.3,-.7l-1.4,-.8l-1.2,-.9l-1.4,-.9l-1.2,-1.1l-1.1,-1.1l-1.1,-1.2l-1,-1.2l-1,-1.2l-.9,-1.3l-.7,-1.3l-1,-1.4l-.6,-1.5l-.6,-1.4l-.4,-1.5l-.5,-1.6l-.4,-1.5l-.4,-1.5l-.1,-1.5l-.2,-1.7v-1.6Z" class="g1_1" />
<path d="M260.6,755.4v-1.5l.2,-1.5l.1,-1.5l.4,-1.4l.3,-1.5l.4,-1.6l.5,-1.3l.6,-1.6l.6,-1.3l.8,-1.4l.7,-1.2l.8,-1.4l.9,-1.2l1.1,-1.3l.9,-1l1.1,-1.1l1.2,-.9l1.2,-1.1l1.2,-.9l1.2,-.8l1.4,-.7l1.2,-.8l1.6,-.6l1.3,-.6l1.4,-.5l1.5,-.4l1.6,-.3l1.4,-.3l1.5,-.2l1.7,-.2h3l1.5,.2l1.6,.2l1.7,.3l1.3,.3l1.6,.4l1.5,.6l1.5,.6l1.4,.7l1.4,.7l1.3,.8l1.3,.9l1.3,1.1l1.1,.9l1.2,1.1l1.1,1.2l1.1,1.2l.9,1.2l.9,1.2l.8,1.4l.7,1.4l.8,1.5l.4,1.4l.7,1.5l.4,1.6l.5,1.5l.1,1.5l.3,1.5v1.7l.2,1.5l-.2,1.6v1.7l-.3,1.5l-.1,1.5l-.5,1.5l-.4,1.6l-.5,1.5l-.6,1.4l-.8,1.3l-.7,1.6l-.8,1.2l-.9,1.4l-.9,1.2l-1.1,1.2l-1.1,1.1l-1,1.2l-1.3,.9l-1.3,1.1l-1.3,.8l-1.3,.9l-1.4,.7l-1.4,.6l-1.5,.7l-1.5,.6l-1.6,.4l-1.3,.3l-1.7,.3l-1.6,.2l-1.5,.1h-3.2l-1.5,-.1l-1.5,-.2l-1.7,-.3l-1.6,-.3l-1.3,-.4l-1.6,-.6l-1.5,-.7l-1.4,-.6l-1.3,-.7l-1.4,-.8l-1.2,-.9l-1.4,-.9l-1.2,-1.1l-1.1,-1.1l-1.1,-1.2l-1,-1.2l-1,-1.2l-.9,-1.3l-.7,-1.3l-1,-1.4l-.6,-1.5l-.6,-1.4l-.4,-1.5l-.5,-1.6l-.4,-1.5l-.4,-1.5l-.1,-1.5l-.2,-1.7v-1.6Z" class="g2_1" />
<path fill-rule="evenodd" d="M344.2,755.4l.2,-1.5v-1.5l.3,-1.5l.1,-1.4l.3,-1.5l.5,-1.6l.4,-1.3l.7,-1.6l.6,-1.3l.7,-1.4l.8,-1.2l.8,-1.4l.9,-1.2l1,-1.3l1,-1l1,-1.1l1.2,-.9l1.3,-1.1l1.2,-.9l1.2,-.8l1.4,-.7l1.4,-.8l1.3,-.6l1.4,-.6l1.4,-.5l1.5,-.4l1.5,-.3l1.6,-.3l1.4,-.2l1.6,-.2H376l1.5,.2l1.5,.2l1.7,.3l1.5,.3l1.4,.4l1.6,.6l1.5,.6l1.4,.7l1.3,.7l1.4,.8l1.2,.9l1.4,1.1l1.1,.9l1.2,1.1l1.1,1.2l1,1.2l1,1.2l.9,1.2l.7,1.4l.8,1.4l.8,1.5l.6,1.4l.4,1.5l.5,1.6l.4,1.5l.2,1.5l.3,1.5l.2,1.7V757l-.2,1.7l-.3,1.5l-.2,1.5l-.4,1.5l-.5,1.6l-.4,1.5l-.6,1.4l-.8,1.3l-.8,1.6l-.7,1.2l-.9,1.4l-1,1.2l-1,1.2l-1.1,1.1l-1.1,1.2l-1.2,.9l-1.4,1.1l-1.2,.8l-1.4,.9l-1.3,.7l-1.4,.6l-1.5,.7l-1.6,.6l-1.4,.4l-1.5,.3l-1.7,.3l-1.5,.2l-1.5,.1h-3.2l-1.5,-.1l-1.6,-.2l-1.7,-.3l-1.3,-.3l-1.6,-.4l-1.5,-.6l-1.5,-.7l-1.4,-.6l-1.4,-.7l-1.3,-.8l-1.3,-.9l-1.3,-.9l-1.3,-1.1l-1,-1.1L352,775.6l-1.1,-1.2l-.9,-1.2l-.9,-1.3l-.8,-1.3l-.7,-1.4l-.8,-1.5l-.6,-1.4l-.5,-1.5l-.4,-1.6l-.5,-1.5l-.1,-1.5l-.3,-1.5l-.2,-1.7v-1.6Z" class="g1_1" />
<path d="M344.2,755.4l.2,-1.5v-1.5l.3,-1.5l.1,-1.4l.3,-1.5l.5,-1.6l.4,-1.3l.7,-1.6l.6,-1.3l.7,-1.4l.8,-1.2l.8,-1.4l.9,-1.2l1,-1.3l1,-1l1,-1.1l1.2,-.9l1.3,-1.1l1.2,-.9l1.2,-.8l1.4,-.7l1.4,-.8l1.3,-.6l1.4,-.6l1.4,-.5l1.5,-.4l1.5,-.3l1.6,-.3l1.4,-.2l1.6,-.2H376l1.5,.2l1.5,.2l1.7,.3l1.5,.3l1.4,.4l1.6,.6l1.5,.6l1.4,.7l1.3,.7l1.4,.8l1.2,.9l1.4,1.1l1.1,.9l1.2,1.1l1.1,1.2l1,1.2l1,1.2l.9,1.2l.7,1.4l.8,1.4l.8,1.5l.6,1.4l.4,1.5l.5,1.6l.4,1.5l.2,1.5l.3,1.5l.2,1.7V757l-.2,1.7l-.3,1.5l-.2,1.5l-.4,1.5l-.5,1.6l-.4,1.5l-.6,1.4l-.8,1.3l-.8,1.6l-.7,1.2l-.9,1.4l-1,1.2l-1,1.2l-1.1,1.1l-1.1,1.2l-1.2,.9l-1.4,1.1l-1.2,.8l-1.4,.9l-1.3,.7l-1.4,.6l-1.5,.7l-1.6,.6l-1.4,.4l-1.5,.3l-1.7,.3l-1.5,.2l-1.5,.1h-3.2l-1.5,-.1l-1.6,-.2l-1.7,-.3l-1.3,-.3l-1.6,-.4l-1.5,-.6l-1.5,-.7l-1.4,-.6l-1.4,-.7l-1.3,-.8l-1.3,-.9l-1.3,-.9l-1.3,-1.1l-1,-1.1L352,775.6l-1.1,-1.2l-.9,-1.2l-.9,-1.3l-.8,-1.3l-.7,-1.4l-.8,-1.5l-.6,-1.4l-.5,-1.5l-.4,-1.6l-.5,-1.5l-.1,-1.5l-.3,-1.5l-.2,-1.7v-1.6Z" class="g2_1" />
<path fill-rule="evenodd" d="M427.8,755.4v-1.5l.1,-1.5l.2,-1.5l.3,-1.4l.3,-1.5l.5,-1.6l.4,-1.3l.6,-1.6l.6,-1.3l.8,-1.4l.8,-1.2l.7,-1.4L434,737l1,-1.3l1,-1l1.1,-1.1l1.2,-.9l1.2,-1.1l1.3,-.9l1.2,-.8l1.4,-.7l1.2,-.8l1.4,-.6l1.5,-.6l1.4,-.5l1.5,-.4l1.5,-.3l1.4,-.3l1.5,-.2l1.5,-.2h3.3l1.5,.2l1.5,.2l1.5,.3l1.6,.3l1.5,.4l1.5,.6l1.5,.6l1.4,.7l1.4,.7l1.4,.8l1.2,.9l1.4,1.1l1,.9l1.3,1.1l1,1.2l1.1,1.2l.9,1.2l.9,1.2l.8,1.4l.8,1.4l.7,1.5l.5,1.4l.6,1.5l.5,1.6l.3,1.5l.3,1.5l.3,1.5v1.7l.1,1.5L488,757v1.7l-.3,1.5l-.3,1.5l-.3,1.5l-.5,1.6l-.5,1.5l-.6,1.4l-.7,1.3l-.8,1.6l-.8,1.2l-.9,1.4l-.9,1.2l-1.1,1.2l-1,1.1l-1.3,1.2l-1,.9l-1.4,1.1l-1.2,.8l-1.4,.9l-1.4,.7l-1.4,.6l-1.5,.7l-1.5,.6l-1.5,.4l-1.6,.3l-1.5,.3l-1.5,.2l-1.5,.1h-3.3l-1.5,-.1l-1.7,-.2l-1.5,-.3l-1.5,-.3l-1.5,-.4l-1.6,-.6l-1.3,-.7l-1.4,-.6l-1.4,-.7l-1.4,-.8l-1.3,-.9l-1.3,-.9l-1.2,-1.1l-1.1,-1.1l-1,-1.2l-1.1,-1.2l-1.1,-1.2l-.7,-1.3l-.9,-1.3l-.8,-1.4l-.6,-1.5l-.6,-1.4l-.6,-1.5l-.4,-1.6l-.4,-1.5l-.3,-1.5l-.2,-1.5l-.1,-1.7v-1.6Z" class="g1_1" />
<path d="M427.8,755.4v-1.5l.1,-1.5l.2,-1.5l.3,-1.4l.3,-1.5l.5,-1.6l.4,-1.3l.6,-1.6l.6,-1.3l.8,-1.4l.8,-1.2l.7,-1.4L434,737l1,-1.3l1,-1l1.1,-1.1l1.2,-.9l1.2,-1.1l1.3,-.9l1.2,-.8l1.4,-.7l1.2,-.8l1.4,-.6l1.5,-.6l1.4,-.5l1.5,-.4l1.5,-.3l1.4,-.3l1.5,-.2l1.5,-.2h3.3l1.5,.2l1.5,.2l1.5,.3l1.6,.3l1.5,.4l1.5,.6l1.5,.6l1.4,.7l1.4,.7l1.4,.8l1.2,.9l1.4,1.1l1,.9l1.3,1.1l1,1.2l1.1,1.2l.9,1.2l.9,1.2l.8,1.4l.8,1.4l.7,1.5l.5,1.4l.6,1.5l.5,1.6l.3,1.5l.3,1.5l.3,1.5v1.7l.1,1.5L488,757v1.7l-.3,1.5l-.3,1.5l-.3,1.5l-.5,1.6l-.5,1.5l-.6,1.4l-.7,1.3l-.8,1.6l-.8,1.2l-.9,1.4l-.9,1.2l-1.1,1.2l-1,1.1l-1.3,1.2l-1,.9l-1.4,1.1l-1.2,.8l-1.4,.9l-1.4,.7l-1.4,.6l-1.5,.7l-1.5,.6l-1.5,.4l-1.6,.3l-1.5,.3l-1.5,.2l-1.5,.1h-3.3l-1.5,-.1l-1.7,-.2l-1.5,-.3l-1.5,-.3l-1.5,-.4l-1.6,-.6l-1.3,-.7l-1.4,-.6l-1.4,-.7l-1.4,-.8l-1.3,-.9l-1.3,-.9l-1.2,-1.1l-1.1,-1.1l-1,-1.2l-1.1,-1.2l-1.1,-1.2l-.7,-1.3l-.9,-1.3l-.8,-1.4l-.6,-1.5l-.6,-1.4l-.6,-1.5l-.4,-1.6l-.4,-1.5l-.3,-1.5l-.2,-1.5l-.1,-1.7v-1.6Z" class="g2_1" />
<path fill-rule="evenodd" d="M511.3,755.4v-1.5l.2,-1.5l.2,-1.5l.3,-1.4l.3,-1.5l.4,-1.6l.5,-1.3l.6,-1.6l.6,-1.3l.8,-1.4l.7,-1.2l.8,-1.4l.9,-1.2l.9,-1.3l1.1,-1l1.1,-1.1l1,-.9l1.3,-1.1l1.2,-.9l1.4,-.8l1.2,-.7l1.4,-.8l1.3,-.6l1.6,-.6l1.3,-.5l1.6,-.4l1.3,-.3l1.6,-.3l1.5,-.2l1.5,-.2H543l1.7,.2l1.5,.2l1.5,.3l1.5,.3l1.6,.4l1.5,.6l1.4,.6l1.5,.7l1.4,.7l1.3,.8l1.3,.9l1.2,1.1l1.2,.9l1.2,1.1l1.1,1.2l1.1,1.2l.9,1.2l.8,1.2l.9,1.4l.7,1.4l.6,1.5l.7,1.4l.6,1.5l.4,1.6l.3,1.5l.3,1.5l.2,1.5l.1,1.7V757l-.1,1.7l-.2,1.5l-.3,1.5l-.3,1.5l-.4,1.6l-.6,1.5l-.7,1.4l-.6,1.3l-.7,1.6l-.8,1.2l-.9,1.4l-.9,1.2l-1.1,1.2l-1.1,1.1l-1.2,1.2l-1.2,.9l-1.2,1.1l-1.3,.8l-1.3,.9l-1.4,.7l-1.5,.6l-1.4,.7l-1.5,.6l-1.6,.4l-1.5,.3l-1.5,.3l-1.5,.2l-1.7,.1h-3.1l-1.7,-.1l-1.5,-.2l-1.5,-.3l-1.5,-.3l-1.6,-.4l-1.5,-.6l-1.4,-.7l-1.4,-.6l-1.3,-.7l-1.4,-.8l-1.4,-.9l-1.2,-.9l-1.2,-1.1l-1.1,-1.1L519,775.6l-.9,-1.2L517,773.2l-.8,-1.3l-.9,-1.3l-.7,-1.4l-.7,-1.5l-.6,-1.4l-.6,-1.5l-.4,-1.6l-.3,-1.5l-.3,-1.5l-.2,-1.5l-.2,-1.7v-1.6Z" class="g1_1" />
<path d="M511.3,755.4v-1.5l.2,-1.5l.2,-1.5l.3,-1.4l.3,-1.5l.4,-1.6l.5,-1.3l.6,-1.6l.6,-1.3l.8,-1.4l.7,-1.2l.8,-1.4l.9,-1.2l.9,-1.3l1.1,-1l1.1,-1.1l1,-.9l1.3,-1.1l1.2,-.9l1.4,-.8l1.2,-.7l1.4,-.8l1.3,-.6l1.6,-.6l1.3,-.5l1.6,-.4l1.3,-.3l1.6,-.3l1.5,-.2l1.5,-.2H543l1.7,.2l1.5,.2l1.5,.3l1.5,.3l1.6,.4l1.5,.6l1.4,.6l1.5,.7l1.4,.7l1.3,.8l1.3,.9l1.2,1.1l1.2,.9l1.2,1.1l1.1,1.2l1.1,1.2l.9,1.2l.8,1.2l.9,1.4l.7,1.4l.6,1.5l.7,1.4l.6,1.5l.4,1.6l.3,1.5l.3,1.5l.2,1.5l.1,1.7V757l-.1,1.7l-.2,1.5l-.3,1.5l-.3,1.5l-.4,1.6l-.6,1.5l-.7,1.4l-.6,1.3l-.7,1.6l-.8,1.2l-.9,1.4l-.9,1.2l-1.1,1.2l-1.1,1.1l-1.2,1.2l-1.2,.9l-1.2,1.1l-1.3,.8l-1.3,.9l-1.4,.7l-1.5,.6l-1.4,.7l-1.5,.6l-1.6,.4l-1.5,.3l-1.5,.3l-1.5,.2l-1.7,.1h-3.1l-1.7,-.1l-1.5,-.2l-1.5,-.3l-1.5,-.3l-1.6,-.4l-1.5,-.6l-1.4,-.7l-1.4,-.6l-1.3,-.7l-1.4,-.8l-1.4,-.9l-1.2,-.9l-1.2,-1.1l-1.1,-1.1L519,775.6l-.9,-1.2L517,773.2l-.8,-1.3l-.9,-1.3l-.7,-1.4l-.7,-1.5l-.6,-1.4l-.6,-1.5l-.4,-1.6l-.3,-1.5l-.3,-1.5l-.2,-1.5l-.2,-1.7v-1.6Z" class="g2_1" />
<path fill-rule="evenodd" d="M594.9,755.4v-1.5l.2,-1.5l.1,-1.5l.3,-1.4l.3,-1.5l.5,-1.6l.5,-1.3l.6,-1.6l.6,-1.3l.7,-1.4l.8,-1.2l.8,-1.4l.9,-1.2l.9,-1.3l1.1,-1l1,-1.1l1.3,-.9l1,-1.1l1.2,-.9l1.4,-.8l1.2,-.7l1.4,-.8l1.4,-.6l1.5,-.6l1.4,-.5l1.5,-.4l1.6,-.3l1.3,-.3l1.6,-.2l1.5,-.2h3l1.7,.2l1.6,.2l1.5,.3l1.5,.3l1.5,.4l1.6,.6l1.3,.6l1.6,.7l1.3,.7l1.4,.8l1.2,.9l1.3,1.1l1.2,.9l1.2,1.1l1.1,1.2l1,1.2l1,1.2l.9,1.2l.7,1.4l.8,1.4l.8,1.5l.4,1.4l.6,1.5l.5,1.6l.3,1.5l.3,1.5l.2,1.5l.1,1.7l.2,1.5l-.2,1.6l-.1,1.7l-.2,1.5l-.3,1.5l-.3,1.5l-.5,1.6l-.6,1.5l-.4,1.4l-.8,1.3l-.8,1.6l-.7,1.2l-.9,1.4l-1,1.2l-1,1.2l-1.1,1.1l-1.2,1.2l-1.2,.9l-1.3,1.1l-1.2,.8l-1.4,.9l-1.3,.7l-1.6,.6l-1.3,.7l-1.6,.6l-1.5,.4l-1.5,.3l-1.5,.3l-1.6,.2l-1.7,.1h-3l-1.5,-.1l-1.7,-.2l-1.5,-.3l-1.6,-.3l-1.5,-.4l-1.5,-.6l-1.4,-.7l-1.4,-.6l-1.4,-.7l-1.3,-.8l-1.4,-.9l-1.2,-.9l-1.3,-1.1l-1,-1.1l-1.2,-1.2l-1,-1.2l-1,-1.2l-.8,-1.3l-.9,-1.3l-.8,-1.4l-.6,-1.5l-.6,-1.4l-.6,-1.5l-.5,-1.6l-.3,-1.5l-.3,-1.5l-.1,-1.5l-.2,-1.7v-1.6Z" class="g1_1" />
<path d="M594.9,755.4v-1.5l.2,-1.5l.1,-1.5l.3,-1.4l.3,-1.5l.5,-1.6l.5,-1.3l.6,-1.6l.6,-1.3l.7,-1.4l.8,-1.2l.8,-1.4l.9,-1.2l.9,-1.3l1.1,-1l1,-1.1l1.3,-.9l1,-1.1l1.2,-.9l1.4,-.8l1.2,-.7l1.4,-.8l1.4,-.6l1.5,-.6l1.4,-.5l1.5,-.4l1.6,-.3l1.3,-.3l1.6,-.2l1.5,-.2h3l1.7,.2l1.6,.2l1.5,.3l1.5,.3l1.5,.4l1.6,.6l1.3,.6l1.6,.7l1.3,.7l1.4,.8l1.2,.9l1.3,1.1l1.2,.9l1.2,1.1l1.1,1.2l1,1.2l1,1.2l.9,1.2l.7,1.4l.8,1.4l.8,1.5l.4,1.4l.6,1.5l.5,1.6l.3,1.5l.3,1.5l.2,1.5l.1,1.7l.2,1.5l-.2,1.6l-.1,1.7l-.2,1.5l-.3,1.5l-.3,1.5l-.5,1.6l-.6,1.5l-.4,1.4l-.8,1.3l-.8,1.6l-.7,1.2l-.9,1.4l-1,1.2l-1,1.2l-1.1,1.1l-1.2,1.2l-1.2,.9l-1.3,1.1l-1.2,.8l-1.4,.9l-1.3,.7l-1.6,.6l-1.3,.7l-1.6,.6l-1.5,.4l-1.5,.3l-1.5,.3l-1.6,.2l-1.7,.1h-3l-1.5,-.1l-1.7,-.2l-1.5,-.3l-1.6,-.3l-1.5,-.4l-1.5,-.6l-1.4,-.7l-1.4,-.6l-1.4,-.7l-1.3,-.8l-1.4,-.9l-1.2,-.9l-1.3,-1.1l-1,-1.1l-1.2,-1.2l-1,-1.2l-1,-1.2l-.8,-1.3l-.9,-1.3l-.8,-1.4l-.6,-1.5l-.6,-1.4l-.6,-1.5l-.5,-1.6l-.3,-1.5l-.3,-1.5l-.1,-1.5l-.2,-1.7v-1.6Z" class="g2_1" />
<path fill-rule="evenodd" d="M260.6,354.9v-1.6l.2,-1.5l.1,-1.5l.4,-1.6l.3,-1.5l.4,-1.4l.5,-1.5l.6,-1.4l.6,-1.3l.8,-1.4l.7,-1.4l.8,-1.2l.9,-1.2l1.1,-1.2l.9,-1.1l1.1,-1.2l1.2,-1l1.2,-1l1.2,-.9l1.2,-.8l1.4,-.8l1.2,-.7l1.6,-.6l1.3,-.7l1.4,-.4l1.5,-.5l1.6,-.3l1.4,-.3l1.5,-.1l1.7,-.2h3l1.5,.2l1.6,.3l1.7,.1l1.3,.5l1.6,.4l1.5,.5l1.5,.6l1.4,.8l1.4,.6l1.3,.9l1.3,.9l1.3,.9l1.1,1.1l1.2,1.1l1.1,1l1.1,1.3l.9,1.2l.9,1.4l.8,1.3l.7,1.4l.8,1.4l.4,1.5l.7,1.4l.4,1.5l.5,1.5l.1,1.6l.3,1.7v1.5l.2,1.5l-.2,1.5v1.7l-.3,1.5l-.1,1.6l-.5,1.5l-.4,1.5l-.5,1.6l-.6,1.5l-.8,1.4l-.7,1.3l-.8,1.4l-.9,1.2l-.9,1.3l-1.1,1.2l-1.1,1.2l-1,1.1l-1.3,1l-1.3,1l-1.3,.9l-1.3,.7l-1.4,.8l-1.4,.8l-1.5,.6l-1.5,.4l-1.6,.5l-1.3,.4l-1.7,.2l-1.6,.3l-1.5,.2h-3.2l-1.5,-.2l-1.5,-.3l-1.7,-.2l-1.6,-.4l-1.3,-.5L280,383l-1.5,-.6l-1.4,-.8l-1.3,-.6l-1.4,-.9l-1.2,-.9l-1.4,-1l-1.2,-1l-1.1,-1.1L268.4,375l-1,-1.2l-1,-1.2l-.9,-1.4l-.7,-1.4l-1,-1.3l-.6,-1.4l-.6,-1.5l-.4,-1.4l-.5,-1.5l-.4,-1.6l-.4,-1.7l-.1,-1.5l-.2,-1.5v-1.5Z" class="g3_1" />
<path d="M260.6,354.9v-1.6l.2,-1.5l.1,-1.5l.4,-1.6l.3,-1.5l.4,-1.4l.5,-1.5l.6,-1.4l.6,-1.3l.8,-1.4l.7,-1.4l.8,-1.2l.9,-1.2l1.1,-1.2l.9,-1.1l1.1,-1.2l1.2,-1l1.2,-1l1.2,-.9l1.2,-.8l1.4,-.8l1.2,-.7l1.6,-.6l1.3,-.7l1.4,-.4l1.5,-.5l1.6,-.3l1.4,-.3l1.5,-.1l1.7,-.2h3l1.5,.2l1.6,.3l1.7,.1l1.3,.5l1.6,.4l1.5,.5l1.5,.6l1.4,.8l1.4,.6l1.3,.9l1.3,.9l1.3,.9l1.1,1.1l1.2,1.1l1.1,1l1.1,1.3l.9,1.2l.9,1.4l.8,1.3l.7,1.4l.8,1.4l.4,1.5l.7,1.4l.4,1.5l.5,1.5l.1,1.6l.3,1.7v1.5l.2,1.5l-.2,1.5v1.7l-.3,1.5l-.1,1.6l-.5,1.5l-.4,1.5l-.5,1.6l-.6,1.5l-.8,1.4l-.7,1.3l-.8,1.4l-.9,1.2l-.9,1.3l-1.1,1.2l-1.1,1.2l-1,1.1l-1.3,1l-1.3,1l-1.3,.9l-1.3,.7l-1.4,.8l-1.4,.8l-1.5,.6l-1.5,.4l-1.6,.5l-1.3,.4l-1.7,.2l-1.6,.3l-1.5,.2h-3.2l-1.5,-.2l-1.5,-.3l-1.7,-.2l-1.6,-.4l-1.3,-.5L280,383l-1.5,-.6l-1.4,-.8l-1.3,-.6l-1.4,-.9l-1.2,-.9l-1.4,-1l-1.2,-1l-1.1,-1.1L268.4,375l-1,-1.2l-1,-1.2l-.9,-1.4l-.7,-1.4l-1,-1.3l-.6,-1.4l-.6,-1.5l-.4,-1.4l-.5,-1.5l-.4,-1.6l-.4,-1.7l-.1,-1.5l-.2,-1.5v-1.5Z" class="g4_1" />
<path fill-rule="evenodd" d="M344.2,354.9l.2,-1.6v-1.5l.3,-1.5l.1,-1.6l.3,-1.5l.5,-1.4l.4,-1.5l.7,-1.4l.6,-1.3l.7,-1.4l.8,-1.4l.8,-1.2l.9,-1.2l1,-1.2l1,-1.1l1,-1.2l1.2,-1l1.3,-1l1.2,-.9l1.2,-.8l1.4,-.8l1.4,-.7l1.3,-.6l1.4,-.7l1.4,-.4l1.5,-.5l1.5,-.3l1.6,-.3l1.4,-.1l1.6,-.2H376l1.5,.2l1.5,.3l1.7,.1l1.5,.5l1.4,.4l1.6,.5l1.5,.6l1.4,.8l1.3,.6l1.4,.9l1.2,.9l1.4,.9l1.1,1.1l1.2,1.1l1.1,1l1,1.3l1,1.2l.9,1.4l.7,1.3l.8,1.4l.8,1.4l.6,1.5l.4,1.4l.5,1.5l.4,1.5l.2,1.6l.3,1.7l.2,1.5v3l-.2,1.7l-.3,1.5l-.2,1.6l-.4,1.5L403,364l-.4,1.6l-.6,1.5l-.8,1.4l-.8,1.3l-.7,1.4l-.9,1.2l-1,1.3l-1,1.2l-1.1,1.2l-1.1,1.1l-1.2,1l-1.4,1l-1.2,.9l-1.4,.7l-1.3,.8l-1.4,.8l-1.5,.6l-1.6,.4l-1.4,.5l-1.5,.4l-1.7,.2l-1.5,.3L376,385h-3.2l-1.5,-.2l-1.6,-.3l-1.7,-.2l-1.3,-.4l-1.6,-.5l-1.5,-.4l-1.5,-.6l-1.4,-.8l-1.4,-.6l-1.3,-.9l-1.3,-.9l-1.3,-1l-1.3,-1l-1,-1.1L352,375l-1.1,-1.2l-.9,-1.2l-.9,-1.4l-.8,-1.4l-.7,-1.3l-.8,-1.4l-.6,-1.5l-.5,-1.4l-.4,-1.5l-.5,-1.6l-.1,-1.7l-.3,-1.5l-.2,-1.5v-1.5Z" class="g3_1" />
<path d="M344.2,354.9l.2,-1.6v-1.5l.3,-1.5l.1,-1.6l.3,-1.5l.5,-1.4l.4,-1.5l.7,-1.4l.6,-1.3l.7,-1.4l.8,-1.4l.8,-1.2l.9,-1.2l1,-1.2l1,-1.1l1,-1.2l1.2,-1l1.3,-1l1.2,-.9l1.2,-.8l1.4,-.8l1.4,-.7l1.3,-.6l1.4,-.7l1.4,-.4l1.5,-.5l1.5,-.3l1.6,-.3l1.4,-.1l1.6,-.2H376l1.5,.2l1.5,.3l1.7,.1l1.5,.5l1.4,.4l1.6,.5l1.5,.6l1.4,.8l1.3,.6l1.4,.9l1.2,.9l1.4,.9l1.1,1.1l1.2,1.1l1.1,1l1,1.3l1,1.2l.9,1.4l.7,1.3l.8,1.4l.8,1.4l.6,1.5l.4,1.4l.5,1.5l.4,1.5l.2,1.6l.3,1.7l.2,1.5v3l-.2,1.7l-.3,1.5l-.2,1.6l-.4,1.5L403,364l-.4,1.6l-.6,1.5l-.8,1.4l-.8,1.3l-.7,1.4l-.9,1.2l-1,1.3l-1,1.2l-1.1,1.2l-1.1,1.1l-1.2,1l-1.4,1l-1.2,.9l-1.4,.7l-1.3,.8l-1.4,.8l-1.5,.6l-1.6,.4l-1.4,.5l-1.5,.4l-1.7,.2l-1.5,.3L376,385h-3.2l-1.5,-.2l-1.6,-.3l-1.7,-.2l-1.3,-.4l-1.6,-.5l-1.5,-.4l-1.5,-.6l-1.4,-.8l-1.4,-.6l-1.3,-.9l-1.3,-.9l-1.3,-1l-1.3,-1l-1,-1.1L352,375l-1.1,-1.2l-.9,-1.2l-.9,-1.4l-.8,-1.4l-.7,-1.3l-.8,-1.4l-.6,-1.5l-.5,-1.4l-.4,-1.5l-.5,-1.6l-.1,-1.7l-.3,-1.5l-.2,-1.5v-1.5Z" class="g4_1" />
<path fill-rule="evenodd" d="M427.8,354.9v-1.6l.1,-1.5l.2,-1.5l.3,-1.6l.3,-1.5l.5,-1.4l.4,-1.5l.6,-1.4l.6,-1.3l.8,-1.4l.8,-1.4l.7,-1.2l.9,-1.2l1,-1.2l1,-1.1l1.1,-1.2l1.2,-1l1.2,-1l1.3,-.9l1.2,-.8l1.4,-.8l1.2,-.7l1.4,-.6l1.5,-.7l1.4,-.4l1.5,-.5l1.5,-.3l1.4,-.3l1.5,-.1l1.5,-.2h3.3l1.5,.2l1.5,.3l1.5,.1l1.6,.5l1.5,.4l1.5,.5l1.5,.6l1.4,.8l1.4,.6l1.4,.9l1.2,.9l1.4,.9l1,1.1l1.3,1.1l1,1l1.1,1.3l.9,1.2l.9,1.4l.8,1.3l.8,1.4l.7,1.4l.5,1.5l.6,1.4l.5,1.5l.3,1.5l.3,1.6l.3,1.7v1.5l.1,1.5l-.1,1.5v1.7l-.3,1.5l-.3,1.6l-.3,1.5l-.5,1.5l-.5,1.6l-.6,1.5l-.7,1.4l-.8,1.3l-.8,1.4l-.9,1.2l-.9,1.3l-1.1,1.2l-1,1.2l-1.3,1.1l-1,1l-1.4,1l-1.2,.9l-1.4,.7l-1.4,.8l-1.4,.8l-1.5,.6l-1.5,.4l-1.5,.5l-1.6,.4l-1.5,.2l-1.5,.3l-1.5,.2h-3.3l-1.5,-.2l-1.7,-.3l-1.5,-.2l-1.5,-.4l-1.5,-.5L447,383l-1.3,-.6l-1.4,-.8l-1.4,-.6l-1.4,-.9l-1.3,-.9l-1.3,-1l-1.2,-1l-1.1,-1.1l-1,-1.1l-1.1,-1.2l-1.1,-1.2l-.7,-1.4l-.9,-1.4l-.8,-1.3l-.6,-1.4l-.6,-1.5l-.6,-1.4l-.4,-1.5l-.4,-1.6l-.3,-1.7l-.2,-1.5l-.1,-1.5v-1.5Z" class="g3_1" />
<path d="M427.8,354.9v-1.6l.1,-1.5l.2,-1.5l.3,-1.6l.3,-1.5l.5,-1.4l.4,-1.5l.6,-1.4l.6,-1.3l.8,-1.4l.8,-1.4l.7,-1.2l.9,-1.2l1,-1.2l1,-1.1l1.1,-1.2l1.2,-1l1.2,-1l1.3,-.9l1.2,-.8l1.4,-.8l1.2,-.7l1.4,-.6l1.5,-.7l1.4,-.4l1.5,-.5l1.5,-.3l1.4,-.3l1.5,-.1l1.5,-.2h3.3l1.5,.2l1.5,.3l1.5,.1l1.6,.5l1.5,.4l1.5,.5l1.5,.6l1.4,.8l1.4,.6l1.4,.9l1.2,.9l1.4,.9l1,1.1l1.3,1.1l1,1l1.1,1.3l.9,1.2l.9,1.4l.8,1.3l.8,1.4l.7,1.4l.5,1.5l.6,1.4l.5,1.5l.3,1.5l.3,1.6l.3,1.7v1.5l.1,1.5l-.1,1.5v1.7l-.3,1.5l-.3,1.6l-.3,1.5l-.5,1.5l-.5,1.6l-.6,1.5l-.7,1.4l-.8,1.3l-.8,1.4l-.9,1.2l-.9,1.3l-1.1,1.2l-1,1.2l-1.3,1.1l-1,1l-1.4,1l-1.2,.9l-1.4,.7l-1.4,.8l-1.4,.8l-1.5,.6l-1.5,.4l-1.5,.5l-1.6,.4l-1.5,.2l-1.5,.3l-1.5,.2h-3.3l-1.5,-.2l-1.7,-.3l-1.5,-.2l-1.5,-.4l-1.5,-.5L447,383l-1.3,-.6l-1.4,-.8l-1.4,-.6l-1.4,-.9l-1.3,-.9l-1.3,-1l-1.2,-1l-1.1,-1.1l-1,-1.1l-1.1,-1.2l-1.1,-1.2l-.7,-1.4l-.9,-1.4l-.8,-1.3l-.6,-1.4l-.6,-1.5l-.6,-1.4l-.4,-1.5l-.4,-1.6l-.3,-1.7l-.2,-1.5l-.1,-1.5v-1.5Z" class="g4_1" />
<path fill-rule="evenodd" d="M511.3,354.9v-1.6l.2,-1.5l.2,-1.5l.3,-1.6l.3,-1.5l.4,-1.4l.5,-1.5l.6,-1.4l.6,-1.3l.8,-1.4l.7,-1.4l.8,-1.2l.9,-1.2l.9,-1.2l1.1,-1.1l1.1,-1.2l1,-1l1.3,-1l1.2,-.9l1.4,-.8l1.2,-.8l1.4,-.7l1.3,-.6l1.6,-.7l1.3,-.4l1.6,-.5l1.3,-.3l1.6,-.3l1.5,-.1l1.5,-.2H543l1.7,.2l1.5,.3l1.5,.1l1.5,.5l1.6,.4l1.5,.5l1.4,.6l1.5,.8l1.4,.6l1.3,.9l1.3,.9l1.2,.9l1.2,1.1l1.2,1.1l1.1,1l1.1,1.3l.9,1.2l.8,1.4l.9,1.3l.7,1.4l.6,1.4l.7,1.5l.6,1.4l.4,1.5l.3,1.5l.3,1.6l.2,1.7l.1,1.5v3l-.1,1.7l-.2,1.5l-.3,1.6l-.3,1.5l-.4,1.5l-.6,1.6l-.7,1.5l-.6,1.4l-.7,1.3l-.8,1.4l-.9,1.2l-.9,1.3l-1.1,1.2l-1.1,1.2l-1.2,1.1l-1.2,1l-1.2,1l-1.3,.9l-1.3,.7l-1.4,.8l-1.5,.8l-1.4,.6l-1.5,.4l-1.6,.5l-1.5,.4l-1.5,.2l-1.5,.3L543,385h-3.1l-1.7,-.2l-1.5,-.3l-1.5,-.2l-1.5,-.4l-1.6,-.5l-1.5,-.4l-1.4,-.6l-1.4,-.8l-1.3,-.6l-1.4,-.9l-1.4,-.9l-1.2,-1l-1.2,-1l-1.1,-1.1L519,375l-.9,-1.2L517,372.6l-.8,-1.4l-.9,-1.4l-.7,-1.3l-.7,-1.4l-.6,-1.5l-.6,-1.4l-.4,-1.5l-.3,-1.6l-.3,-1.7l-.2,-1.5l-.2,-1.5v-1.5Z" class="g3_1" />
<path d="M511.3,354.9v-1.6l.2,-1.5l.2,-1.5l.3,-1.6l.3,-1.5l.4,-1.4l.5,-1.5l.6,-1.4l.6,-1.3l.8,-1.4l.7,-1.4l.8,-1.2l.9,-1.2l.9,-1.2l1.1,-1.1l1.1,-1.2l1,-1l1.3,-1l1.2,-.9l1.4,-.8l1.2,-.8l1.4,-.7l1.3,-.6l1.6,-.7l1.3,-.4l1.6,-.5l1.3,-.3l1.6,-.3l1.5,-.1l1.5,-.2H543l1.7,.2l1.5,.3l1.5,.1l1.5,.5l1.6,.4l1.5,.5l1.4,.6l1.5,.8l1.4,.6l1.3,.9l1.3,.9l1.2,.9l1.2,1.1l1.2,1.1l1.1,1l1.1,1.3l.9,1.2l.8,1.4l.9,1.3l.7,1.4l.6,1.4l.7,1.5l.6,1.4l.4,1.5l.3,1.5l.3,1.6l.2,1.7l.1,1.5v3l-.1,1.7l-.2,1.5l-.3,1.6l-.3,1.5l-.4,1.5l-.6,1.6l-.7,1.5l-.6,1.4l-.7,1.3l-.8,1.4l-.9,1.2l-.9,1.3l-1.1,1.2l-1.1,1.2l-1.2,1.1l-1.2,1l-1.2,1l-1.3,.9l-1.3,.7l-1.4,.8l-1.5,.8l-1.4,.6l-1.5,.4l-1.6,.5l-1.5,.4l-1.5,.2l-1.5,.3L543,385h-3.1l-1.7,-.2l-1.5,-.3l-1.5,-.2l-1.5,-.4l-1.6,-.5l-1.5,-.4l-1.4,-.6l-1.4,-.8l-1.3,-.6l-1.4,-.9l-1.4,-.9l-1.2,-1l-1.2,-1l-1.1,-1.1L519,375l-.9,-1.2L517,372.6l-.8,-1.4l-.9,-1.4l-.7,-1.3l-.7,-1.4l-.6,-1.5l-.6,-1.4l-.4,-1.5l-.3,-1.6l-.3,-1.7l-.2,-1.5l-.2,-1.5v-1.5Z" class="g4_1" />
<path fill-rule="evenodd" d="M304.3,172.1v-1.5l.2,-1.5l.1,-1.5l.3,-1.6l.4,-1.5l.4,-1.4l.5,-1.5l.6,-1.4l.6,-1.4l.8,-1.3l.7,-1.4l.8,-1.2l.9,-1.2l.9,-1.3l1.1,-1l1.1,-1.3l1.2,-.9l1,-1l1.3,-1l1.3,-.7l1.3,-.8l1.3,-.8l1.4,-.6l1.5,-.4l1.4,-.6l1.5,-.5l1.6,-.3l1.3,-.3l1.6,-.2l1.5,-.1H336l1.6,.1l1.6,.3l1.5,.2l1.5,.5l1.6,.4l1.5,.5l1.4,.6l1.5,.7l1.4,.7l1.3,.9l1.3,.9l1.2,.9l1.2,1.1l1.2,1l1.1,1.1L358,153l.9,1.3l.7,1.3l1,1.4l.7,1.4l.6,1.4l.6,1.5l.7,1.4l.4,1.5l.3,1.5l.3,1.5l.2,1.7l.1,1.6v3.2l-.1,1.5l-.2,1.5l-.3,1.5l-.3,1.6l-.4,1.5l-.7,1.5l-.6,1.6l-.6,1.3l-.7,1.4l-.8,1.4l-.9,1.2l-.9,1.4l-1.1,1.1l-1.1,1.2l-1.2,1l-1.2,1.1l-1.2,.9l-1.3,.9l-1.3,.8l-1.4,.8l-1.5,.7l-1.4,.6l-1.5,.5l-1.6,.5l-1.5,.4l-1.5,.2l-1.6,.3l-1.6,.1h-3.1l-1.5,-.1l-1.7,-.3l-1.5,-.2l-1.6,-.4l-1.5,-.5l-1.5,-.5l-1.4,-.6l-1.4,-.7l-1.3,-.6l-1.4,-1l-1.4,-.9l-1.2,-.9l-1.2,-1.1l-1.1,-1L312,192.3l-.9,-1.2L310,189.9l-.8,-1.4l-.9,-1.4l-.8,-1.4l-.6,-1.3l-.6,-1.6l-.6,-1.3l-.4,-1.6l-.4,-1.5l-.3,-1.5l-.1,-1.7l-.2,-1.5v-1.6Z" class="g5_1" />
<path d="M304.3,172.1v-1.5l.2,-1.5l.1,-1.5l.3,-1.6l.4,-1.5l.4,-1.4l.5,-1.5l.6,-1.4l.6,-1.4l.8,-1.3l.7,-1.4l.8,-1.2l.9,-1.2l.9,-1.3l1.1,-1l1.1,-1.3l1.2,-.9l1,-1l1.3,-1l1.3,-.7l1.3,-.8l1.3,-.8l1.4,-.6l1.5,-.4l1.4,-.6l1.5,-.5l1.6,-.3l1.3,-.3l1.6,-.2l1.5,-.1H336l1.6,.1l1.6,.3l1.5,.2l1.5,.5l1.6,.4l1.5,.5l1.4,.6l1.5,.7l1.4,.7l1.3,.9l1.3,.9l1.2,.9l1.2,1.1l1.2,1l1.1,1.1L358,153l.9,1.3l.7,1.3l1,1.4l.7,1.4l.6,1.4l.6,1.5l.7,1.4l.4,1.5l.3,1.5l.3,1.5l.2,1.7l.1,1.6v3.2l-.1,1.5l-.2,1.5l-.3,1.5l-.3,1.6l-.4,1.5l-.7,1.5l-.6,1.6l-.6,1.3l-.7,1.4l-.8,1.4l-.9,1.2l-.9,1.4l-1.1,1.1l-1.1,1.2l-1.2,1l-1.2,1.1l-1.2,.9l-1.3,.9l-1.3,.8l-1.4,.8l-1.5,.7l-1.4,.6l-1.5,.5l-1.6,.5l-1.5,.4l-1.5,.2l-1.6,.3l-1.6,.1h-3.1l-1.5,-.1l-1.7,-.3l-1.5,-.2l-1.6,-.4l-1.5,-.5l-1.5,-.5l-1.4,-.6l-1.4,-.7l-1.3,-.6l-1.4,-1l-1.4,-.9l-1.2,-.9l-1.2,-1.1l-1.1,-1L312,192.3l-.9,-1.2L310,189.9l-.8,-1.4l-.9,-1.4l-.8,-1.4l-.6,-1.3l-.6,-1.6l-.6,-1.3l-.4,-1.6l-.4,-1.5l-.3,-1.5l-.1,-1.7l-.2,-1.5v-1.6Z" class="g6_1" />
<path fill-rule="evenodd" d="M387.9,172.1v-1.5l.2,-1.5l.1,-1.5l.3,-1.6l.3,-1.5l.5,-1.4l.4,-1.5l.6,-1.4l.7,-1.4l.6,-1.3l.7,-1.4l.9,-1.2l1,-1.2l.9,-1.3l1.1,-1l1,-1.3l1.1,-.9l1.2,-1l1.2,-1l1.3,-.7l1.3,-.8l1.4,-.8l1.4,-.6l1.4,-.4l1.5,-.6l1.4,-.5l1.5,-.3l1.5,-.3l1.5,-.2l1.6,-.1h3l1.7,.1l1.5,.3l1.6,.2l1.5,.5l1.5,.4l1.5,.5l1.4,.6l1.6,.7l1.3,.7l1.2,.9l1.4,.9l1.2,.9l1.3,1.1l1,1l1.3,1.1l.9,1.2l1,1.3l.8,1.3l.9,1.4l.8,1.4l.6,1.4l.6,1.5l.6,1.4l.3,1.5l.5,1.5l.3,1.5l.1,1.7l.2,1.6v3.2l-.2,1.5l-.1,1.5l-.3,1.5l-.5,1.6l-.3,1.5l-.6,1.5l-.6,1.6l-.6,1.3l-.8,1.4l-.7,1.4l-1,1.2l-1,1.4l-.9,1.1l-1.3,1.2l-1,1l-1.3,1.1l-1.2,.9l-1.4,.9l-1.2,.8l-1.3,.8l-1.6,.7l-1.4,.6l-1.5,.5l-1.5,.5l-1.5,.4l-1.6,.2l-1.5,.3l-1.7,.1h-3l-1.7,-.1l-1.5,-.3l-1.6,-.2l-1.5,-.4l-1.5,-.5l-1.5,-.5l-1.4,-.6l-1.5,-.7l-1.4,-.6l-1.2,-1l-1.4,-.9l-1.2,-.9l-1.3,-1.1l-1,-1l-1.3,-1.1l-.9,-1.2l-1,-1.2l-1,-1.4l-.7,-1.4l-.8,-1.4l-.6,-1.3l-.6,-1.6l-.6,-1.3l-.5,-1.6l-.3,-1.5l-.3,-1.5l-.1,-1.7l-.2,-1.5l-.1,-1.6h.1Z" class="g5_1" />
<path d="M387.9,172.1v-1.5l.2,-1.5l.1,-1.5l.3,-1.6l.3,-1.5l.5,-1.4l.4,-1.5l.6,-1.4l.7,-1.4l.6,-1.3l.7,-1.4l.9,-1.2l1,-1.2l.9,-1.3l1.1,-1l1,-1.3l1.1,-.9l1.2,-1l1.2,-1l1.3,-.7l1.3,-.8l1.4,-.8l1.4,-.6l1.4,-.4l1.5,-.6l1.4,-.5l1.5,-.3l1.5,-.3l1.5,-.2l1.6,-.1h3l1.7,.1l1.5,.3l1.6,.2l1.5,.5l1.5,.4l1.5,.5l1.4,.6l1.6,.7l1.3,.7l1.2,.9l1.4,.9l1.2,.9l1.3,1.1l1,1l1.3,1.1l.9,1.2l1,1.3l.8,1.3l.9,1.4l.8,1.4l.6,1.4l.6,1.5l.6,1.4l.3,1.5l.5,1.5l.3,1.5l.1,1.7l.2,1.6v3.2l-.2,1.5l-.1,1.5l-.3,1.5l-.5,1.6l-.3,1.5l-.6,1.5l-.6,1.6l-.6,1.3l-.8,1.4l-.7,1.4l-1,1.2l-1,1.4l-.9,1.1l-1.3,1.2l-1,1l-1.3,1.1l-1.2,.9l-1.4,.9l-1.2,.8l-1.3,.8l-1.6,.7l-1.4,.6l-1.5,.5l-1.5,.5l-1.5,.4l-1.6,.2l-1.5,.3l-1.7,.1h-3l-1.7,-.1l-1.5,-.3l-1.6,-.2l-1.5,-.4l-1.5,-.5l-1.5,-.5l-1.4,-.6l-1.5,-.7l-1.4,-.6l-1.2,-1l-1.4,-.9l-1.2,-.9l-1.3,-1.1l-1,-1l-1.3,-1.1l-.9,-1.2l-1,-1.2l-1,-1.4l-.7,-1.4l-.8,-1.4l-.6,-1.3l-.6,-1.6l-.6,-1.3l-.5,-1.6l-.3,-1.5l-.3,-1.5l-.1,-1.7l-.2,-1.5l-.1,-1.6h.1Z" class="g6_1" />
<path fill-rule="evenodd" d="M471.5,172.1v-1.5l.1,-1.5l.2,-1.5l.3,-1.6l.3,-1.5l.4,-1.4l.5,-1.5l.6,-1.4l.6,-1.4l.6,-1.3l1,-1.4l.7,-1.2l.9,-1.2l1,-1.3l1,-1l1.1,-1.3l1.1,-.9l1.2,-1l1.2,-1l1.2,-.7l1.4,-.8l1.4,-.8l1.4,-.6l1.3,-.4l1.6,-.6l1.3,-.5l1.6,-.3l1.5,-.3l1.5,-.2l1.5,-.1h3.1l1.7,.1l1.5,.3l1.5,.2l1.6,.5l1.5,.4l1.5,.5l1.4,.6l1.5,.7l1.4,.7l1.4,.9l1.2,.9l1.2,.9l1.2,1.1l1.3,1l1,1.1l.9,1.2l1.1,1.3l.8,1.3l.9,1.4l.8,1.4l.6,1.4l.6,1.5l.6,1.4l.4,1.5l.4,1.5l.3,1.5l.1,1.7l.2,1.6v3.2l-.2,1.5l-.1,1.5l-.3,1.5l-.4,1.6l-.4,1.5l-.6,1.5l-.6,1.6l-.6,1.3l-.8,1.4l-.8,1.4l-.9,1.2l-1.1,1.4l-.9,1.1l-1,1.2l-1.3,1l-1.2,1.1l-1.2,.9l-1.2,.9l-1.4,.8l-1.4,.8l-1.5,.7l-1.4,.6l-1.5,.5l-1.5,.5l-1.6,.4l-1.5,.2l-1.5,.3l-1.7,.1H500l-1.6,-.1l-1.6,-.3l-1.5,-.2l-1.5,-.4l-1.5,-.5l-1.6,-.5l-1.4,-.6l-1.3,-.7l-1.6,-.6l-1.2,-1l-1.4,-.9l-1.2,-.9l-1.2,-1.1l-1.1,-1l-1.2,-1.1l-.9,-1.2l-1.1,-1.2l-.7,-1.4l-1,-1.4l-.7,-1.4l-.6,-1.3l-.6,-1.6l-.7,-1.3l-.4,-1.6l-.3,-1.5l-.3,-1.5l-.2,-1.7l-.1,-1.5v-1.6Z" class="g5_1" />
<path d="M471.5,172.1v-1.5l.1,-1.5l.2,-1.5l.3,-1.6l.3,-1.5l.4,-1.4l.5,-1.5l.6,-1.4l.6,-1.4l.6,-1.3l1,-1.4l.7,-1.2l.9,-1.2l1,-1.3l1,-1l1.1,-1.3l1.1,-.9l1.2,-1l1.2,-1l1.2,-.7l1.4,-.8l1.4,-.8l1.4,-.6l1.3,-.4l1.6,-.6l1.3,-.5l1.6,-.3l1.5,-.3l1.5,-.2l1.5,-.1h3.1l1.7,.1l1.5,.3l1.5,.2l1.6,.5l1.5,.4l1.5,.5l1.4,.6l1.5,.7l1.4,.7l1.4,.9l1.2,.9l1.2,.9l1.2,1.1l1.3,1l1,1.1l.9,1.2l1.1,1.3l.8,1.3l.9,1.4l.8,1.4l.6,1.4l.6,1.5l.6,1.4l.4,1.5l.4,1.5l.3,1.5l.1,1.7l.2,1.6v3.2l-.2,1.5l-.1,1.5l-.3,1.5l-.4,1.6l-.4,1.5l-.6,1.5l-.6,1.6l-.6,1.3l-.8,1.4l-.8,1.4l-.9,1.2l-1.1,1.4l-.9,1.1l-1,1.2l-1.3,1l-1.2,1.1l-1.2,.9l-1.2,.9l-1.4,.8l-1.4,.8l-1.5,.7l-1.4,.6l-1.5,.5l-1.5,.5l-1.6,.4l-1.5,.2l-1.5,.3l-1.7,.1H500l-1.6,-.1l-1.6,-.3l-1.5,-.2l-1.5,-.4l-1.5,-.5l-1.6,-.5l-1.4,-.6l-1.3,-.7l-1.6,-.6l-1.2,-1l-1.4,-.9l-1.2,-.9l-1.2,-1.1l-1.1,-1l-1.2,-1.1l-.9,-1.2l-1.1,-1.2l-.7,-1.4l-1,-1.4l-.7,-1.4l-.6,-1.3l-.6,-1.6l-.7,-1.3l-.4,-1.6l-.3,-1.5l-.3,-1.5l-.2,-1.7l-.1,-1.5v-1.6Z" class="g6_1" />
<path fill-rule="evenodd" d="M220.8,545.4v-1.6l.1,-1.3l.2,-1.6l.3,-1.5l.3,-1.5l.4,-1.5l.5,-1.4l.6,-1.5l.6,-1.4l.8,-1.2l.7,-1.4l.8,-1.2L227,527l.9,-1.2l1.1,-1.2l1.1,-1.1l1.2,-.9l1.2,-1.1l1.3,-.9l1.2,-.7l1.3,-.8l1.3,-.8l1.3,-.6l1.6,-.6l1.3,-.4l1.6,-.5l1.5,-.3l1.4,-.3l1.5,-.2l1.5,-.1h3.2l1.6,.1l1.5,.2l1.5,.3l1.6,.4l1.5,.4l1.5,.6l1.5,.6l1.4,.6l1.4,.7l1.4,1l1.2,.9l1.4,.9l1,1.1l1.2,1l1.1,1.1l1.1,1.2l.9,1.3l.9,1.3l.8,1.2l.8,1.6l.7,1.4l.5,1.5l.6,1.4l.4,1.5l.3,1.5l.4,1.5l.3,1.6v1.6l.1,1.6l-.1,1.5v1.7l-.3,1.5l-.4,1.5l-.3,1.6l-.4,1.5l-.5,1.5l-.6,1.4l-.7,1.5l-.8,1.4l-.8,1.4l-.9,1.2l-.9,1.2l-1.1,1.2l-1.1,1.3l-1.2,1l-1,.9l-1.4,1.1l-1.2,.9l-1.4,.8l-1.4,.8l-1.4,.6l-1.5,.6l-1.5,.6l-1.5,.5l-1.6,.3l-1.5,.3l-1.5,.3h-1.6l-1.6,.1l-1.6,-.1h-1.5l-1.7,-.3l-1.5,-.3l-1.5,-.3l-1.6,-.5l-1.3,-.5l-1.6,-.6l-1.3,-.7l-1.4,-.8l-1.4,-.8l-1.4,-.9l-1.2,-.9l-1.2,-1.1l-1.1,-1l-1,-1.3l-1.1,-1l-.9,-1.4l-.9,-1.2l-1,-1.4l-.7,-1.4l-.6,-1.4l-.6,-1.5l-.7,-1.5l-.3,-1.5l-.4,-1.6l-.3,-1.5l-.2,-1.5l-.1,-1.5v-1.7Z" class="g3_1" />
<path d="M220.8,545.4v-1.6l.1,-1.3l.2,-1.6l.3,-1.5l.3,-1.5l.4,-1.5l.5,-1.4l.6,-1.5l.6,-1.4l.8,-1.2l.7,-1.4l.8,-1.2L227,527l.9,-1.2l1.1,-1.2l1.1,-1.1l1.2,-.9l1.2,-1.1l1.3,-.9l1.2,-.7l1.3,-.8l1.3,-.8l1.3,-.6l1.6,-.6l1.3,-.4l1.6,-.5l1.5,-.3l1.4,-.3l1.5,-.2l1.5,-.1h3.2l1.6,.1l1.5,.2l1.5,.3l1.6,.4l1.5,.4l1.5,.6l1.5,.6l1.4,.6l1.4,.7l1.4,1l1.2,.9l1.4,.9l1,1.1l1.2,1l1.1,1.1l1.1,1.2l.9,1.3l.9,1.3l.8,1.2l.8,1.6l.7,1.4l.5,1.5l.6,1.4l.4,1.5l.3,1.5l.4,1.5l.3,1.6v1.6l.1,1.6l-.1,1.5v1.7l-.3,1.5l-.4,1.5l-.3,1.6l-.4,1.5l-.5,1.5l-.6,1.4l-.7,1.5l-.8,1.4l-.8,1.4l-.9,1.2l-.9,1.2l-1.1,1.2l-1.1,1.3l-1.2,1l-1,.9l-1.4,1.1l-1.2,.9l-1.4,.8l-1.4,.8l-1.4,.6l-1.5,.6l-1.5,.6l-1.5,.5l-1.6,.3l-1.5,.3l-1.5,.3h-1.6l-1.6,.1l-1.6,-.1h-1.5l-1.7,-.3l-1.5,-.3l-1.5,-.3l-1.6,-.5l-1.3,-.5l-1.6,-.6l-1.3,-.7l-1.4,-.8l-1.4,-.8l-1.4,-.9l-1.2,-.9l-1.2,-1.1l-1.1,-1l-1,-1.3l-1.1,-1l-.9,-1.4l-.9,-1.2l-1,-1.4l-.7,-1.4l-.6,-1.4l-.6,-1.5l-.7,-1.5l-.3,-1.5l-.4,-1.6l-.3,-1.5l-.2,-1.5l-.1,-1.5v-1.7Z" class="g4_1" />
<path fill-rule="evenodd" d="M304.3,545.4v-1.6l.2,-1.3l.1,-1.6l.3,-1.5l.4,-1.5l.4,-1.5l.5,-1.4l.6,-1.5l.6,-1.4l.8,-1.2l.7,-1.4l.8,-1.2l.9,-1.3l.9,-1.2l1.1,-1.2l1.1,-1.1l1.2,-.9l1,-1.1l1.3,-.9l1.3,-.7l1.3,-.8l1.3,-.8l1.4,-.6l1.5,-.6l1.4,-.4l1.5,-.5l1.6,-.3l1.3,-.3l1.6,-.2l1.5,-.1H336l1.6,.1l1.6,.2l1.5,.3l1.5,.4l1.6,.4l1.5,.6l1.4,.6l1.5,.6l1.4,.7l1.3,1l1.3,.9l1.2,.9l1.2,1.1l1.2,1l1.1,1.1l1.1,1.2l.9,1.3l.7,1.3l1,1.2l.7,1.6l.6,1.4l.6,1.5l.7,1.4l.4,1.5l.3,1.5l.3,1.5l.2,1.6l.1,1.6v3.1l-.1,1.7l-.2,1.5l-.3,1.5l-.3,1.6l-.4,1.5l-.7,1.5l-.6,1.4l-.6,1.5l-.7,1.4l-.8,1.4l-.9,1.2l-.9,1.2l-1.1,1.2l-1.1,1.3l-1.2,1l-1.2,.9l-1.2,1.1l-1.3,.9l-1.3,.8l-1.4,.8l-1.5,.6l-1.4,.6l-1.5,.6l-1.6,.5l-1.5,.3l-1.5,.3l-1.6,.3H336l-1.6,.1l-1.5,-.1h-1.5l-1.7,-.3l-1.5,-.3l-1.6,-.3l-1.5,-.5l-1.5,-.5l-1.4,-.6l-1.4,-.7l-1.3,-.8l-1.4,-.8l-1.4,-.9l-1.2,-.9l-1.2,-1.1l-1.1,-1L312,565.5l-.9,-1L310,563.1l-.8,-1.2l-.9,-1.4l-.8,-1.4l-.6,-1.4l-.6,-1.5l-.6,-1.5l-.4,-1.5l-.4,-1.6l-.3,-1.5l-.1,-1.5l-.2,-1.5v-1.7Z" class="g3_1" />
<path d="M304.3,545.4v-1.6l.2,-1.3l.1,-1.6l.3,-1.5l.4,-1.5l.4,-1.5l.5,-1.4l.6,-1.5l.6,-1.4l.8,-1.2l.7,-1.4l.8,-1.2l.9,-1.3l.9,-1.2l1.1,-1.2l1.1,-1.1l1.2,-.9l1,-1.1l1.3,-.9l1.3,-.7l1.3,-.8l1.3,-.8l1.4,-.6l1.5,-.6l1.4,-.4l1.5,-.5l1.6,-.3l1.3,-.3l1.6,-.2l1.5,-.1H336l1.6,.1l1.6,.2l1.5,.3l1.5,.4l1.6,.4l1.5,.6l1.4,.6l1.5,.6l1.4,.7l1.3,1l1.3,.9l1.2,.9l1.2,1.1l1.2,1l1.1,1.1l1.1,1.2l.9,1.3l.7,1.3l1,1.2l.7,1.6l.6,1.4l.6,1.5l.7,1.4l.4,1.5l.3,1.5l.3,1.5l.2,1.6l.1,1.6v3.1l-.1,1.7l-.2,1.5l-.3,1.5l-.3,1.6l-.4,1.5l-.7,1.5l-.6,1.4l-.6,1.5l-.7,1.4l-.8,1.4l-.9,1.2l-.9,1.2l-1.1,1.2l-1.1,1.3l-1.2,1l-1.2,.9l-1.2,1.1l-1.3,.9l-1.3,.8l-1.4,.8l-1.5,.6l-1.4,.6l-1.5,.6l-1.6,.5l-1.5,.3l-1.5,.3l-1.6,.3H336l-1.6,.1l-1.5,-.1h-1.5l-1.7,-.3l-1.5,-.3l-1.6,-.3l-1.5,-.5l-1.5,-.5l-1.4,-.6l-1.4,-.7l-1.3,-.8l-1.4,-.8l-1.4,-.9l-1.2,-.9l-1.2,-1.1l-1.1,-1L312,565.5l-.9,-1L310,563.1l-.8,-1.2l-.9,-1.4l-.8,-1.4l-.6,-1.4l-.6,-1.5l-.6,-1.5l-.4,-1.5l-.4,-1.6l-.3,-1.5l-.1,-1.5l-.2,-1.5v-1.7Z" class="g4_1" />
<path fill-rule="evenodd" d="M387.9,545.4v-1.6l.2,-1.3l.1,-1.6l.3,-1.5l.3,-1.5l.5,-1.5l.4,-1.4l.6,-1.5l.7,-1.4l.6,-1.2l.7,-1.4l.9,-1.2l1,-1.3l.9,-1.2l1.1,-1.2l1,-1.1l1.1,-.9l1.2,-1.1l1.2,-.9l1.3,-.7l1.3,-.8l1.4,-.8l1.4,-.6l1.4,-.6l1.5,-.4l1.4,-.5l1.5,-.3l1.5,-.3l1.5,-.2l1.6,-.1h3l1.7,.1l1.5,.2l1.6,.3l1.5,.4l1.5,.4l1.5,.6l1.4,.6l1.6,.6l1.3,.7l1.2,1l1.4,.9l1.2,.9l1.3,1.1l1,1l1.3,1.1l.9,1.2l1,1.3l.8,1.3l.9,1.2l.8,1.6l.6,1.4l.6,1.5l.6,1.4l.3,1.5l.5,1.5l.3,1.5l.1,1.6l.2,1.6v3.1l-.2,1.7l-.1,1.5l-.3,1.5l-.5,1.6l-.3,1.5l-.6,1.5l-.6,1.4l-.6,1.5l-.8,1.4l-.7,1.4l-1,1.2l-1,1.2l-.9,1.2l-1.3,1.3l-1,1l-1.3,.9l-1.2,1.1l-1.4,.9l-1.2,.8l-1.3,.8l-1.6,.6l-1.4,.6l-1.5,.6l-1.5,.5l-1.5,.3l-1.6,.3l-1.5,.3h-1.7l-1.5,.1l-1.5,-.1h-1.7l-1.5,-.3l-1.6,-.3l-1.5,-.3l-1.5,-.5l-1.5,-.5l-1.4,-.6l-1.5,-.7l-1.4,-.8l-1.2,-.8l-1.4,-.9l-1.2,-.9l-1.3,-1.1l-1,-1l-1.3,-1.3l-.9,-1l-1,-1.4l-1,-1.2l-.7,-1.4l-.8,-1.4l-.6,-1.4l-.6,-1.5l-.6,-1.5l-.5,-1.5l-.3,-1.6l-.3,-1.5l-.1,-1.5l-.2,-1.5l-.1,-1.7h.1Z" class="g3_1" />
<path d="M387.9,545.4v-1.6l.2,-1.3l.1,-1.6l.3,-1.5l.3,-1.5l.5,-1.5l.4,-1.4l.6,-1.5l.7,-1.4l.6,-1.2l.7,-1.4l.9,-1.2l1,-1.3l.9,-1.2l1.1,-1.2l1,-1.1l1.1,-.9l1.2,-1.1l1.2,-.9l1.3,-.7l1.3,-.8l1.4,-.8l1.4,-.6l1.4,-.6l1.5,-.4l1.4,-.5l1.5,-.3l1.5,-.3l1.5,-.2l1.6,-.1h3l1.7,.1l1.5,.2l1.6,.3l1.5,.4l1.5,.4l1.5,.6l1.4,.6l1.6,.6l1.3,.7l1.2,1l1.4,.9l1.2,.9l1.3,1.1l1,1l1.3,1.1l.9,1.2l1,1.3l.8,1.3l.9,1.2l.8,1.6l.6,1.4l.6,1.5l.6,1.4l.3,1.5l.5,1.5l.3,1.5l.1,1.6l.2,1.6v3.1l-.2,1.7l-.1,1.5l-.3,1.5l-.5,1.6l-.3,1.5l-.6,1.5l-.6,1.4l-.6,1.5l-.8,1.4l-.7,1.4l-1,1.2l-1,1.2l-.9,1.2l-1.3,1.3l-1,1l-1.3,.9l-1.2,1.1l-1.4,.9l-1.2,.8l-1.3,.8l-1.6,.6l-1.4,.6l-1.5,.6l-1.5,.5l-1.5,.3l-1.6,.3l-1.5,.3h-1.7l-1.5,.1l-1.5,-.1h-1.7l-1.5,-.3l-1.6,-.3l-1.5,-.3l-1.5,-.5l-1.5,-.5l-1.4,-.6l-1.5,-.7l-1.4,-.8l-1.2,-.8l-1.4,-.9l-1.2,-.9l-1.3,-1.1l-1,-1l-1.3,-1.3l-.9,-1l-1,-1.4l-1,-1.2l-.7,-1.4l-.8,-1.4l-.6,-1.4l-.6,-1.5l-.6,-1.5l-.5,-1.5l-.3,-1.6l-.3,-1.5l-.1,-1.5l-.2,-1.5l-.1,-1.7h.1Z" class="g4_1" />
<path fill-rule="evenodd" d="M471.5,545.4v-1.6l.1,-1.3l.2,-1.6l.3,-1.5l.3,-1.5l.4,-1.5l.5,-1.4l.6,-1.5l.6,-1.4l.6,-1.2l1,-1.4l.7,-1.2l.9,-1.3l1,-1.2l1,-1.2l1.1,-1.1l1.1,-.9l1.2,-1.1l1.2,-.9l1.2,-.7l1.4,-.8l1.4,-.8l1.4,-.6l1.3,-.6l1.6,-.4l1.3,-.5l1.6,-.3l1.5,-.3l1.5,-.2l1.5,-.1h3.1l1.7,.1l1.5,.2l1.5,.3l1.6,.4l1.5,.4l1.5,.6l1.4,.6l1.5,.6l1.4,.7l1.4,1l1.2,.9l1.2,.9l1.2,1.1l1.3,1l1,1.1l.9,1.2l1.1,1.3l.8,1.3l.9,1.2l.8,1.6l.6,1.4l.6,1.5l.6,1.4l.4,1.5l.4,1.5l.3,1.5l.1,1.6l.2,1.6v3.1l-.2,1.7l-.1,1.5l-.3,1.5l-.4,1.6l-.4,1.5l-.6,1.5l-.6,1.4l-.6,1.5l-.8,1.4l-.8,1.4l-.9,1.2l-1.1,1.2l-.9,1.2l-1,1.3l-1.3,1l-1.2,.9l-1.2,1.1l-1.2,.9l-1.4,.8l-1.4,.8l-1.5,.6l-1.4,.6l-1.5,.6l-1.5,.5l-1.6,.3l-1.5,.3l-1.5,.3h-1.7l-1.5,.1l-1.6,-.1h-1.6l-1.6,-.3l-1.5,-.3l-1.5,-.3l-1.5,-.5l-1.6,-.5l-1.4,-.6l-1.3,-.7l-1.6,-.8l-1.2,-.8l-1.4,-.9l-1.2,-.9l-1.2,-1.1l-1.1,-1l-1.2,-1.3l-.9,-1l-1.1,-1.4l-.7,-1.2l-1,-1.4l-.7,-1.4l-.6,-1.4l-.6,-1.5l-.7,-1.5l-.4,-1.5l-.3,-1.6l-.3,-1.5l-.2,-1.5l-.1,-1.5v-1.7Z" class="g3_1" />
<path d="M471.5,545.4v-1.6l.1,-1.3l.2,-1.6l.3,-1.5l.3,-1.5l.4,-1.5l.5,-1.4l.6,-1.5l.6,-1.4l.6,-1.2l1,-1.4l.7,-1.2l.9,-1.3l1,-1.2l1,-1.2l1.1,-1.1l1.1,-.9l1.2,-1.1l1.2,-.9l1.2,-.7l1.4,-.8l1.4,-.8l1.4,-.6l1.3,-.6l1.6,-.4l1.3,-.5l1.6,-.3l1.5,-.3l1.5,-.2l1.5,-.1h3.1l1.7,.1l1.5,.2l1.5,.3l1.6,.4l1.5,.4l1.5,.6l1.4,.6l1.5,.6l1.4,.7l1.4,1l1.2,.9l1.2,.9l1.2,1.1l1.3,1l1,1.1l.9,1.2l1.1,1.3l.8,1.3l.9,1.2l.8,1.6l.6,1.4l.6,1.5l.6,1.4l.4,1.5l.4,1.5l.3,1.5l.1,1.6l.2,1.6v3.1l-.2,1.7l-.1,1.5l-.3,1.5l-.4,1.6l-.4,1.5l-.6,1.5l-.6,1.4l-.6,1.5l-.8,1.4l-.8,1.4l-.9,1.2l-1.1,1.2l-.9,1.2l-1,1.3l-1.3,1l-1.2,.9l-1.2,1.1l-1.2,.9l-1.4,.8l-1.4,.8l-1.5,.6l-1.4,.6l-1.5,.6l-1.5,.5l-1.6,.3l-1.5,.3l-1.5,.3h-1.7l-1.5,.1l-1.6,-.1h-1.6l-1.6,-.3l-1.5,-.3l-1.5,-.3l-1.5,-.5l-1.6,-.5l-1.4,-.6l-1.3,-.7l-1.6,-.8l-1.2,-.8l-1.4,-.9l-1.2,-.9l-1.2,-1.1l-1.1,-1l-1.2,-1.3l-.9,-1l-1.1,-1.4l-.7,-1.2l-1,-1.4l-.7,-1.4l-.6,-1.4l-.6,-1.5l-.7,-1.5l-.4,-1.5l-.3,-1.6l-.3,-1.5l-.2,-1.5l-.1,-1.5v-1.7Z" class="g4_1" />
<path fill-rule="evenodd" d="M555,545.4v-2.9l.3,-1.6l.4,-1.5l.3,-1.5l.4,-1.5l.5,-1.4l.4,-1.5l.8,-1.4l.6,-1.2l.8,-1.4l.9,-1.2l.9,-1.3l.9,-1.2l1.1,-1.2l1.1,-1.1l1,-.9l1.3,-1.1l1.2,-.9l1.2,-.7l1.4,-.8l1.3,-.8l1.4,-.6l1.4,-.6l1.5,-.4l1.4,-.5l1.5,-.3l1.6,-.3l1.5,-.2l1.5,-.1h3.1l1.6,.1l1.6,.2l1.5,.3l1.5,.4l1.6,.4l1.3,.6l1.6,.6l1.3,.6l1.6,.7l1.2,1l1.4,.9l1.2,.9l1.2,1.1l1.1,1l1,1.1l1.1,1.2l.9,1.3l.9,1.3l1,1.2l.7,1.6l.6,1.4l.6,1.5l.7,1.4l.3,1.5l.4,1.5l.3,1.5l.2,1.6l.1,1.6v3.1l-.1,1.7l-.2,1.5l-.3,1.5l-.4,1.6l-.3,1.5l-.7,1.5l-.6,1.4l-.6,1.5l-.7,1.4l-1,1.4l-.9,1.2l-.9,1.2l-1.1,1.2l-1,1.3l-1.1,1l-1.2,.9l-1.2,1.1l-1.4,.9l-1.2,.8l-1.6,.8l-1.3,.6l-1.6,.6l-1.3,.6l-1.6,.5l-1.5,.3l-1.5,.3l-1.6,.3h-1.6l-1.6,.1l-1.5,-.1h-1.7l-1.5,-.3l-1.5,-.3l-1.6,-.3l-1.5,-.5l-1.5,-.5l-1.4,-.6l-1.5,-.7l-1.4,-.8l-1.4,-.8l-1.2,-.9l-1.2,-.9L565,567.8l-1.2,-1l-1.1,-1.3l-.9,-1l-1.1,-1.4l-.9,-1.2l-.8,-1.4l-.8,-1.4l-.6,-1.4l-.6,-1.5l-.6,-1.5l-.4,-1.5l-.3,-1.6l-.4,-1.5l-.3,-1.5v-1.5l-.1,-1.7h.1Z" class="g3_1" />
<path d="M555,545.4v-2.9l.3,-1.6l.4,-1.5l.3,-1.5l.4,-1.5l.5,-1.4l.4,-1.5l.8,-1.4l.6,-1.2l.8,-1.4l.9,-1.2l.9,-1.3l.9,-1.2l1.1,-1.2l1.1,-1.1l1,-.9l1.3,-1.1l1.2,-.9l1.2,-.7l1.4,-.8l1.3,-.8l1.4,-.6l1.4,-.6l1.5,-.4l1.4,-.5l1.5,-.3l1.6,-.3l1.5,-.2l1.5,-.1h3.1l1.6,.1l1.6,.2l1.5,.3l1.5,.4l1.6,.4l1.3,.6l1.6,.6l1.3,.6l1.6,.7l1.2,1l1.4,.9l1.2,.9l1.2,1.1l1.1,1l1,1.1l1.1,1.2l.9,1.3l.9,1.3l1,1.2l.7,1.6l.6,1.4l.6,1.5l.7,1.4l.3,1.5l.4,1.5l.3,1.5l.2,1.6l.1,1.6v3.1l-.1,1.7l-.2,1.5l-.3,1.5l-.4,1.6l-.3,1.5l-.7,1.5l-.6,1.4l-.6,1.5l-.7,1.4l-1,1.4l-.9,1.2l-.9,1.2l-1.1,1.2l-1,1.3l-1.1,1l-1.2,.9l-1.2,1.1l-1.4,.9l-1.2,.8l-1.6,.8l-1.3,.6l-1.6,.6l-1.3,.6l-1.6,.5l-1.5,.3l-1.5,.3l-1.6,.3h-1.6l-1.6,.1l-1.5,-.1h-1.7l-1.5,-.3l-1.5,-.3l-1.6,-.3l-1.5,-.5l-1.5,-.5l-1.4,-.6l-1.5,-.7l-1.4,-.8l-1.4,-.8l-1.2,-.9l-1.2,-.9L565,567.8l-1.2,-1l-1.1,-1.3l-.9,-1l-1.1,-1.4l-.9,-1.2l-.8,-1.4l-.8,-1.4l-.6,-1.4l-.6,-1.5l-.6,-1.5l-.4,-1.5l-.3,-1.6l-.4,-1.5l-.3,-1.5v-1.5l-.1,-1.7h.1Z" class="g4_1" />
<text x="41" y="185" dx="0,0.1,0,0.2,0,0.1" class="s1_1">Output</text>
<text x="41" y="432" dx="0,-0.1,0,0.1,0,0.1" class="s1_1">Hidden</text>
<text x="41" y="769" dx="0,0,0,0.1,0.1" class="s1_1">Input</text>
<path d="M207.3,725.2L251,575.6M207.3,725.2L334.6,575.6M207.3,725.2L418,575.6M207.3,725.2L501.6,575.6M207.3,725.2L585.1,575.6M251,515.3L290.9,385M251,515.3L374.5,385M251,515.3L458,385M251,515.3L541.6,385M290.9,324.6L334.4,202.2M290.9,324.6L418.2,202.2M290.9,324.6L501.6,202.2M290.9,725.2l-40,-149.6M290.9,725.2L334.4,575.6M290.9,725.2L418.2,575.6M290.9,725.2L501.6,575.6M290.9,725.2L585.1,575.6M374.5,725.2L251,575.6M374.5,725.2L334.4,575.6M374.5,725.2L418,575.6M374.5,725.2L501.6,575.6M374.5,725.2L585.1,575.6M457.9,725.2L250.9,575.6M458,725.2L334.4,575.6M457.9,725.2L418,575.6M458,725.2L501.6,575.6M458,725.2L585.1,575.6M541.4,725.2L250.9,575.6M541.4,725.2L334.4,575.6M541.4,725.2L418,575.6M541.4,725.2L501.6,575.6M541.4,725.2L585.1,575.6M625.2,725.2L251,575.6M625,725.2L334.4,575.6M625,725.2L418,575.6M625.2,725.2L501.6,575.6M625,725.2L585.1,575.6M334.4,515.3L290.7,385M334.4,515.3L374.5,385M334.6,515.3L458,385M334.4,515.3L541.4,385M418,515.3L290.9,385M418,515.3L374.3,385M418,515.3L458,385M418.2,515.3L541.6,385M501.6,515.3L290.7,385M501.6,515.3L374.5,385M501.6,515.3L457.9,385M501.6,515.3L541.6,385M585.1,515.3L290.7,385M585.1,515.3L374.3,385M585.1,515.3L458,385M585.1,515.3L541.4,385M374.5,324.6L334.4,202.2M374.5,324.6L418,202.2M374.5,324.6L501.6,202.2M458,324.6L334.4,202.2M457.9,324.6L418,202.2M458,324.6L501.6,202.2M541.4,324.6L334.4,202.2M541.4,324.6L418,202.2M541.4,324.6L501.6,202.2" class="g7_1" />
<text x="248" y="259" class="s2_1">W</text>
<text x="276" y="267" class="s3_1">3</text>
<path fill-rule="evenodd" d="M946.9,755.4v-1.5l.2,-1.5l.1,-1.5l.3,-1.4l.3,-1.5l.5,-1.6l.5,-1.3l.6,-1.6l.6,-1.3l.6,-1.4l.7,-1.2l1,-1.4l.9,-1.2l.9,-1.3l1.1,-1l1,-1.1l1.1,-.9l1.2,-1.1l1.3,-.9l1.2,-.8l1.3,-.7l1.4,-.8l1.4,-.6l1.4,-.6l1.5,-.5l1.4,-.4l1.5,-.3l1.5,-.3l1.6,-.2l1.5,-.2h3l1.7,.2l1.5,.2l1.6,.3l1.5,.3l1.5,.4l1.6,.6l1.3,.6l1.6,.7l1.3,.7l1.3,.8l1.3,.9l1.3,1.1l1.2,.9l1.1,1.1l1.2,1.2l.9,1.2l1.1,1.2l.7,1.2l.9,1.4l.8,1.4l.6,1.5l.6,1.4l.6,1.5l.3,1.6l.5,1.5l.3,1.5l.2,1.5l.1,1.7V757l-.1,1.7l-.2,1.5l-.3,1.5l-.5,1.5l-.3,1.6l-.6,1.5l-.6,1.4l-.6,1.3l-.8,1.6l-.7,1.2l-.9,1.4l-1.1,1.2l-.9,1.2l-1.2,1.1l-1.1,1.2l-1.2,.9l-1.3,1.1l-1.3,.8l-1.3,.9l-1.3,.7l-1.6,.6l-1.3,.7l-1.6,.6l-1.5,.4l-1.5,.3l-1.6,.3l-1.5,.2l-1.7,.1h-3l-1.7,-.1l-1.5,-.2l-1.5,-.3l-1.6,-.3l-1.5,-.4l-1.5,-.6l-1.4,-.7l-1.5,-.6l-1.4,-.7l-1.2,-.8l-1.4,-.9l-1.2,-.9l-1.3,-1.1l-1.2,-1.1l-1,-1.2l-1,-1.2l-1,-1.2l-.9,-1.3l-.8,-1.3l-.8,-1.4l-.6,-1.5l-.6,-1.4l-.6,-1.5l-.5,-1.6l-.3,-1.5l-.3,-1.5l-.1,-1.5l-.2,-1.7l-.1,-1.6h.1Z" class="g1_1" />
<path d="M946.9,755.4v-1.5l.2,-1.5l.1,-1.5l.3,-1.4l.3,-1.5l.5,-1.6l.5,-1.3l.6,-1.6l.6,-1.3l.6,-1.4l.7,-1.2l1,-1.4l.9,-1.2l.9,-1.3l1.1,-1l1,-1.1l1.1,-.9l1.2,-1.1l1.3,-.9l1.2,-.8l1.3,-.7l1.4,-.8l1.4,-.6l1.4,-.6l1.5,-.5l1.4,-.4l1.5,-.3l1.5,-.3l1.6,-.2l1.5,-.2h3l1.7,.2l1.5,.2l1.6,.3l1.5,.3l1.5,.4l1.6,.6l1.3,.6l1.6,.7l1.3,.7l1.3,.8l1.3,.9l1.3,1.1l1.2,.9l1.1,1.1l1.2,1.2l.9,1.2l1.1,1.2l.7,1.2l.9,1.4l.8,1.4l.6,1.5l.6,1.4l.6,1.5l.3,1.6l.5,1.5l.3,1.5l.2,1.5l.1,1.7V757l-.1,1.7l-.2,1.5l-.3,1.5l-.5,1.5l-.3,1.6l-.6,1.5l-.6,1.4l-.6,1.3l-.8,1.6l-.7,1.2l-.9,1.4l-1.1,1.2l-.9,1.2l-1.2,1.1l-1.1,1.2l-1.2,.9l-1.3,1.1l-1.3,.8l-1.3,.9l-1.3,.7l-1.6,.6l-1.3,.7l-1.6,.6l-1.5,.4l-1.5,.3l-1.6,.3l-1.5,.2l-1.7,.1h-3l-1.7,-.1l-1.5,-.2l-1.5,-.3l-1.6,-.3l-1.5,-.4l-1.5,-.6l-1.4,-.7l-1.5,-.6l-1.4,-.7l-1.2,-.8l-1.4,-.9l-1.2,-.9l-1.3,-1.1l-1.2,-1.1l-1,-1.2l-1,-1.2l-1,-1.2l-.9,-1.3l-.8,-1.3l-.8,-1.4l-.6,-1.5l-.6,-1.4l-.6,-1.5l-.5,-1.6l-.3,-1.5l-.3,-1.5l-.1,-1.5l-.2,-1.7l-.1,-1.6h.1Z" class="g2_1" />
<path fill-rule="evenodd" d="M1030.5,755.4v-1.5l.1,-1.5l.2,-1.5l.3,-1.4l.3,-1.5l.5,-1.6l.4,-1.3l.6,-1.6l.6,-1.3l.7,-1.4l.9,-1.2l.7,-1.4l.9,-1.2l1,-1.3l1,-1l1.1,-1.1l1.1,-.9l1.2,-1.1l1.2,-.9l1.2,-.8l1.4,-.7l1.4,-.8l1.4,-.6l1.3,-.6l1.6,-.5l1.3,-.4l1.6,-.3l1.5,-.3l1.5,-.2l1.6,-.2h3l1.7,.2l1.5,.2l1.5,.3l1.6,.3l1.5,.4l1.5,.6l1.4,.6l1.5,.7l1.4,.7l1.2,.8l1.4,.9l1.2,1.1l1.3,.9l1.2,1.1l1,1.2l1,1.2l1,1.2l.8,1.2l.9,1.4l.8,1.4l.6,1.5l.6,1.4l.6,1.5l.5,1.6l.3,1.5l.3,1.5l.1,1.5l.2,1.7V757l-.2,1.7l-.1,1.5l-.3,1.5l-.3,1.5l-.5,1.6l-.6,1.5l-.6,1.4l-.6,1.3l-.8,1.6l-.8,1.2l-.9,1.4l-1,1.2l-1,1.2l-1,1.1l-1.2,1.2l-1.3,.9l-1.2,1.1l-1.4,.8l-1.2,.9l-1.4,.7l-1.5,.6l-1.4,.7l-1.5,.6l-1.5,.4l-1.6,.3l-1.5,.3l-1.5,.2l-1.7,.1h-3l-1.7,-.1l-1.6,-.2l-1.5,-.3l-1.5,-.3l-1.5,-.4l-1.6,-.6l-1.3,-.7l-1.6,-.6l-1.3,-.7l-1.3,-.8l-1.3,-.9l-1.3,-.9l-1.2,-1.1l-1.1,-1.1l-1.2,-1.2l-.9,-1.2l-1.1,-1.2l-.7,-1.3l-.9,-1.3l-.8,-1.4l-.6,-1.5l-.6,-1.4l-.6,-1.5l-.5,-1.6l-.3,-1.5l-.3,-1.5l-.2,-1.5l-.1,-1.7l-.2,-1.6h.2Z" class="g1_1" />
<path d="M1030.5,755.4v-1.5l.1,-1.5l.2,-1.5l.3,-1.4l.3,-1.5l.5,-1.6l.4,-1.3l.6,-1.6l.6,-1.3l.7,-1.4l.9,-1.2l.7,-1.4l.9,-1.2l1,-1.3l1,-1l1.1,-1.1l1.1,-.9l1.2,-1.1l1.2,-.9l1.2,-.8l1.4,-.7l1.4,-.8l1.4,-.6l1.3,-.6l1.6,-.5l1.3,-.4l1.6,-.3l1.5,-.3l1.5,-.2l1.6,-.2h3l1.7,.2l1.5,.2l1.5,.3l1.6,.3l1.5,.4l1.5,.6l1.4,.6l1.5,.7l1.4,.7l1.2,.8l1.4,.9l1.2,1.1l1.3,.9l1.2,1.1l1,1.2l1,1.2l1,1.2l.8,1.2l.9,1.4l.8,1.4l.6,1.5l.6,1.4l.6,1.5l.5,1.6l.3,1.5l.3,1.5l.1,1.5l.2,1.7V757l-.2,1.7l-.1,1.5l-.3,1.5l-.3,1.5l-.5,1.6l-.6,1.5l-.6,1.4l-.6,1.3l-.8,1.6l-.8,1.2l-.9,1.4l-1,1.2l-1,1.2l-1,1.1l-1.2,1.2l-1.3,.9l-1.2,1.1l-1.4,.8l-1.2,.9l-1.4,.7l-1.5,.6l-1.4,.7l-1.5,.6l-1.5,.4l-1.6,.3l-1.5,.3l-1.5,.2l-1.7,.1h-3l-1.7,-.1l-1.6,-.2l-1.5,-.3l-1.5,-.3l-1.5,-.4l-1.6,-.6l-1.3,-.7l-1.6,-.6l-1.3,-.7l-1.3,-.8l-1.3,-.9l-1.3,-.9l-1.2,-1.1l-1.1,-1.1l-1.2,-1.2l-.9,-1.2l-1.1,-1.2l-.7,-1.3l-.9,-1.3l-.8,-1.4l-.6,-1.5l-.6,-1.4l-.6,-1.5l-.5,-1.6l-.3,-1.5l-.3,-1.5l-.2,-1.5l-.1,-1.7l-.2,-1.6h.2Z" class="g2_1" />
<path fill-rule="evenodd" d="M1114.1,755.4v-3l.3,-1.5l.3,-1.4l.3,-1.5l.4,-1.6l.5,-1.3l.4,-1.6l.8,-1.3l.6,-1.4l.8,-1.2l.9,-1.4l.9,-1.2l.9,-1.3l1.1,-1l1.1,-1.1l1,-.9l1.3,-1.1l1.2,-.9l1.2,-.8l1.4,-.7l1.4,-.8l1.3,-.6l1.4,-.6l1.5,-.5l1.4,-.4l1.5,-.3l1.6,-.3l1.5,-.2l1.5,-.2h3.1l1.7,.2l1.5,.2l1.5,.3l1.5,.3l1.6,.4l1.3,.6l1.6,.6l1.3,.7l1.4,.7l1.4,.8l1.4,.9l1.2,1.1l1.2,.9l1.1,1.1l1.1,1.2l1,1.2l.9,1.2l1,1.2l.7,1.4l.9,1.4l.7,1.5l.6,1.4l.6,1.5l.3,1.6l.4,1.5l.3,1.5l.2,1.5l.1,1.7V757l-.1,1.7l-.2,1.5l-.3,1.5l-.4,1.5l-.3,1.6l-.6,1.5l-.6,1.4l-.7,1.3l-.7,1.6l-.9,1.2l-1,1.4l-.9,1.2l-1,1.2l-1.1,1.1l-1.1,1.2l-1.2,.9l-1.2,1.1l-1.4,.8l-1.4,.9l-1.4,.7l-1.3,.6l-1.6,.7l-1.3,.6l-1.6,.4l-1.5,.3l-1.5,.3l-1.5,.2l-1.7,.1h-3.1l-1.7,-.1l-1.5,-.2l-1.5,-.3l-1.5,-.3l-1.6,-.4l-1.5,-.6l-1.4,-.7l-1.5,-.6l-1.4,-.7l-1.3,-.8l-1.3,-.9l-1.2,-.9l-1.2,-1.1l-1.2,-1.1l-1.1,-1.2l-1.1,-1.2l-.9,-1.2l-.9,-1.3l-.8,-1.3l-.7,-1.4l-.6,-1.5l-.7,-1.4l-.6,-1.5l-.4,-1.6l-.3,-1.5l-.3,-1.5l-.3,-1.5V757l-.2,-1.6h.2Z" class="g1_1" />
<path d="M1114.1,755.4v-3l.3,-1.5l.3,-1.4l.3,-1.5l.4,-1.6l.5,-1.3l.4,-1.6l.8,-1.3l.6,-1.4l.8,-1.2l.9,-1.4l.9,-1.2l.9,-1.3l1.1,-1l1.1,-1.1l1,-.9l1.3,-1.1l1.2,-.9l1.2,-.8l1.4,-.7l1.4,-.8l1.3,-.6l1.4,-.6l1.5,-.5l1.4,-.4l1.5,-.3l1.6,-.3l1.5,-.2l1.5,-.2h3.1l1.7,.2l1.5,.2l1.5,.3l1.5,.3l1.6,.4l1.3,.6l1.6,.6l1.3,.7l1.4,.7l1.4,.8l1.4,.9l1.2,1.1l1.2,.9l1.1,1.1l1.1,1.2l1,1.2l.9,1.2l1,1.2l.7,1.4l.9,1.4l.7,1.5l.6,1.4l.6,1.5l.3,1.6l.4,1.5l.3,1.5l.2,1.5l.1,1.7V757l-.1,1.7l-.2,1.5l-.3,1.5l-.4,1.5l-.3,1.6l-.6,1.5l-.6,1.4l-.7,1.3l-.7,1.6l-.9,1.2l-1,1.4l-.9,1.2l-1,1.2l-1.1,1.1l-1.1,1.2l-1.2,.9l-1.2,1.1l-1.4,.8l-1.4,.9l-1.4,.7l-1.3,.6l-1.6,.7l-1.3,.6l-1.6,.4l-1.5,.3l-1.5,.3l-1.5,.2l-1.7,.1h-3.1l-1.7,-.1l-1.5,-.2l-1.5,-.3l-1.5,-.3l-1.6,-.4l-1.5,-.6l-1.4,-.7l-1.5,-.6l-1.4,-.7l-1.3,-.8l-1.3,-.9l-1.2,-.9l-1.2,-1.1l-1.2,-1.1l-1.1,-1.2l-1.1,-1.2l-.9,-1.2l-.9,-1.3l-.8,-1.3l-.7,-1.4l-.6,-1.5l-.7,-1.4l-.6,-1.5l-.4,-1.6l-.3,-1.5l-.3,-1.5l-.3,-1.5V757l-.2,-1.6h.2Z" class="g2_1" />
<path fill-rule="evenodd" d="M1197.5,755.4l.1,-1.5v-1.5l.3,-1.5l.2,-1.4l.4,-1.5l.3,-1.6l.7,-1.3l.4,-1.6l.6,-1.3l.8,-1.4l.8,-1.2l.9,-1.4l.7,-1.2l1.1,-1.3l1.1,-1l1,-1.1l1.1,-.9l1.2,-1.1l1.3,-.9l1.2,-.8l1.4,-.7l1.3,-.8l1.4,-.6l1.4,-.6l1.4,-.5l1.5,-.4l1.5,-.3l1.5,-.3l1.6,-.2l1.5,-.2h3l1.6,.2l1.7,.2l1.5,.3l1.5,.3l1.5,.4l1.4,.6l1.5,.6l1.4,.7l1.4,.7l1.4,.8l1.3,.9l1.3,1.1l1,.9l1.3,1.1l1,1.2l1.1,1.2l.9,1.2l.9,1.2l.8,1.4l.8,1.4l.7,1.5l.6,1.4l.5,1.5l.4,1.6l.5,1.5l.2,1.5l.3,1.5l.1,1.7V757l-.1,1.7l-.3,1.5l-.2,1.5l-.5,1.5l-.4,1.6l-.5,1.5l-.6,1.4l-.7,1.3l-.7,1.6l-.9,1.2l-.9,1.4l-.9,1.2l-1.1,1.2l-1,1.1l-1.1,1.2l-1.2,.9l-1.3,1.1l-1.3,.8l-1.4,.9l-1.4,.7l-1.4,.6l-1.5,.7l-1.4,.6l-1.5,.4l-1.5,.3l-1.5,.3l-1.7,.2l-1.6,.1H1226l-1.5,-.1l-1.5,-.2l-1.5,-.3l-1.6,-.3l-1.5,-.4l-1.5,-.6l-1.6,-.7l-1.3,-.6l-1.4,-.7l-1.4,-.8l-1.2,-.9l-1.4,-.9l-1,-1.1l-1.3,-1.1l-1,-1.2l-1.1,-1.2l-.9,-1.2l-.9,-1.3l-.8,-1.3l-.8,-1.4l-.7,-1.5l-.6,-1.4l-.5,-1.5l-.5,-1.6l-.4,-1.5l-.2,-1.5l-.3,-1.5l-.1,-1.7v-1.6Z" class="g1_1" />
<path d="M1197.5,755.4l.1,-1.5v-1.5l.3,-1.5l.2,-1.4l.4,-1.5l.3,-1.6l.7,-1.3l.4,-1.6l.6,-1.3l.8,-1.4l.8,-1.2l.9,-1.4l.7,-1.2l1.1,-1.3l1.1,-1l1,-1.1l1.1,-.9l1.2,-1.1l1.3,-.9l1.2,-.8l1.4,-.7l1.3,-.8l1.4,-.6l1.4,-.6l1.4,-.5l1.5,-.4l1.5,-.3l1.5,-.3l1.6,-.2l1.5,-.2h3l1.6,.2l1.7,.2l1.5,.3l1.5,.3l1.5,.4l1.4,.6l1.5,.6l1.4,.7l1.4,.7l1.4,.8l1.3,.9l1.3,1.1l1,.9l1.3,1.1l1,1.2l1.1,1.2l.9,1.2l.9,1.2l.8,1.4l.8,1.4l.7,1.5l.6,1.4l.5,1.5l.4,1.6l.5,1.5l.2,1.5l.3,1.5l.1,1.7V757l-.1,1.7l-.3,1.5l-.2,1.5l-.5,1.5l-.4,1.6l-.5,1.5l-.6,1.4l-.7,1.3l-.7,1.6l-.9,1.2l-.9,1.4l-.9,1.2l-1.1,1.2l-1,1.1l-1.1,1.2l-1.2,.9l-1.3,1.1l-1.3,.8l-1.4,.9l-1.4,.7l-1.4,.6l-1.5,.7l-1.4,.6l-1.5,.4l-1.5,.3l-1.5,.3l-1.7,.2l-1.6,.1H1226l-1.5,-.1l-1.5,-.2l-1.5,-.3l-1.6,-.3l-1.5,-.4l-1.5,-.6l-1.6,-.7l-1.3,-.6l-1.4,-.7l-1.4,-.8l-1.2,-.9l-1.4,-.9l-1,-1.1l-1.3,-1.1l-1,-1.2l-1.1,-1.2l-.9,-1.2l-.9,-1.3l-.8,-1.3l-.8,-1.4l-.7,-1.5l-.6,-1.4l-.5,-1.5l-.5,-1.6l-.4,-1.5l-.2,-1.5l-.3,-1.5l-.1,-1.7v-1.6Z" class="g2_1" />
<path fill-rule="evenodd" d="M1281,755.4l.2,-1.5v-1.5l.3,-1.5l.2,-1.4l.4,-1.5l.5,-1.6l.4,-1.3l.5,-1.6l.7,-1.3l.7,-1.4l.7,-1.2l.9,-1.4l1,-1.2l.9,-1.3l1,-1l1.1,-1.1l1.1,-.9l1.2,-1.1l1.2,-.9l1.2,-.8l1.4,-.7l1.4,-.8l1.4,-.6l1.4,-.6l1.3,-.5l1.6,-.4l1.5,-.3l1.5,-.3l1.5,-.2l1.6,-.2h3l1.5,.2l1.7,.2l1.6,.3l1.5,.3l1.5,.4l1.4,.6l1.5,.6l1.4,.7l1.4,.7l1.3,.8l1.4,.9l1.2,1.1l1.3,.9l1,1.1l1.1,1.2l1.1,1.2l.9,1.2l.9,1.2l.8,1.4l.7,1.4l.8,1.5l.6,1.4l.5,1.5l.4,1.6l.5,1.5l.1,1.5l.3,1.5l.2,1.7V757l-.2,1.7l-.3,1.5l-.1,1.5l-.5,1.5l-.4,1.6l-.5,1.5l-.6,1.4l-.8,1.3l-.6,1.6l-.9,1.2l-.9,1.4l-.9,1.2l-1.1,1.2l-1.1,1.1l-1,1.2l-1.3,.9l-1.2,1.1l-1.4,.8l-1.3,.9l-1.4,.7l-1.4,.6l-1.5,.7l-1.4,.6l-1.5,.4l-1.5,.3l-1.6,.3l-1.7,.2l-1.5,.1h-3l-1.7,-.1l-1.5,-.2l-1.6,-.3l-1.5,-.3l-1.5,-.4l-1.6,-.6l-1.3,-.7l-1.6,-.6l-1.3,-.7l-1.4,-.8l-1.2,-.9l-1.3,-.9l-1.2,-1.1l-1.2,-1.1l-1.1,-1.2l-1,-1.2l-1,-1.2l-.9,-1.3l-.7,-1.3l-.8,-1.4l-.8,-1.5l-.6,-1.4l-.4,-1.5l-.5,-1.6l-.4,-1.5l-.2,-1.5l-.3,-1.5L1281,757v-1.6Z" class="g1_1" />
<path d="M1281,755.4l.2,-1.5v-1.5l.3,-1.5l.2,-1.4l.4,-1.5l.5,-1.6l.4,-1.3l.5,-1.6l.7,-1.3l.7,-1.4l.7,-1.2l.9,-1.4l1,-1.2l.9,-1.3l1,-1l1.1,-1.1l1.1,-.9l1.2,-1.1l1.2,-.9l1.2,-.8l1.4,-.7l1.4,-.8l1.4,-.6l1.4,-.6l1.3,-.5l1.6,-.4l1.5,-.3l1.5,-.3l1.5,-.2l1.6,-.2h3l1.5,.2l1.7,.2l1.6,.3l1.5,.3l1.5,.4l1.4,.6l1.5,.6l1.4,.7l1.4,.7l1.3,.8l1.4,.9l1.2,1.1l1.3,.9l1,1.1l1.1,1.2l1.1,1.2l.9,1.2l.9,1.2l.8,1.4l.7,1.4l.8,1.5l.6,1.4l.5,1.5l.4,1.6l.5,1.5l.1,1.5l.3,1.5l.2,1.7V757l-.2,1.7l-.3,1.5l-.1,1.5l-.5,1.5l-.4,1.6l-.5,1.5l-.6,1.4l-.8,1.3l-.6,1.6l-.9,1.2l-.9,1.4l-.9,1.2l-1.1,1.2l-1.1,1.1l-1,1.2l-1.3,.9l-1.2,1.1l-1.4,.8l-1.3,.9l-1.4,.7l-1.4,.6l-1.5,.7l-1.4,.6l-1.5,.4l-1.5,.3l-1.6,.3l-1.7,.2l-1.5,.1h-3l-1.7,-.1l-1.5,-.2l-1.6,-.3l-1.5,-.3l-1.5,-.4l-1.6,-.6l-1.3,-.7l-1.6,-.6l-1.3,-.7l-1.4,-.8l-1.2,-.9l-1.3,-.9l-1.2,-1.1l-1.2,-1.1l-1.1,-1.2l-1,-1.2l-1,-1.2l-.9,-1.3l-.7,-1.3l-.8,-1.4l-.8,-1.5l-.6,-1.4l-.4,-1.5l-.5,-1.6l-.4,-1.5l-.2,-1.5l-.3,-1.5L1281,757v-1.6Z" class="g2_1" />
<path fill-rule="evenodd" d="M1364.6,755.4l.2,-1.5v-1.5l.3,-1.5l.1,-1.4l.3,-1.5l.5,-1.6l.4,-1.3l.7,-1.6l.6,-1.3l.7,-1.4l.8,-1.2l.8,-1.4l.9,-1.2l1,-1.3l1,-1l1,-1.1l1.3,-.9l1.2,-1.1l1.2,-.9l1.2,-.8l1.4,-.7l1.4,-.8l1.3,-.6l1.4,-.6l1.4,-.5l1.5,-.4l1.6,-.3l1.3,-.3l1.6,-.2l1.6,-.2h3.1l1.5,.2l1.5,.2l1.7,.3l1.6,.3l1.3,.4l1.6,.6l1.5,.6l1.4,.7l1.3,.7l1.4,.8l1.2,.9l1.4,1.1l1.1,.9l1.2,1.1l1.1,1.2l1,1.2l1,1.2l.9,1.2l.7,1.4l.8,1.4l.8,1.5l.6,1.4l.4,1.5l.5,1.6l.4,1.5l.2,1.5l.3,1.5l.2,1.7V757l-.2,1.7l-.3,1.5l-.2,1.5l-.4,1.5l-.5,1.6l-.4,1.5l-.6,1.4l-.8,1.3l-.8,1.6l-.7,1.2l-.9,1.4l-1,1.2l-1,1.2l-1.1,1.1l-1.1,1.2l-1.2,.9l-1.4,1.1l-1.2,.8l-1.4,.9l-1.3,.7l-1.4,.6l-1.5,.7l-1.6,.6l-1.3,.4l-1.6,.3l-1.7,.3l-1.5,.2l-1.5,.1h-3.2l-1.5,-.1l-1.6,-.2l-1.7,-.3l-1.3,-.3l-1.6,-.4l-1.5,-.6l-1.5,-.7l-1.4,-.6l-1.4,-.7l-1.3,-.8l-1.3,-.9l-1.3,-.9l-1.3,-1.1l-1,-1.1l-1.1,-1.2l-1.1,-1.2l-.9,-1.2l-.9,-1.3l-.8,-1.3l-.7,-1.4l-.8,-1.5l-.6,-1.4l-.5,-1.5l-.4,-1.6l-.5,-1.5l-.1,-1.5l-.3,-1.5l-.2,-1.7v-1.6Z" class="g1_1" />
<path d="M1364.6,755.4l.2,-1.5v-1.5l.3,-1.5l.1,-1.4l.3,-1.5l.5,-1.6l.4,-1.3l.7,-1.6l.6,-1.3l.7,-1.4l.8,-1.2l.8,-1.4l.9,-1.2l1,-1.3l1,-1l1,-1.1l1.3,-.9l1.2,-1.1l1.2,-.9l1.2,-.8l1.4,-.7l1.4,-.8l1.3,-.6l1.4,-.6l1.4,-.5l1.5,-.4l1.6,-.3l1.3,-.3l1.6,-.2l1.6,-.2h3.1l1.5,.2l1.5,.2l1.7,.3l1.6,.3l1.3,.4l1.6,.6l1.5,.6l1.4,.7l1.3,.7l1.4,.8l1.2,.9l1.4,1.1l1.1,.9l1.2,1.1l1.1,1.2l1,1.2l1,1.2l.9,1.2l.7,1.4l.8,1.4l.8,1.5l.6,1.4l.4,1.5l.5,1.6l.4,1.5l.2,1.5l.3,1.5l.2,1.7V757l-.2,1.7l-.3,1.5l-.2,1.5l-.4,1.5l-.5,1.6l-.4,1.5l-.6,1.4l-.8,1.3l-.8,1.6l-.7,1.2l-.9,1.4l-1,1.2l-1,1.2l-1.1,1.1l-1.1,1.2l-1.2,.9l-1.4,1.1l-1.2,.8l-1.4,.9l-1.3,.7l-1.4,.6l-1.5,.7l-1.6,.6l-1.3,.4l-1.6,.3l-1.7,.3l-1.5,.2l-1.5,.1h-3.2l-1.5,-.1l-1.6,-.2l-1.7,-.3l-1.3,-.3l-1.6,-.4l-1.5,-.6l-1.5,-.7l-1.4,-.6l-1.4,-.7l-1.3,-.8l-1.3,-.9l-1.3,-.9l-1.3,-1.1l-1,-1.1l-1.1,-1.2l-1.1,-1.2l-.9,-1.2l-.9,-1.3l-.8,-1.3l-.7,-1.4l-.8,-1.5l-.6,-1.4l-.5,-1.5l-.4,-1.6l-.5,-1.5l-.1,-1.5l-.3,-1.5l-.2,-1.7v-1.6Z" class="g2_1" />
<path fill-rule="evenodd" d="M990.5,545.4l.1,-1.6v-1.3l.3,-1.6l.2,-1.5l.4,-1.5l.3,-1.5l.6,-1.4l.5,-1.5l.8,-1.4l.6,-1.2l.7,-1.4l1,-1.2l.9,-1.3l.9,-1.2l1.1,-1.2l1,-1.1l1.1,-.9l1.2,-1.1l1.2,-.9l1.3,-.7l1.3,-.8l1.4,-.8l1.4,-.6l1.4,-.6l1.3,-.4l1.6,-.5l1.5,-.3l1.5,-.3l1.6,-.2l1.5,-.1h3l1.6,.1l1.6,.2l1.6,.3l1.5,.4l1.5,.4l1.4,.6l1.5,.6l1.4,.6l1.4,.7l1.4,1l1.3,.9l1.3,.9l1.2,1.1l1,1l1.1,1.1l1.1,1.2l.9,1.3l.9,1.3l.8,1.2l.7,1.6l.8,1.4l.6,1.5l.5,1.4l.4,1.5l.5,1.5l.1,1.5l.4,1.6l.1,1.6v3.1l-.1,1.7l-.4,1.5l-.1,1.5l-.5,1.6l-.4,1.5l-.5,1.5l-.6,1.4l-.8,1.5l-.6,1.4l-.9,1.4l-.9,1.2l-.9,1.2l-1.1,1.2l-1.1,1.3l-1,1l-1.2,.9l-1.3,1.1l-1.3,.9l-1.4,.8l-1.4,.8l-1.4,.6l-1.5,.6l-1.4,.6l-1.5,.5l-1.5,.3l-1.6,.3l-1.6,.3h-1.6l-1.5,.1l-1.7,-.1h-1.5l-1.5,-.3l-1.6,-.3l-1.5,-.3l-1.5,-.5l-1.5,-.5l-1.6,-.6l-1.3,-.7l-1.4,-.8l-1.4,-.8l-1.2,-.9l-1.2,-.9l-1.3,-1.1l-1.2,-1l-1,-1.3l-1.1,-1l-.9,-1.4l-1,-1.2l-.7,-1.4l-.8,-1.4l-.7,-1.4l-.7,-1.5l-.4,-1.5l-.5,-1.5l-.4,-1.6l-.2,-1.5l-.3,-1.5l-.1,-1.5v-1.7Z" class="g3_1" />
<path d="M990.5,545.4l.1,-1.6v-1.3l.3,-1.6l.2,-1.5l.4,-1.5l.3,-1.5l.6,-1.4l.5,-1.5l.8,-1.4l.6,-1.2l.7,-1.4l1,-1.2l.9,-1.3l.9,-1.2l1.1,-1.2l1,-1.1l1.1,-.9l1.2,-1.1l1.2,-.9l1.3,-.7l1.3,-.8l1.4,-.8l1.4,-.6l1.4,-.6l1.3,-.4l1.6,-.5l1.5,-.3l1.5,-.3l1.6,-.2l1.5,-.1h3l1.6,.1l1.6,.2l1.6,.3l1.5,.4l1.5,.4l1.4,.6l1.5,.6l1.4,.6l1.4,.7l1.4,1l1.3,.9l1.3,.9l1.2,1.1l1,1l1.1,1.1l1.1,1.2l.9,1.3l.9,1.3l.8,1.2l.7,1.6l.8,1.4l.6,1.5l.5,1.4l.4,1.5l.5,1.5l.1,1.5l.4,1.6l.1,1.6v3.1l-.1,1.7l-.4,1.5l-.1,1.5l-.5,1.6l-.4,1.5l-.5,1.5l-.6,1.4l-.8,1.5l-.6,1.4l-.9,1.4l-.9,1.2l-.9,1.2l-1.1,1.2l-1.1,1.3l-1,1l-1.2,.9l-1.3,1.1l-1.3,.9l-1.4,.8l-1.4,.8l-1.4,.6l-1.5,.6l-1.4,.6l-1.5,.5l-1.5,.3l-1.6,.3l-1.6,.3h-1.6l-1.5,.1l-1.7,-.1h-1.5l-1.5,-.3l-1.6,-.3l-1.5,-.3l-1.5,-.5l-1.5,-.5l-1.6,-.6l-1.3,-.7l-1.4,-.8l-1.4,-.8l-1.2,-.9l-1.2,-.9l-1.3,-1.1l-1.2,-1l-1,-1.3l-1.1,-1l-.9,-1.4l-1,-1.2l-.7,-1.4l-.8,-1.4l-.7,-1.4l-.7,-1.5l-.4,-1.5l-.5,-1.5l-.4,-1.6l-.2,-1.5l-.3,-1.5l-.1,-1.5v-1.7Z" class="g4_1" />
<path fill-rule="evenodd" d="M1074,545.4v-1.6l.2,-1.3l.1,-1.6l.3,-1.5l.3,-1.5l.5,-1.5l.5,-1.4l.6,-1.5l.6,-1.4l.7,-1.2l.8,-1.4l.8,-1.2l.9,-1.3l1.1,-1.2l.9,-1.2l1,-1.1l1.3,-.9l1.2,-1.1l1.2,-.9l1.2,-.7l1.4,-.8l1.2,-.8l1.6,-.6l1.3,-.6l1.4,-.4l1.5,-.5l1.6,-.3l1.3,-.3l1.6,-.2l1.6,-.1h3.1l1.5,.1l1.6,.2l1.6,.3l1.6,.4l1.3,.4l1.6,.6l1.5,.6l1.4,.6l1.3,.7l1.4,1l1.2,.9l1.4,.9l1.1,1.1l1.2,1l1.1,1.1l1.1,1.2l.9,1.3l.9,1.3l.7,1.2l.8,1.6l.8,1.4l.4,1.5l.6,1.4l.5,1.5l.5,1.5l.1,1.5l.3,1.6l.2,1.6v3.1l-.2,1.7l-.3,1.5l-.1,1.5l-.5,1.6l-.5,1.5l-.4,1.5l-.6,1.4l-.8,1.5l-.8,1.4l-.7,1.4l-.9,1.2l-.9,1.2l-1.1,1.2l-1.1,1.3l-1.1,1l-1.2,.9l-1.4,1.1l-1.2,.9l-1.4,.8l-1.3,.8l-1.4,.6l-1.5,.6l-1.6,.6l-1.3,.5l-1.6,.3l-1.6,.3l-1.6,.3h-1.5l-1.7,.1l-1.5,-.1h-1.5l-1.6,-.3l-1.6,-.3l-1.6,-.3l-1.3,-.5l-1.6,-.5l-1.5,-.6l-1.4,-.7l-1.3,-.8l-1.4,-.8l-1.2,-.9l-1.4,-.9l-1.2,-1.1l-1.1,-1l-1.1,-1.3l-1,-1l-1,-1.4l-.9,-1.2l-.7,-1.4l-1,-1.4l-.6,-1.4l-.6,-1.5l-.4,-1.5l-.5,-1.5l-.5,-1.6l-.3,-1.5l-.1,-1.5l-.2,-1.5v-1.7Z" class="g3_1" />
<path d="M1074,545.4v-1.6l.2,-1.3l.1,-1.6l.3,-1.5l.3,-1.5l.5,-1.5l.5,-1.4l.6,-1.5l.6,-1.4l.7,-1.2l.8,-1.4l.8,-1.2l.9,-1.3l1.1,-1.2l.9,-1.2l1,-1.1l1.3,-.9l1.2,-1.1l1.2,-.9l1.2,-.7l1.4,-.8l1.2,-.8l1.6,-.6l1.3,-.6l1.4,-.4l1.5,-.5l1.6,-.3l1.3,-.3l1.6,-.2l1.6,-.1h3.1l1.5,.1l1.6,.2l1.6,.3l1.6,.4l1.3,.4l1.6,.6l1.5,.6l1.4,.6l1.3,.7l1.4,1l1.2,.9l1.4,.9l1.1,1.1l1.2,1l1.1,1.1l1.1,1.2l.9,1.3l.9,1.3l.7,1.2l.8,1.6l.8,1.4l.4,1.5l.6,1.4l.5,1.5l.5,1.5l.1,1.5l.3,1.6l.2,1.6v3.1l-.2,1.7l-.3,1.5l-.1,1.5l-.5,1.6l-.5,1.5l-.4,1.5l-.6,1.4l-.8,1.5l-.8,1.4l-.7,1.4l-.9,1.2l-.9,1.2l-1.1,1.2l-1.1,1.3l-1.1,1l-1.2,.9l-1.4,1.1l-1.2,.9l-1.4,.8l-1.3,.8l-1.4,.6l-1.5,.6l-1.6,.6l-1.3,.5l-1.6,.3l-1.6,.3l-1.6,.3h-1.5l-1.7,.1l-1.5,-.1h-1.5l-1.6,-.3l-1.6,-.3l-1.6,-.3l-1.3,-.5l-1.6,-.5l-1.5,-.6l-1.4,-.7l-1.3,-.8l-1.4,-.8l-1.2,-.9l-1.4,-.9l-1.2,-1.1l-1.1,-1l-1.1,-1.3l-1,-1l-1,-1.4l-.9,-1.2l-.7,-1.4l-1,-1.4l-.6,-1.4l-.6,-1.5l-.4,-1.5l-.5,-1.5l-.5,-1.6l-.3,-1.5l-.1,-1.5l-.2,-1.5v-1.7Z" class="g4_1" />
<path fill-rule="evenodd" d="M1157.6,545.4l.1,-1.6v-1.3l.4,-1.6l.1,-1.5l.5,-1.5l.3,-1.5l.4,-1.4l.6,-1.5l.7,-1.4l.7,-1.2l.8,-1.4l.7,-1.2l1,-1.3l1,-1.2l.9,-1.2l1.3,-1.1l1,-.9l1.3,-1.1l1.2,-.9l1.2,-.7l1.4,-.8l1.4,-.8l1.3,-.6l1.4,-.6l1.4,-.4l1.5,-.5l1.5,-.3l1.6,-.3l1.3,-.2l1.7,-.1h3.1l1.5,.1l1.5,.2l1.7,.3l1.5,.4l1.6,.4l1.3,.6l1.6,.6l1.3,.6l1.4,.7l1.4,1l1.4,.9l1.2,.9l1.1,1.1l1.2,1l1.1,1.1l1,1.2l.9,1.3l1,1.3l.7,1.2l.8,1.6l.7,1.4l.7,1.5l.4,1.4l.5,1.5l.4,1.5l.2,1.5l.3,1.6l.1,1.6v3.1l-.1,1.7l-.3,1.5l-.2,1.5l-.4,1.6l-.5,1.5l-.4,1.5l-.7,1.4l-.7,1.5l-.6,1.4l-.9,1.4l-1,1.2l-.9,1.2l-1,1.2l-1.1,1.3l-1.1,1l-1.2,.9l-1.2,1.1l-1.4,.9l-1.4,.8l-1.4,.8l-1.3,.6l-1.6,.6l-1.3,.6l-1.6,.5l-1.5,.3l-1.7,.3l-1.5,.3h-1.5l-1.6,.1l-1.6,-.1h-1.6l-1.5,-.3l-1.7,-.3l-1.3,-.3l-1.6,-.5l-1.5,-.5l-1.5,-.6l-1.4,-.7l-1.4,-.8l-1.4,-.8l-1.2,-.9l-1.3,-.9l-1.3,-1.1l-1,-1l-1.1,-1.3l-1.1,-1l-.9,-1.4l-.9,-1.2l-.8,-1.4l-.7,-1.4l-.8,-1.4l-.6,-1.5l-.5,-1.5l-.4,-1.5l-.5,-1.6l-.1,-1.5l-.4,-1.5l-.1,-1.5v-1.7Z" class="g3_1" />
<path d="M1157.6,545.4l.1,-1.6v-1.3l.4,-1.6l.1,-1.5l.5,-1.5l.3,-1.5l.4,-1.4l.6,-1.5l.7,-1.4l.7,-1.2l.8,-1.4l.7,-1.2l1,-1.3l1,-1.2l.9,-1.2l1.3,-1.1l1,-.9l1.3,-1.1l1.2,-.9l1.2,-.7l1.4,-.8l1.4,-.8l1.3,-.6l1.4,-.6l1.4,-.4l1.5,-.5l1.5,-.3l1.6,-.3l1.3,-.2l1.7,-.1h3.1l1.5,.1l1.5,.2l1.7,.3l1.5,.4l1.6,.4l1.3,.6l1.6,.6l1.3,.6l1.4,.7l1.4,1l1.4,.9l1.2,.9l1.1,1.1l1.2,1l1.1,1.1l1,1.2l.9,1.3l1,1.3l.7,1.2l.8,1.6l.7,1.4l.7,1.5l.4,1.4l.5,1.5l.4,1.5l.2,1.5l.3,1.6l.1,1.6v3.1l-.1,1.7l-.3,1.5l-.2,1.5l-.4,1.6l-.5,1.5l-.4,1.5l-.7,1.4l-.7,1.5l-.6,1.4l-.9,1.4l-1,1.2l-.9,1.2l-1,1.2l-1.1,1.3l-1.1,1l-1.2,.9l-1.2,1.1l-1.4,.9l-1.4,.8l-1.4,.8l-1.3,.6l-1.6,.6l-1.3,.6l-1.6,.5l-1.5,.3l-1.7,.3l-1.5,.3h-1.5l-1.6,.1l-1.6,-.1h-1.6l-1.5,-.3l-1.7,-.3l-1.3,-.3l-1.6,-.5l-1.5,-.5l-1.5,-.6l-1.4,-.7l-1.4,-.8l-1.4,-.8l-1.2,-.9l-1.3,-.9l-1.3,-1.1l-1,-1l-1.1,-1.3l-1.1,-1l-.9,-1.4l-.9,-1.2l-.8,-1.4l-.7,-1.4l-.8,-1.4l-.6,-1.5l-.5,-1.5l-.4,-1.5l-.5,-1.6l-.1,-1.5l-.4,-1.5l-.1,-1.5v-1.7Z" class="g4_1" />
<path fill-rule="evenodd" d="M1241.2,545.4v-1.6l.1,-1.3l.2,-1.6l.3,-1.5l.3,-1.5l.4,-1.5l.5,-1.4l.6,-1.5l.6,-1.4l.8,-1.2l.8,-1.4l.7,-1.2l.9,-1.3l.9,-1.2l1.1,-1.2l1.1,-1.1l1.2,-.9l1.2,-1.1l1.3,-.9l1.2,-.7l1.3,-.8l1.3,-.8l1.3,-.6l1.6,-.6l1.4,-.4l1.5,-.5l1.5,-.3l1.4,-.3l1.5,-.2l1.5,-.1h3.2l1.6,.1l1.5,.2l1.5,.3l1.6,.4l1.5,.4l1.5,.6l1.5,.6l1.4,.6l1.4,.7l1.4,1l1.2,.9l1.4,.9l1,1.1l1.3,1l1,1.1l1.1,1.2l.9,1.3l.9,1.3l.8,1.2l.8,1.6l.7,1.4l.5,1.5l.6,1.4l.4,1.5l.4,1.5l.3,1.5l.3,1.6v1.6l.1,1.6l-.1,1.5v1.7l-.3,1.5l-.3,1.5l-.4,1.6l-.4,1.5l-.5,1.5l-.6,1.4l-.7,1.5l-.8,1.4l-.8,1.4l-.9,1.2l-.9,1.2l-1.1,1.2l-1,1.3l-1.3,1l-1,.9l-1.4,1.1l-1.2,.9l-1.4,.8l-1.4,.8l-1.4,.6l-1.5,.6l-1.5,.6l-1.5,.5l-1.6,.3l-1.5,.3l-1.5,.3h-1.6l-1.6,.1l-1.6,-.1h-1.5l-1.7,-.3l-1.5,-.3l-1.5,-.3l-1.6,-.5l-1.3,-.5L1259,573l-1.3,-.7l-1.4,-.8l-1.4,-.8l-1.4,-.9l-1.2,-.9l-1.2,-1.1l-1.1,-1l-1,-1.3l-1.1,-1l-.9,-1.4l-.9,-1.2l-1,-1.4l-.7,-1.4l-.6,-1.4l-.6,-1.5l-.7,-1.5l-.3,-1.5l-.4,-1.6l-.3,-1.5l-.2,-1.5l-.1,-1.5v-1.7Z" class="g3_1" />
<path d="M1241.2,545.4v-1.6l.1,-1.3l.2,-1.6l.3,-1.5l.3,-1.5l.4,-1.5l.5,-1.4l.6,-1.5l.6,-1.4l.8,-1.2l.8,-1.4l.7,-1.2l.9,-1.3l.9,-1.2l1.1,-1.2l1.1,-1.1l1.2,-.9l1.2,-1.1l1.3,-.9l1.2,-.7l1.3,-.8l1.3,-.8l1.3,-.6l1.6,-.6l1.4,-.4l1.5,-.5l1.5,-.3l1.4,-.3l1.5,-.2l1.5,-.1h3.2l1.6,.1l1.5,.2l1.5,.3l1.6,.4l1.5,.4l1.5,.6l1.5,.6l1.4,.6l1.4,.7l1.4,1l1.2,.9l1.4,.9l1,1.1l1.3,1l1,1.1l1.1,1.2l.9,1.3l.9,1.3l.8,1.2l.8,1.6l.7,1.4l.5,1.5l.6,1.4l.4,1.5l.4,1.5l.3,1.5l.3,1.6v1.6l.1,1.6l-.1,1.5v1.7l-.3,1.5l-.3,1.5l-.4,1.6l-.4,1.5l-.5,1.5l-.6,1.4l-.7,1.5l-.8,1.4l-.8,1.4l-.9,1.2l-.9,1.2l-1.1,1.2l-1,1.3l-1.3,1l-1,.9l-1.4,1.1l-1.2,.9l-1.4,.8l-1.4,.8l-1.4,.6l-1.5,.6l-1.5,.6l-1.5,.5l-1.6,.3l-1.5,.3l-1.5,.3h-1.6l-1.6,.1l-1.6,-.1h-1.5l-1.7,-.3l-1.5,-.3l-1.5,-.3l-1.6,-.5l-1.3,-.5L1259,573l-1.3,-.7l-1.4,-.8l-1.4,-.8l-1.4,-.9l-1.2,-.9l-1.2,-1.1l-1.1,-1l-1,-1.3l-1.1,-1l-.9,-1.4l-.9,-1.2l-1,-1.4l-.7,-1.4l-.6,-1.4l-.6,-1.5l-.7,-1.5l-.3,-1.5l-.4,-1.6l-.3,-1.5l-.2,-1.5l-.1,-1.5v-1.7Z" class="g4_1" />
<path fill-rule="evenodd" d="M1324.7,545.4v-1.6l.2,-1.3l.1,-1.6l.3,-1.5l.4,-1.5l.4,-1.5l.5,-1.4l.6,-1.5l.6,-1.4l.8,-1.2l.7,-1.4l.8,-1.2l.9,-1.3l1.1,-1.2l.9,-1.2l1.1,-1.1l1.2,-.9l1.2,-1.1l1.2,-.9l1.2,-.7l1.4,-.8l1.2,-.8l1.6,-.6l1.3,-.6l1.4,-.4l1.5,-.5l1.6,-.3l1.3,-.3l1.6,-.2l1.7,-.1h3l1.5,.1l1.6,.2l1.7,.3l1.3,.4l1.6,.4l1.5,.6l1.5,.6l1.4,.6l1.4,.7l1.3,1l1.3,.9l1.3,.9l1.1,1.1l1.2,1l1.1,1.1l1.1,1.2l.9,1.3l.9,1.3l.8,1.2l.7,1.6l.8,1.4l.4,1.5l.7,1.4l.4,1.5l.5,1.5l.1,1.5l.3,1.6v1.6l.2,1.6l-.2,1.5v1.7l-.3,1.5l-.1,1.5l-.5,1.6l-.4,1.5l-.5,1.5l-.6,1.4l-.8,1.5l-.7,1.4l-.8,1.4l-.9,1.2l-.9,1.2l-1.1,1.2l-1.1,1.3l-1,1l-1.3,.9l-1.3,1.1l-1.3,.9l-1.3,.8l-1.4,.8l-1.4,.6l-1.5,.6l-1.5,.6l-1.6,.5l-1.3,.3l-1.7,.3l-1.6,.3h-1.5l-1.7,.1l-1.5,-.1h-1.5l-1.6,-.3l-1.6,-.3l-1.6,-.3l-1.3,-.5l-1.6,-.5l-1.5,-.6l-1.4,-.7l-1.3,-.8l-1.4,-.8l-1.2,-.9l-1.4,-.9l-1.2,-1.1l-1.1,-1l-1.1,-1.3l-1,-1l-1,-1.4l-.9,-1.2l-.7,-1.4l-1,-1.4l-.6,-1.4l-.6,-1.5l-.4,-1.5l-.5,-1.5l-.5,-1.6l-.3,-1.5l-.1,-1.5l-.2,-1.5v-1.7Z" class="g3_1" />
<path d="M1324.7,545.4v-1.6l.2,-1.3l.1,-1.6l.3,-1.5l.4,-1.5l.4,-1.5l.5,-1.4l.6,-1.5l.6,-1.4l.8,-1.2l.7,-1.4l.8,-1.2l.9,-1.3l1.1,-1.2l.9,-1.2l1.1,-1.1l1.2,-.9l1.2,-1.1l1.2,-.9l1.2,-.7l1.4,-.8l1.2,-.8l1.6,-.6l1.3,-.6l1.4,-.4l1.5,-.5l1.6,-.3l1.3,-.3l1.6,-.2l1.7,-.1h3l1.5,.1l1.6,.2l1.7,.3l1.3,.4l1.6,.4l1.5,.6l1.5,.6l1.4,.6l1.4,.7l1.3,1l1.3,.9l1.3,.9l1.1,1.1l1.2,1l1.1,1.1l1.1,1.2l.9,1.3l.9,1.3l.8,1.2l.7,1.6l.8,1.4l.4,1.5l.7,1.4l.4,1.5l.5,1.5l.1,1.5l.3,1.6v1.6l.2,1.6l-.2,1.5v1.7l-.3,1.5l-.1,1.5l-.5,1.6l-.4,1.5l-.5,1.5l-.6,1.4l-.8,1.5l-.7,1.4l-.8,1.4l-.9,1.2l-.9,1.2l-1.1,1.2l-1.1,1.3l-1,1l-1.3,.9l-1.3,1.1l-1.3,.9l-1.3,.8l-1.4,.8l-1.4,.6l-1.5,.6l-1.5,.6l-1.6,.5l-1.3,.3l-1.7,.3l-1.6,.3h-1.5l-1.7,.1l-1.5,-.1h-1.5l-1.6,-.3l-1.6,-.3l-1.6,-.3l-1.3,-.5l-1.6,-.5l-1.5,-.6l-1.4,-.7l-1.3,-.8l-1.4,-.8l-1.2,-.9l-1.4,-.9l-1.2,-1.1l-1.1,-1l-1.1,-1.3l-1,-1l-1,-1.4l-.9,-1.2l-.7,-1.4l-1,-1.4l-.6,-1.4l-.6,-1.5l-.4,-1.5l-.5,-1.5l-.5,-1.6l-.3,-1.5l-.1,-1.5l-.2,-1.5v-1.7Z" class="g4_1" />
<text x="747" y="773" dx="0,0,0,0.1,0.1" class="s1_1">Input</text>
<path d="M977,725.2l43.7,-149.6M977.2,725.2L1104.3,575.6M977,725.2L1187.8,575.6M977,725.2L1271.4,575.6M977.2,725.2L1355,575.6M1020.7,515.3L976.4,361.7M1020.7,515.3L1060,361.7M1020.7,515.3L1143.5,361.7M1020.7,515.3L1227.1,361.7M1060.6,725.2L1020.7,575.6M1060.6,725.2l43.7,-149.6M1060.7,725.2L1187.8,575.6M1060.6,725.2L1271.4,575.6M1060.6,725.2L1355,575.6M1144.2,725.2L1020.7,575.6M1144.2,725.2L1104.1,575.6M1144.2,725.2l43.6,-149.6M1144.2,725.2L1271.4,575.6M1144.2,725.2L1354.8,575.6M1227.7,725.2l-207,-149.6M1227.7,725.2L1104.3,575.6M1227.7,725.2L1187.8,575.6M1227.7,725.2l43.7,-149.6M1227.7,725.2L1355,575.6M1311.3,725.2L1020.7,575.6M1311.1,725.2l-207,-149.6M1311.3,725.2L1187.8,575.6M1311.3,725.2l-40,-149.6M1311.3,725.2L1355,575.6M1394.9,725.2L1020.7,575.6M1394.9,725.2L1104.1,575.6M1394.9,725.2L1187.8,575.6M1394.9,725.2L1271.4,575.6M1394.9,725.2L1354.8,575.6M1104.1,515.3L976.4,361.7M1104.3,515.3L1060,361.7M1104.3,515.3l39.2,-153.6M1104.3,515.3L1227.1,361.7M1187.8,515.3L976.4,361.7M1187.8,515.3L1060,361.7M1187.8,515.3L1143.5,361.7M1187.8,515.3l39.3,-153.6M1271.4,515.3L1060,361.7M1271.4,515.3L976.4,361.7M1271.3,515.3L1143.5,361.7M1271.4,515.3L1227.1,361.7M1354.8,515.3L976.4,361.7M1355,515.3L1060,361.7M1354.8,515.3L1143.5,361.7M1355,515.3l39.2,-153.6" class="g7_1" />
<text x="747" y="348" dx="0,-0.5,0.1,-0.2,-0.1,0.1,-0.5,0.2,-0.1,0.1,0.1,0.1,-0.1" class="s1_1">Reconstruction</text>
<path fill-rule="evenodd" d="M946.2,331.6l.1,-1.3v-1.6l.3,-1.5l.2,-1.5l.4,-1.5l.3,-1.4l.6,-1.6l.5,-1.3l.8,-1.6l.6,-1.2l.7,-1.4l1,-1.2l.9,-1.2l.9,-1.2l1.1,-1.2l1,-1.1l1.1,-.9l1.2,-1.1l1.2,-.9l1.3,-.8l1.3,-.7l1.4,-.8l1.4,-.6l1.4,-.6l1.3,-.5l1.6,-.4l1.5,-.3l1.5,-.4l1.5,-.1l1.6,-.2h3l1.6,.2l1.6,.1l1.6,.4l1.5,.4l1.5,.5l1.4,.4l1.5,.6l1.4,.6l1.4,.8l1.3,.9l1.4,.9l1.2,1l1.3,1l1,1.1l1.1,1.1l1.1,1.2l.9,1.2l.9,1.4l.8,1.4l.7,1.3l.8,1.4l.6,1.5l.5,1.4l.4,1.5l.5,1.6l.1,1.5l.3,1.7l.2,1.5v3.1l-.2,1.6l-.3,1.6l-.1,1.5l-.5,1.5l-.4,1.6l-.5,1.5l-.6,1.4l-.8,1.5l-.6,1.4l-.9,1.3l-.9,1.3l-.9,1.2l-1.1,1.2l-1.1,1.2l-1,1.1l-1.3,1.1l-1.2,.9l-1.4,.9l-1.3,.8l-1.4,.7l-1.4,.6l-1.5,.6l-1.4,.7l-1.5,.4l-1.5,.5l-1.6,.1l-1.6,.3h-1.6l-1.5,.2l-1.5,-.2h-1.7l-1.5,-.3l-1.6,-.1l-1.5,-.5l-1.5,-.4l-1.5,-.5l-1.6,-.6l-1.3,-.8l-1.4,-.7l-1.4,-.8l-1.2,-.9l-1.2,-.9l-1.3,-1.1L955,353l-1.1,-1l-1,-1.3l-.9,-1.3l-1,-1.3l-.7,-1.3l-.8,-1.4l-.7,-1.4l-.7,-1.5l-.4,-1.5l-.5,-1.4l-.4,-1.5l-.2,-1.7l-.3,-1.6l-.1,-1.5v-1.7Z" class="g1_1" />
<path d="M946.2,331.6l.1,-1.3v-1.6l.3,-1.5l.2,-1.5l.4,-1.5l.3,-1.4l.6,-1.6l.5,-1.3l.8,-1.6l.6,-1.2l.7,-1.4l1,-1.2l.9,-1.2l.9,-1.2l1.1,-1.2l1,-1.1l1.1,-.9l1.2,-1.1l1.2,-.9l1.3,-.8l1.3,-.7l1.4,-.8l1.4,-.6l1.4,-.6l1.3,-.5l1.6,-.4l1.5,-.3l1.5,-.4l1.5,-.1l1.6,-.2h3l1.6,.2l1.6,.1l1.6,.4l1.5,.4l1.5,.5l1.4,.4l1.5,.6l1.4,.6l1.4,.8l1.3,.9l1.4,.9l1.2,1l1.3,1l1,1.1l1.1,1.1l1.1,1.2l.9,1.2l.9,1.4l.8,1.4l.7,1.3l.8,1.4l.6,1.5l.5,1.4l.4,1.5l.5,1.6l.1,1.5l.3,1.7l.2,1.5v3.1l-.2,1.6l-.3,1.6l-.1,1.5l-.5,1.5l-.4,1.6l-.5,1.5l-.6,1.4l-.8,1.5l-.6,1.4l-.9,1.3l-.9,1.3l-.9,1.2l-1.1,1.2l-1.1,1.2l-1,1.1l-1.3,1.1l-1.2,.9l-1.4,.9l-1.3,.8l-1.4,.7l-1.4,.6l-1.5,.6l-1.4,.7l-1.5,.4l-1.5,.5l-1.6,.1l-1.6,.3h-1.6l-1.5,.2l-1.5,-.2h-1.7l-1.5,-.3l-1.6,-.1l-1.5,-.5l-1.5,-.4l-1.5,-.5l-1.6,-.6l-1.3,-.8l-1.4,-.7l-1.4,-.8l-1.2,-.9l-1.2,-.9l-1.3,-1.1L955,353l-1.1,-1l-1,-1.3l-.9,-1.3l-1,-1.3l-.7,-1.3l-.8,-1.4l-.7,-1.4l-.7,-1.5l-.4,-1.5l-.5,-1.4l-.4,-1.5l-.2,-1.7l-.3,-1.6l-.1,-1.5v-1.7Z" class="g2_1" />
<path fill-rule="evenodd" d="M1029.9,331.6v-2.9l.3,-1.5l.1,-1.5l.5,-1.5l.5,-1.4l.4,-1.6l.5,-1.3l.7,-1.6l.6,-1.2l.8,-1.4l.9,-1.2l.9,-1.2l1,-1.2l1,-1.2l1.1,-1.1l1.1,-.9l1.2,-1.1l1.2,-.9l1.2,-.8l1.4,-.7l1.4,-.8l1.4,-.6l1.3,-.6l1.6,-.5l1.3,-.4l1.6,-.3l1.5,-.4l1.5,-.1l1.5,-.2h3.1l1.5,.2l1.7,.1l1.5,.4l1.6,.4l1.5,.5l1.4,.4l1.5,.6l1.4,.6l1.3,.8l1.4,.9l1.4,.9l1.2,1l1.2,1l1.1,1.1l1.1,1.1l1,1.2l1,1.2l.9,1.4l.7,1.4l1,1.3l.6,1.4l.6,1.5l.4,1.4l.5,1.5l.5,1.6l.3,1.5l.1,1.7l.2,1.5v3.1l-.2,1.6l-.1,1.6l-.3,1.5l-.5,1.5l-.5,1.6l-.4,1.5l-.6,1.4l-.6,1.5l-.8,1.4l-.9,1.3l-.9,1.3l-1,1.2l-1,1.2l-1.1,1.2l-1.1,1.1l-1.2,1.1l-1.2,.9l-1.4,.9l-1.4,.8l-1.3,.7l-1.4,.6l-1.5,.6l-1.4,.7l-1.5,.4l-1.6,.5l-1.5,.1l-1.7,.3h-1.5l-1.5,.2l-1.6,-.2h-1.6l-1.6,-.3l-1.5,-.1l-1.5,-.5l-1.5,-.4l-1.6,-.5l-1.4,-.6l-1.5,-.8l-1.4,-.7l-1.3,-.8l-1.2,-.9l-1.3,-.9l-1.2,-1.1l-1.2,-1.1l-1.1,-1l-1.1,-1.3l-.9,-1.3l-.9,-1.3l-.8,-1.3l-.7,-1.4l-.6,-1.4l-.6,-1.5l-.6,-1.5l-.5,-1.4l-.5,-1.5l-.1,-1.7l-.3,-1.6v-1.5l-.2,-1.7h.2Z" class="g1_1" />
<path d="M1029.9,331.6v-2.9l.3,-1.5l.1,-1.5l.5,-1.5l.5,-1.4l.4,-1.6l.5,-1.3l.7,-1.6l.6,-1.2l.8,-1.4l.9,-1.2l.9,-1.2l1,-1.2l1,-1.2l1.1,-1.1l1.1,-.9l1.2,-1.1l1.2,-.9l1.2,-.8l1.4,-.7l1.4,-.8l1.4,-.6l1.3,-.6l1.6,-.5l1.3,-.4l1.6,-.3l1.5,-.4l1.5,-.1l1.5,-.2h3.1l1.5,.2l1.7,.1l1.5,.4l1.6,.4l1.5,.5l1.4,.4l1.5,.6l1.4,.6l1.3,.8l1.4,.9l1.4,.9l1.2,1l1.2,1l1.1,1.1l1.1,1.1l1,1.2l1,1.2l.9,1.4l.7,1.4l1,1.3l.6,1.4l.6,1.5l.4,1.4l.5,1.5l.5,1.6l.3,1.5l.1,1.7l.2,1.5v3.1l-.2,1.6l-.1,1.6l-.3,1.5l-.5,1.5l-.5,1.6l-.4,1.5l-.6,1.4l-.6,1.5l-.8,1.4l-.9,1.3l-.9,1.3l-1,1.2l-1,1.2l-1.1,1.2l-1.1,1.1l-1.2,1.1l-1.2,.9l-1.4,.9l-1.4,.8l-1.3,.7l-1.4,.6l-1.5,.6l-1.4,.7l-1.5,.4l-1.6,.5l-1.5,.1l-1.7,.3h-1.5l-1.5,.2l-1.6,-.2h-1.6l-1.6,-.3l-1.5,-.1l-1.5,-.5l-1.5,-.4l-1.6,-.5l-1.4,-.6l-1.5,-.8l-1.4,-.7l-1.3,-.8l-1.2,-.9l-1.3,-.9l-1.2,-1.1l-1.2,-1.1l-1.1,-1l-1.1,-1.3l-.9,-1.3l-.9,-1.3l-.8,-1.3l-.7,-1.4l-.6,-1.4l-.6,-1.5l-.6,-1.5l-.5,-1.4l-.5,-1.5l-.1,-1.7l-.3,-1.6v-1.5l-.2,-1.7h.2Z" class="g2_1" />
<path fill-rule="evenodd" d="M1113.3,331.6l.1,-1.3v-1.6l.4,-1.5l.1,-1.5l.5,-1.5l.3,-1.4l.4,-1.6l.6,-1.3l.6,-1.6l.8,-1.2l.8,-1.4l.7,-1.2l1,-1.2l1,-1.2l.9,-1.2l1.3,-1.1l1,-.9l1.3,-1.1l1.2,-.9l1.2,-.8l1.4,-.7l1.3,-.8l1.4,-.6l1.4,-.6l1.4,-.5l1.5,-.4l1.5,-.3l1.6,-.4l1.3,-.1l1.7,-.2h3.1l1.5,.2l1.5,.1l1.7,.4l1.5,.4l1.6,.5l1.3,.4l1.6,.6l1.3,.6l1.4,.8l1.4,.9l1.4,.9l1.2,1l1.1,1l1.2,1.1l1,1.1l1.1,1.2l.9,1.2l1,1.4l.7,1.4l.8,1.3l.7,1.4l.7,1.5l.4,1.4l.5,1.5l.4,1.6l.2,1.5l.3,1.7l.1,1.5v3.1l-.1,1.6l-.3,1.6l-.2,1.5l-.4,1.5l-.5,1.6l-.4,1.5l-.7,1.4l-.7,1.5l-.6,1.4l-.9,1.3l-1,1.3l-.9,1.2l-1.1,1.2l-1,1.2l-1.1,1.1l-1.2,1.1l-1.2,.9l-1.4,.9l-1.4,.8l-1.4,.7l-1.3,.6l-1.6,.6l-1.3,.7l-1.6,.4l-1.5,.5l-1.7,.1l-1.5,.3h-1.5l-1.6,.2l-1.6,-.2h-1.6l-1.5,-.3l-1.7,-.1l-1.3,-.5l-1.6,-.4l-1.5,-.5l-1.5,-.6l-1.4,-.8l-1.4,-.7L1127,357l-1.2,-.9l-1.4,-.9l-1,-1.1l-1.2,-1.1l-1.1,-1l-1.1,-1.3l-.9,-1.3l-.9,-1.3l-.8,-1.3l-.7,-1.4l-.8,-1.4l-.6,-1.5l-.5,-1.5l-.4,-1.4l-.5,-1.5l-.1,-1.7l-.4,-1.6l-.1,-1.5v-1.7Z" class="g1_1" />
<path d="M1113.3,331.6l.1,-1.3v-1.6l.4,-1.5l.1,-1.5l.5,-1.5l.3,-1.4l.4,-1.6l.6,-1.3l.6,-1.6l.8,-1.2l.8,-1.4l.7,-1.2l1,-1.2l1,-1.2l.9,-1.2l1.3,-1.1l1,-.9l1.3,-1.1l1.2,-.9l1.2,-.8l1.4,-.7l1.3,-.8l1.4,-.6l1.4,-.6l1.4,-.5l1.5,-.4l1.5,-.3l1.6,-.4l1.3,-.1l1.7,-.2h3.1l1.5,.2l1.5,.1l1.7,.4l1.5,.4l1.6,.5l1.3,.4l1.6,.6l1.3,.6l1.4,.8l1.4,.9l1.4,.9l1.2,1l1.1,1l1.2,1.1l1,1.1l1.1,1.2l.9,1.2l1,1.4l.7,1.4l.8,1.3l.7,1.4l.7,1.5l.4,1.4l.5,1.5l.4,1.6l.2,1.5l.3,1.7l.1,1.5v3.1l-.1,1.6l-.3,1.6l-.2,1.5l-.4,1.5l-.5,1.6l-.4,1.5l-.7,1.4l-.7,1.5l-.6,1.4l-.9,1.3l-1,1.3l-.9,1.2l-1.1,1.2l-1,1.2l-1.1,1.1l-1.2,1.1l-1.2,.9l-1.4,.9l-1.4,.8l-1.4,.7l-1.3,.6l-1.6,.6l-1.3,.7l-1.6,.4l-1.5,.5l-1.7,.1l-1.5,.3h-1.5l-1.6,.2l-1.6,-.2h-1.6l-1.5,-.3l-1.7,-.1l-1.3,-.5l-1.6,-.4l-1.5,-.5l-1.5,-.6l-1.4,-.8l-1.4,-.7L1127,357l-1.2,-.9l-1.4,-.9l-1,-1.1l-1.2,-1.1l-1.1,-1l-1.1,-1.3l-.9,-1.3l-.9,-1.3l-.8,-1.3l-.7,-1.4l-.8,-1.4l-.6,-1.5l-.5,-1.5l-.4,-1.4l-.5,-1.5l-.1,-1.7l-.4,-1.6l-.1,-1.5v-1.7Z" class="g2_1" />
<path fill-rule="evenodd" d="M1196.9,331.6v-1.3l.1,-1.6l.2,-1.5l.3,-1.5l.3,-1.5l.4,-1.4l.5,-1.6l.6,-1.3l.6,-1.6l.8,-1.2l.7,-1.4l.8,-1.2l.9,-1.2l.9,-1.2l1.1,-1.2l1.1,-1.1l1.2,-.9l1.2,-1.1l1.2,-.9l1.3,-.8l1.3,-.7l1.3,-.8l1.3,-.6l1.6,-.6l1.3,-.5l1.6,-.4l1.5,-.3l1.4,-.4l1.5,-.1l1.5,-.2h3.2l1.6,.2l1.5,.1l1.7,.4l1.4,.4l1.5,.5l1.5,.4l1.5,.6l1.4,.6l1.4,.8l1.4,.9l1.2,.9l1.4,1l1,1l1.2,1.1l1.1,1.1l1.1,1.2l.9,1.2l.9,1.4l.8,1.4l.7,1.3l.8,1.4l.5,1.5l.6,1.4l.4,1.5l.3,1.6l.3,1.5l.4,1.7v1.5l.1,1.5l-.1,1.6v1.6l-.4,1.6l-.3,1.5l-.3,1.5l-.4,1.6l-.5,1.5l-.6,1.4l-.8,1.5l-.7,1.4l-.8,1.3l-.9,1.3l-.9,1.2l-1.1,1.2l-1.1,1.2l-1.2,1.1l-1,1.1l-1.4,.9l-1.2,.9l-1.4,.8l-1.4,.7l-1.4,.6l-1.5,.6l-1.5,.7l-1.5,.4l-1.4,.5l-1.7,.1l-1.5,.3h-1.6l-1.6,.2l-1.6,-.2h-1.5l-1.5,-.3l-1.7,-.1l-1.5,-.5l-1.6,-.4l-1.3,-.5l-1.6,-.6l-1.3,-.8l-1.4,-.7l-1.4,-.8l-1.4,-.9l-1.2,-.9l-1.2,-1.1l-1.1,-1.1l-1,-1l-1.1,-1.3l-.9,-1.3l-1,-1.3l-.9,-1.3l-.7,-1.4l-.6,-1.4l-.7,-1.5l-.6,-1.5l-.3,-1.4l-.4,-1.5l-.3,-1.7l-.2,-1.6l-.1,-1.5v-1.7Z" class="g1_1" />
<path d="M1196.9,331.6v-1.3l.1,-1.6l.2,-1.5l.3,-1.5l.3,-1.5l.4,-1.4l.5,-1.6l.6,-1.3l.6,-1.6l.8,-1.2l.7,-1.4l.8,-1.2l.9,-1.2l.9,-1.2l1.1,-1.2l1.1,-1.1l1.2,-.9l1.2,-1.1l1.2,-.9l1.3,-.8l1.3,-.7l1.3,-.8l1.3,-.6l1.6,-.6l1.3,-.5l1.6,-.4l1.5,-.3l1.4,-.4l1.5,-.1l1.5,-.2h3.2l1.6,.2l1.5,.1l1.7,.4l1.4,.4l1.5,.5l1.5,.4l1.5,.6l1.4,.6l1.4,.8l1.4,.9l1.2,.9l1.4,1l1,1l1.2,1.1l1.1,1.1l1.1,1.2l.9,1.2l.9,1.4l.8,1.4l.7,1.3l.8,1.4l.5,1.5l.6,1.4l.4,1.5l.3,1.6l.3,1.5l.4,1.7v1.5l.1,1.5l-.1,1.6v1.6l-.4,1.6l-.3,1.5l-.3,1.5l-.4,1.6l-.5,1.5l-.6,1.4l-.8,1.5l-.7,1.4l-.8,1.3l-.9,1.3l-.9,1.2l-1.1,1.2l-1.1,1.2l-1.2,1.1l-1,1.1l-1.4,.9l-1.2,.9l-1.4,.8l-1.4,.7l-1.4,.6l-1.5,.6l-1.5,.7l-1.5,.4l-1.4,.5l-1.7,.1l-1.5,.3h-1.6l-1.6,.2l-1.6,-.2h-1.5l-1.5,-.3l-1.7,-.1l-1.5,-.5l-1.6,-.4l-1.3,-.5l-1.6,-.6l-1.3,-.8l-1.4,-.7l-1.4,-.8l-1.4,-.9l-1.2,-.9l-1.2,-1.1l-1.1,-1.1l-1,-1l-1.1,-1.3l-.9,-1.3l-1,-1.3l-.9,-1.3l-.7,-1.4l-.6,-1.4l-.7,-1.5l-.6,-1.5l-.3,-1.4l-.4,-1.5l-.3,-1.7l-.2,-1.6l-.1,-1.5v-1.7Z" class="g2_1" />
<path fill-rule="evenodd" d="M1280.4,331.6v-1.3l.2,-1.6l.1,-1.5l.3,-1.5l.3,-1.5l.5,-1.4l.5,-1.6l.6,-1.3l.6,-1.6l.7,-1.2l.8,-1.4l.8,-1.2l.9,-1.2l1.1,-1.2l.9,-1.2l1.1,-1.1l1.2,-.9l1.2,-1.1l1.2,-.9l1.2,-.8l1.4,-.7l1.2,-.8l1.6,-.6l1.3,-.6l1.4,-.5l1.5,-.4l1.6,-.3l1.3,-.4l1.6,-.1l1.7,-.2h3l1.5,.2l1.6,.1l1.6,.4l1.6,.4l1.3,.5l1.6,.4l1.5,.6l1.4,.6l1.4,.8l1.3,.9l1.3,.9l1.3,1l1.1,1l1.2,1.1l1.1,1.1l1.1,1.2l.9,1.2l.9,1.4l.8,1.4l.7,1.3l.8,1.4l.4,1.5l.6,1.4l.5,1.5l.5,1.6l.1,1.5l.3,1.7v1.5l.2,1.5l-.2,1.6v1.6l-.3,1.6l-.1,1.5l-.5,1.5l-.5,1.6l-.4,1.5l-.6,1.4l-.8,1.5l-.7,1.4l-.8,1.3l-.9,1.3l-.9,1.2l-1.1,1.2l-1.1,1.2l-1.1,1.1l-1.2,1.1l-1.3,.9l-1.3,.9l-1.3,.8l-1.4,.7l-1.4,.6l-1.5,.6l-1.6,.7l-1.3,.4l-1.6,.5l-1.6,.1l-1.6,.3h-1.5l-1.7,.2l-1.5,-.2h-1.5l-1.6,-.3l-1.6,-.1l-1.6,-.5l-1.3,-.4l-1.6,-.5l-1.5,-.6l-1.4,-.8l-1.3,-.7l-1.4,-.8l-1.2,-.9l-1.4,-.9l-1.2,-1.1l-1.1,-1.1l-1.1,-1l-1,-1.3l-1,-1.3l-.9,-1.3l-.7,-1.3l-1,-1.4L1283,344l-.6,-1.5L1282,341l-.5,-1.4l-.5,-1.5l-.3,-1.7l-.1,-1.6l-.2,-1.5v-1.7Z" class="g1_1" />
<path d="M1280.4,331.6v-1.3l.2,-1.6l.1,-1.5l.3,-1.5l.3,-1.5l.5,-1.4l.5,-1.6l.6,-1.3l.6,-1.6l.7,-1.2l.8,-1.4l.8,-1.2l.9,-1.2l1.1,-1.2l.9,-1.2l1.1,-1.1l1.2,-.9l1.2,-1.1l1.2,-.9l1.2,-.8l1.4,-.7l1.2,-.8l1.6,-.6l1.3,-.6l1.4,-.5l1.5,-.4l1.6,-.3l1.3,-.4l1.6,-.1l1.7,-.2h3l1.5,.2l1.6,.1l1.6,.4l1.6,.4l1.3,.5l1.6,.4l1.5,.6l1.4,.6l1.4,.8l1.3,.9l1.3,.9l1.3,1l1.1,1l1.2,1.1l1.1,1.1l1.1,1.2l.9,1.2l.9,1.4l.8,1.4l.7,1.3l.8,1.4l.4,1.5l.6,1.4l.5,1.5l.5,1.6l.1,1.5l.3,1.7v1.5l.2,1.5l-.2,1.6v1.6l-.3,1.6l-.1,1.5l-.5,1.5l-.5,1.6l-.4,1.5l-.6,1.4l-.8,1.5l-.7,1.4l-.8,1.3l-.9,1.3l-.9,1.2l-1.1,1.2l-1.1,1.2l-1.1,1.1l-1.2,1.1l-1.3,.9l-1.3,.9l-1.3,.8l-1.4,.7l-1.4,.6l-1.5,.6l-1.6,.7l-1.3,.4l-1.6,.5l-1.6,.1l-1.6,.3h-1.5l-1.7,.2l-1.5,-.2h-1.5l-1.6,-.3l-1.6,-.1l-1.6,-.5l-1.3,-.4l-1.6,-.5l-1.5,-.6l-1.4,-.8l-1.3,-.7l-1.4,-.8l-1.2,-.9l-1.4,-.9l-1.2,-1.1l-1.1,-1.1l-1.1,-1l-1,-1.3l-1,-1.3l-.9,-1.3l-.7,-1.3l-1,-1.4L1283,344l-.6,-1.5L1282,341l-.5,-1.4l-.5,-1.5l-.3,-1.7l-.1,-1.6l-.2,-1.5v-1.7Z" class="g2_1" />
<path fill-rule="evenodd" d="M1364,331.6v-1.3l.2,-1.6l.1,-1.5l.3,-1.5l.3,-1.5l.5,-1.4l.4,-1.6l.6,-1.3l.7,-1.6l.7,-1.2l.8,-1.4l.7,-1.2l1,-1.2l.9,-1.2l1.1,-1.2l1,-1.1l1.2,-.9l1.3,-1.1l1,-.9l1.4,-.8l1.2,-.7l1.4,-.8l1.4,-.6l1.5,-.6l1.4,-.5l1.5,-.4l1.5,-.3l1.4,-.4l1.5,-.1l1.6,-.2h3l1.7,.2l1.5,.1l1.6,.4l1.5,.4l1.5,.5l1.5,.4l1.6,.6l1.3,.6l1.4,.8l1.4,.9l1.2,.9l1.2,1l1.3,1l1.2,1.1l1.1,1.1l1,1.2l.9,1.2l1,1.4l.7,1.4l.8,1.3l.7,1.4l.5,1.5l.6,1.4l.5,1.5l.3,1.6l.3,1.5l.1,1.7l.2,1.5l.1,1.5l-.1,1.6l-.2,1.6l-.1,1.6l-.3,1.5l-.3,1.5l-.5,1.6l-.4,1.5l-.7,1.4l-.7,1.5l-.8,1.4l-.7,1.3l-1,1.3l-.9,1.2l-1,1.2l-1.1,1.2l-1.2,1.1l-1.3,1.1l-1.2,.9l-1.2,.9l-1.4,.8l-1.4,.7l-1.3,.6l-1.6,.6l-1.5,.7l-1.5,.4l-1.5,.5l-1.6,.1l-1.5,.3h-1.7l-1.5,.2l-1.5,-.2H1391l-1.6,-.3l-1.6,-.1l-1.5,-.5l-1.5,-.4l-1.5,-.5l-1.4,-.6l-1.4,-.8l-1.4,-.7l-1.4,-.8l-1.3,-.9l-1.2,-.9l-1.3,-1.1l-1,-1.1l-1.3,-1l-.9,-1.3l-1,-1.3l-.8,-1.3l-.9,-1.3l-.8,-1.4l-.6,-1.4l-.6,-1.5l-.6,-1.5l-.3,-1.4l-.5,-1.5l-.3,-1.7l-.1,-1.6l-.2,-1.5v-1.7Z" class="g1_1" />
<path d="M1364,331.6v-1.3l.2,-1.6l.1,-1.5l.3,-1.5l.3,-1.5l.5,-1.4l.4,-1.6l.6,-1.3l.7,-1.6l.7,-1.2l.8,-1.4l.7,-1.2l1,-1.2l.9,-1.2l1.1,-1.2l1,-1.1l1.2,-.9l1.3,-1.1l1,-.9l1.4,-.8l1.2,-.7l1.4,-.8l1.4,-.6l1.5,-.6l1.4,-.5l1.5,-.4l1.5,-.3l1.4,-.4l1.5,-.1l1.6,-.2h3l1.7,.2l1.5,.1l1.6,.4l1.5,.4l1.5,.5l1.5,.4l1.6,.6l1.3,.6l1.4,.8l1.4,.9l1.2,.9l1.2,1l1.3,1l1.2,1.1l1.1,1.1l1,1.2l.9,1.2l1,1.4l.7,1.4l.8,1.3l.7,1.4l.5,1.5l.6,1.4l.5,1.5l.3,1.6l.3,1.5l.1,1.7l.2,1.5l.1,1.5l-.1,1.6l-.2,1.6l-.1,1.6l-.3,1.5l-.3,1.5l-.5,1.6l-.4,1.5l-.7,1.4l-.7,1.5l-.8,1.4l-.7,1.3l-1,1.3l-.9,1.2l-1,1.2l-1.1,1.2l-1.2,1.1l-1.3,1.1l-1.2,.9l-1.2,.9l-1.4,.8l-1.4,.7l-1.3,.6l-1.6,.6l-1.5,.7l-1.5,.4l-1.5,.5l-1.6,.1l-1.5,.3h-1.7l-1.5,.2l-1.5,-.2H1391l-1.6,-.3l-1.6,-.1l-1.5,-.5l-1.5,-.4l-1.5,-.5l-1.4,-.6l-1.4,-.8l-1.4,-.7l-1.4,-.8l-1.3,-.9l-1.2,-.9l-1.3,-1.1l-1,-1.1l-1.3,-1l-.9,-1.3l-1,-1.3l-.8,-1.3l-.9,-1.3l-.8,-1.4l-.6,-1.4l-.6,-1.5l-.6,-1.5l-.3,-1.4l-.5,-1.5l-.3,-1.7l-.1,-1.6l-.2,-1.5v-1.7Z" class="g2_1" />
<path d="M1020.7,515.3l290,-153.6M1020.7,515.3L1394.2,361.7M1104.3,515.3L1310.7,361.7M1104.3,515.3L1394.2,361.7M1187.8,515.3L1310.7,361.7M1187.8,515.3L1394.2,361.7M1271.4,515.3l39.3,-153.6M1271.4,515.3L1394.2,361.7M1355,515.3L1310.7,361.7M1354.8,515.3L1227,361.7" class="g7_1" />
<path fill-rule="evenodd" d="M955.5,552.6H668.1v5.6L656.8,546.9l11.3,-11.3v5.6H955.5v11.4Z" class="g5_1" />
<path d="M955.5,552.6H668.1v5.6L656.8,546.9l11.3,-11.3v5.6H955.5v11.4Z" class="g6_1" />
<text x="338" y="78" dx="0,-0.1,-0.1,0.2,-0.1,0.4,-0.1,0,0,-0.1" class="s4_1" style="font-weight: bold">Supervised</text>
<text x="1070" y="78" dx="0,0,-0.1,0,-0.1,0,0,0.2,0,0,-0.1,0" class="s4_1" style="font-weight: bold">Unsupervised</text>
<text x="733" y="585" class="s5_1">(</text>
<text x="741" y="585" dx="0,0,0,0,-0.1,0,0,-0.1,-0.5,0,0.1,0" class="s2_1" style="font-style: italic">initialization</text>
<text x="893" y="585" class="s5_1">)</text>
<text x="204" y="448" class="s2_1">W</text>
<text x="232" y="456" class="s3_1">2</text>
<text x="163" y="655" class="s2_1">W</text>
<text x="190" y="663" class="s3_1">1</text>
<text x="932" y="654" class="s2_1">W</text>
<text x="960" y="662" class="s3_1">1</text>
<text x="933" y="453" class="s6_1">W</text>
<text x="960" y="460" class="s7_1">1</text>
<text x="969" y="443" class="s7_1">T</text>


<!-- Any embedded fonts defined here -->
<style type="text/css" ><![CDATA[

@font-face {
	font-family: Carlito-BoldItalic_e;
	src: url("fonts/Carlito-BoldItalic_e.woff") format("woff");
}

@font-face {
	font-family: Carlito-Italic_j;
	src: url("fonts/Carlito-Italic_j.woff") format("woff");
}

@font-face {
	font-family: Carlito_9;
	src: url("fonts/Carlito_9.woff") format("woff");
}

]]></style>

</svg>
